SplineFontDB: 3.0
FontName: FreeSansBoldOblique
FullName: Free Sans Bold Oblique
FamilyName: FreeSans
Weight: Bold
Copyright: Copyleft 2002, 2003, 2005, 2008 Free Software Foundation.
Version: $Revision: 1.75 $
ItalicAngle: -12
UnderlinePosition: -111
UnderlineWidth: 69
Ascent: 800
Descent: 200
LayerCount: 2
Layer: 0 0 "Back" 
Layer: 1 0 "Fore" 
NeedsXUIDChange: 1
FSType: 0
OS2Version: 0
OS2_WeightWidthSlopeOnly: 0
OS2_UseTypoMetrics: 0
CreationTime: 1203284335
ModificationTime: 1224059882
PfmFamily: 33
TTFWeight: 700
TTFWidth: 5
LineGap: 90
VLineGap: 0
Panose: 2 11 7 4 2 2 2 9 2 4
OS2TypoAscent: 0
OS2TypoAOffset: 1
OS2TypoDescent: 0
OS2TypoDOffset: 1
OS2TypoLinegap: 0
OS2WinAscent: 1000
OS2WinAOffset: 0
OS2WinDescent: 300
OS2WinDOffset: 0
HheadAscent: 1000
HheadAOffset: 0
HheadDescent: -300
HheadDOffset: 0
OS2SubXSize: 650
OS2SubYSize: 699
OS2SubXOff: 47
OS2SubYOff: 140
OS2SupXSize: 650
OS2SupYSize: 699
OS2SupXOff: -163
OS2SupYOff: 479
OS2StrikeYSize: 49
OS2StrikeYPos: 258
OS2Vendor: 'GNU '
Lookup: 4 0 1 "'liga' Standard Ligatures in Latin"  {"'liga' Standard Ligatures in Latin subtable"  } ['liga' ('latn' <'dflt' > ) ]
Lookup: 4 8 0 "'dlig' Discretionary Ligatures in Hebrew lookup 4"  {"'dlig' Discretionary Ligatures in Hebrew lookup 4 subtable"  } ['dlig' ('hebr' <'dflt' > ) ]
Lookup: 4 8 0 "'hlig' Historic Ligatures in Latin"  {"'hlig' Historic Ligatures in Latin subtable"  } ['hlig' ('latn' <'dflt' > ) ]
Lookup: 4 8 0 "'dlig' Discretionary Ligatures in Latin"  {"'dlig' Discretionary Ligatures in Latin subtable"  } ['dlig' ('latn' <'dflt' > ) ]
Lookup: 4 0 0 "'frac' Diagonal Fractions lookup 7"  {"'frac' Diagonal Fractions lookup 7 subtable"  } ['frac' ('DFLT' <'dflt' > ) ]
Lookup: 260 0 0 "'mark' Mark Positioning in Latin"  {"'mark' Mark Positioning in Latin subtable"  } ['mark' ('latn' <'dflt' > ) ]
Lookup: 258 0 0 "'kern' Horizontal Kerning in Latin lookup 0"  {"'kern' Horizontal Kerning in Latin lookup 0 subtable"  } ['kern' ('latn' <'dflt' > ) ]

StartChar: exclam
Encoding: 33 33 1
Width: 333
Flags: MW
LayerCount: 2
Fore
SplineSet
417 726 m 1
 372 516 l 1
 265 207 l 1
 198 207 l 1
 222 516 l 1
 267 726 l 1
 417 726 l 1
293 146 m 1
 262 0 l 1
 112 0 l 1
 143 146 l 1
 293 146 l 1
EndSplineSet
Validated: 1
EndChar

StartChar: quotedbl
Encoding: 34 34 2
Width: 474
Flags: MW
LayerCount: 2
Fore
SplineSet
343 729 m 1
 315 599 l 1
 246 470 l 1
 190 470 l 1
 177 599 l 1
 205 729 l 1
 343 729 l 1
579 729 m 1
 551 599 l 1
 482 470 l 1
 426 470 l 1
 413 599 l 1
 441 729 l 1
 579 729 l 1
EndSplineSet
Validated: 1
EndChar

StartChar: numbersign
Encoding: 35 35 3
Width: 556
Flags: MW
LayerCount: 2
Fore
SplineSet
138 -32 m 1
 33 -32 l 1
 116 172 l 1
 39 172 l 1
 60 272 l 1
 157 272 l 1
 219 424 l 1
 120 424 l 1
 142 524 l 1
 260 524 l 1
 331 697 l 1
 437 697 l 1
 365 524 l 1
 468 524 l 1
 539 697 l 1
 645 697 l 1
 573 524 l 1
 660 524 l 1
 639 424 l 1
 533 424 l 1
 471 272 l 1
 570 272 l 1
 549 172 l 1
 430 172 l 1
 346 -32 l 1
 241 -32 l 1
 324 172 l 1
 222 172 l 1
 138 -32 l 1
262 272 m 1
 365 272 l 1
 427 424 l 1
 325 424 l 1
 262 272 l 1
EndSplineSet
Validated: 1
EndChar

StartChar: dollar
Encoding: 36 36 4
Width: 556
Flags: MW
LayerCount: 2
Fore
SplineSet
461 709 m 1
 531 703 628 678 628 547 c 0
 628 532 627 520 623 498 c 1
 495 498 l 1
 497 517 498 526 498 538 c 0
 498 576 476 602 440 608 c 1
 397 407 l 1
 482 381 573 339 573 237 c 0
 573 149 521 61 445 19 c 0
 406 -2 362 -15 306 -21 c 1
 284 -126 l 1
 216 -126 l 1
 239 -21 l 1
 123 -9 59 51 59 148 c 0
 59 166 61 182 67 207 c 1
 197 207 l 1
 196 188 196 181 196 174 c 0
 196 123 217 95 261 86 c 1
 307 299 l 1
 196 327 142 384 142 475 c 0
 142 531 176 688 394 709 c 1
 405 763 l 1
 473 763 l 1
 461 709 l 1
372 608 m 1
 280 590 272 522 272 501 c 0
 272 468 293 443 334 427 c 1
 372 608 l 1
371 282 m 1
 329 86 l 1
 393 101 430 142 430 198 c 0
 430 238 410 266 371 282 c 1
EndSplineSet
Validated: 1
EndChar

StartChar: percent
Encoding: 37 37 5
Width: 889
Flags: MW
LayerCount: 2
Fore
SplineSet
756 709 m 1
 833 709 l 1
 282 -20 l 1
 206 -20 l 1
 756 709 l 1
352 701 m 0
 441 701 505 640 505 557 c 0
 505 442 398 337 280 337 c 0
 194 337 129 399 129 482 c 0
 129 595 237 701 352 701 c 0
331 603 m 0
 278 603 229 554 229 501 c 0
 229 464 261 435 302 435 c 0
 356 435 405 483 405 536 c 0
 405 574 373 603 331 603 c 0
750 344 m 0
 839 344 903 283 903 200 c 0
 903 85 796 -20 678 -20 c 0
 592 -20 527 42 527 125 c 0
 527 238 635 344 750 344 c 0
729 246 m 0
 676 246 627 197 627 144 c 0
 627 107 659 78 700 78 c 0
 754 78 803 126 803 179 c 0
 803 217 771 246 729 246 c 0
EndSplineSet
Validated: 1
EndChar

StartChar: ampersand
Encoding: 38 38 6
Width: 722
Flags: MW
LayerCount: 2
Fore
SplineSet
624 605 m 0
 624 477 505 415 465 392 c 1
 547 255 l 1
 581 286 596 316 607 373 c 1
 720 373 l 1
 709 300 661 213 602 160 c 1
 696 0 l 1
 536 0 l 1
 499 60 l 1
 407 -6 364 -23 287 -23 c 0
 163 -23 89 44 89 156 c 0
 89 257 145 330 299 401 c 1
 263 452 246 492 246 523 c 0
 246 630 351 723 471 723 c 0
 562 723 624 676 624 605 c 0
347 319 m 1
 295 290 l 2
 246 262 226 233 226 187 c 0
 226 135 266 93 315 93 c 0
 349 93 380 107 446 152 c 1
 347 319 l 1
419 470 m 1
 471 497 499 533 499 574 c 0
 499 599 480 615 448 615 c 0
 410 615 383 589 383 552 c 0
 383 534 388 524 419 470 c 1
EndSplineSet
Validated: 1
EndChar

StartChar: quotesingle
Encoding: 39 39 7
Width: 238
Flags: MW
LayerCount: 2
Fore
SplineSet
343 729 m 1
 315 599 l 1
 245 470 l 1
 190 470 l 1
 177 599 l 1
 205 729 l 1
 343 729 l 1
EndSplineSet
Validated: 1
EndChar

StartChar: parenleft
Encoding: 40 40 8
Width: 333
Flags: MW
LayerCount: 2
Fore
SplineSet
458 729 m 1
 306 521 203 343 203 112 c 0
 203 20 217 -56 261 -200 c 1
 161 -200 l 1
 110 -83 84 25 84 122 c 0
 84 324 168 510 358 729 c 1
 458 729 l 1
EndSplineSet
Validated: 1
EndChar

StartChar: parenright
Encoding: 41 41 9
Width: 333
Flags: MW
LayerCount: 2
Fore
SplineSet
356 406 m 0
 356 273 328 83 79 -200 c 1
 -21 -200 l 1
 135 10 237 185 237 416 c 0
 237 509 223 582 176 729 c 1
 276 729 l 1
 331 608 356 504 356 406 c 0
EndSplineSet
Validated: 1
EndChar

StartChar: asterisk
Encoding: 42 42 10
Width: 389
Flags: MW
LayerCount: 2
Fore
SplineSet
246 544 m 1
 145 580 l 1
 182 649 l 1
 283 613 l 1
 307 729 l 1
 379 729 l 1
 354 613 l 1
 471 649 l 1
 478 579 l 1
 362 544 l 1
 409 450 l 1
 342 407 l 1
 295 501 l 1
 208 407 l 1
 159 450 l 1
 246 544 l 1
EndSplineSet
Validated: 1
EndChar

StartChar: plus
Encoding: 43 43 11
Width: 584
Flags: MW
LayerCount: 2
Fore
SplineSet
596 292 m 1
 571 172 l 1
 388 172 l 1
 349 -10 l 1
 230 -10 l 1
 269 172 l 1
 87 172 l 1
 112 292 l 1
 294 292 l 1
 333 473 l 1
 452 473 l 1
 413 292 l 1
 596 292 l 1
EndSplineSet
Validated: 1
EndChar

StartChar: comma
Encoding: 44 44 12
Width: 278
Flags: MW
LayerCount: 2
Fore
SplineSet
95 146 m 1
 245 146 l 1
 216 9 l 1
 197 -101 137 -158 27 -174 c 1
 39 -118 l 1
 101 -107 137 -68 150 0 c 1
 64 0 l 1
 95 146 l 1
EndSplineSet
Validated: 1
EndChar

StartChar: hyphen
Encoding: 45 45 13
Width: 333
Flags: MW
LayerCount: 2
Fore
SplineSet
371 342 m 1
 342 207 l 1
 70 207 l 1
 99 342 l 1
 371 342 l 1
EndSplineSet
Validated: 1
EndChar

StartChar: period
Encoding: 46 46 14
Width: 278
Flags: MW
LayerCount: 2
Fore
SplineSet
245 146 m 1
 214 0 l 1
 64 0 l 1
 95 146 l 1
 245 146 l 1
EndSplineSet
Validated: 1
EndChar

StartChar: slash
Encoding: 47 47 15
Width: 278
Flags: MW
LayerCount: 2
Fore
SplineSet
360 714 m 1
 427 714 l 1
 66 -14 l 1
 -1 -14 l 1
 360 714 l 1
EndSplineSet
Validated: 1
EndChar

StartChar: zero
Encoding: 48 48 16
Width: 556
Flags: MW
LayerCount: 2
Fore
SplineSet
421 724 m 0
 541 724 614 649 614 526 c 0
 614 425 576 251 534 160 c 0
 479 41 387 -23 271 -23 c 0
 153 -23 81 53 81 176 c 0
 81 277 119 449 161 541 c 0
 216 659 308 724 421 724 c 0
394 612 m 0
 359 612 330 593 306 555 c 0
 273 502 224 280 224 183 c 0
 224 132 254 99 300 99 c 0
 359 99 393 138 421 237 c 0
 448 332 471 466 471 528 c 0
 471 579 441 612 394 612 c 0
EndSplineSet
Validated: 1
EndChar

StartChar: one
Encoding: 49 49 17
Width: 556
Flags: MW
LayerCount: 2
Fore
SplineSet
342 489 m 1
 172 489 l 1
 192 582 l 1
 314 582 396 625 436 709 c 1
 529 709 l 1
 378 0 l 1
 238 0 l 1
 342 489 l 1
EndSplineSet
Validated: 1
EndChar

StartChar: two
Encoding: 50 50 18
Width: 556
Flags: MW
LayerCount: 2
Fore
SplineSet
628 552 m 0
 628 312 314 237 238 125 c 1
 538 125 l 1
 512 0 l 1
 30 0 l 1
 103 275 290 254 431 404 c 0
 465 438 485 486 485 532 c 0
 485 582 453 612 399 612 c 0
 330 612 285 559 272 462 c 1
 138 462 l 1
 164 630 266 724 421 724 c 0
 551 724 628 660 628 552 c 0
EndSplineSet
Validated: 1
EndChar

StartChar: three
Encoding: 51 51 19
Width: 556
Flags: MW
LayerCount: 2
Fore
SplineSet
422 230 m 0
 422 304 377 317 284 317 c 1
 304 411 l 1
 316 411 l 2
 406 411 465 463 465 542 c 0
 465 583 433 612 388 612 c 0
 291 612 278 515 271 486 c 1
 142 486 l 1
 173 649 259 724 413 724 c 0
 540 724 613 669 613 573 c 0
 613 494 573 429 493 380 c 1
 542 350 565 311 565 257 c 0
 565 100 453 -23 272 -23 c 0
 142 -23 67 41 67 151 c 0
 67 170 69 185 73 208 c 1
 209 208 l 1
 210 198 l 1
 210 176 l 1
 211 127 243 99 300 99 c 0
 367 99 422 159 422 230 c 0
EndSplineSet
Validated: 1
EndChar

StartChar: four
Encoding: 52 52 20
Width: 556
Flags: MW
LayerCount: 2
Fore
SplineSet
580 273 m 1
 555 157 l 1
 482 157 l 1
 448 0 l 1
 308 0 l 1
 342 157 l 1
 57 157 l 1
 82 275 l 1
 434 709 l 1
 599 709 l 1
 506 273 l 1
 580 273 l 1
366 273 m 1
 431 577 l 1
 182 273 l 1
 366 273 l 1
EndSplineSet
Validated: 1
EndChar

StartChar: five
Encoding: 53 53 21
Width: 556
Flags: MW
LayerCount: 2
Fore
SplineSet
572 300 m 0
 572 233 521 -23 259 -23 c 0
 139 -23 59 42 59 141 c 0
 59 154 60 165 64 185 c 1
 202 185 l 1
 201 176 200 168 200 163 c 0
 200 124 235 99 288 99 c 0
 369 99 429 175 429 276 c 0
 429 334 397 367 339 367 c 0
 297 367 260 348 238 314 c 1
 112 314 l 1
 258 709 l 1
 641 709 l 1
 614 584 l 1
 318 584 l 1
 264 436 l 1
 311 467 349 479 396 479 c 0
 505 479 572 410 572 300 c 0
EndSplineSet
Validated: 1
EndChar

StartChar: six
Encoding: 54 54 22
Width: 556
Flags: MW
LayerCount: 2
Fore
SplineSet
85 171 m 0
 85 282 139 724 443 724 c 0
 556 724 625 666 625 571 c 0
 625 566 625 557 624 548 c 1
 494 548 l 1
 485 594 462 612 414 612 c 0
 327 612 297 547 260 411 c 1
 310 449 357 467 409 467 c 0
 514 467 577 404 577 300 c 0
 577 221 518 -23 284 -23 c 0
 163 -23 85 53 85 171 c 0
352 355 m 0
 278 355 215 278 215 188 c 0
 215 136 250 99 301 99 c 0
 374 99 434 176 434 269 c 0
 434 320 401 355 352 355 c 0
EndSplineSet
Validated: 1
EndChar

StartChar: seven
Encoding: 55 55 23
Width: 556
Flags: MW
LayerCount: 2
Fore
SplineSet
679 709 m 1
 656 599 l 1
 551 491 l 1
 404 328 326 191 273 0 c 1
 131 0 l 1
 211 242 309 396 504 584 c 1
 151 584 l 1
 178 709 l 1
 679 709 l 1
EndSplineSet
Validated: 1
EndChar

StartChar: eight
Encoding: 56 56 24
Width: 556
Flags: MW
LayerCount: 2
Fore
SplineSet
620 570 m 0
 620 460 524 405 491 386 c 1
 552 349 575 313 575 253 c 0
 575 185 542 110 489 59 c 0
 435 6 359 -23 276 -23 c 0
 143 -23 60 46 60 155 c 0
 60 302 180 365 221 386 c 1
 174 422 156 452 156 495 c 0
 156 620 277 724 422 724 c 0
 539 724 620 661 620 570 c 0
398 612 m 0
 331 612 278 563 278 500 c 0
 278 455 312 425 363 425 c 0
 433 425 490 476 490 540 c 0
 490 583 453 612 398 612 c 0
342 330 m 0
 264 330 203 264 203 180 c 0
 203 133 243 99 297 99 c 0
 376 99 432 161 432 247 c 0
 432 298 397 330 342 330 c 0
EndSplineSet
Validated: 1
EndChar

StartChar: nine
Encoding: 57 57 25
Width: 556
Flags: MW
LayerCount: 2
Fore
SplineSet
611 519 m 0
 611 417 557 -23 248 -23 c 0
 141 -23 68 40 68 132 c 0
 68 142 69 149 72 165 c 1
 207 165 l 1
 206 160 206 156 206 153 c 0
 206 121 238 99 285 99 c 0
 347 99 400 132 436 291 c 1
 380 243 345 228 289 228 c 0
 185 228 120 295 120 403 c 0
 120 582 249 724 413 724 c 0
 533 724 611 643 611 519 c 0
389 612 m 0
 315 612 257 532 257 431 c 0
 257 378 288 344 337 344 c 0
 417 344 481 422 481 519 c 0
 481 576 445 612 389 612 c 0
EndSplineSet
Validated: 1
EndChar

StartChar: colon
Encoding: 58 58 26
Width: 333
Flags: MW
LayerCount: 2
Fore
SplineSet
294 146 m 1
 263 0 l 1
 113 0 l 1
 144 146 l 1
 294 146 l 1
374 520 m 1
 343 374 l 1
 193 374 l 1
 224 520 l 1
 374 520 l 1
EndSplineSet
Validated: 1
EndChar

StartChar: semicolon
Encoding: 59 59 27
Width: 333
Flags: MW
LayerCount: 2
Fore
SplineSet
144 146 m 1
 294 146 l 1
 265 9 l 1
 246 -101 186 -158 76 -174 c 1
 88 -118 l 1
 150 -107 186 -68 199 0 c 1
 113 0 l 1
 144 146 l 1
374 520 m 1
 343 374 l 1
 193 374 l 1
 224 520 l 1
 374 520 l 1
EndSplineSet
Validated: 1
EndChar

StartChar: less
Encoding: 60 60 28
Width: 584
Flags: MW
LayerCount: 2
Fore
SplineSet
630 474 m 1
 603 345 l 1
 263 232 l 1
 555 121 l 1
 527 -10 l 1
 77 172 l 1
 103 293 l 1
 630 474 l 1
EndSplineSet
Validated: 1
EndChar

StartChar: equal
Encoding: 61 61 29
Width: 584
Flags: MW
LayerCount: 2
Fore
SplineSet
622 412 m 1
 597 292 l 1
 112 292 l 1
 137 412 l 1
 622 412 l 1
571 172 m 1
 546 52 l 1
 61 52 l 1
 86 172 l 1
 571 172 l 1
EndSplineSet
Validated: 1
EndChar

StartChar: greater
Encoding: 62 62 30
Width: 584
Flags: MW
LayerCount: 2
Fore
SplineSet
38 -10 m 1
 65 119 l 1
 405 232 l 1
 113 343 l 1
 141 474 l 1
 591 292 l 1
 565 171 l 1
 38 -10 l 1
EndSplineSet
Validated: 1
EndChar

StartChar: question
Encoding: 63 63 31
Width: 611
Flags: MW
LayerCount: 2
Fore
SplineSet
456 744 m 0
 629 744 672 637 672 566 c 0
 672 413 550 347 505 320 c 0
 437 278 428 267 414 201 c 1
 292 201 l 1
 310 393 529 394 529 533 c 0
 529 584 491 620 438 620 c 0
 370 620 321 569 304 481 c 1
 168 481 l 1
 181 540 226 744 456 744 c 0
418 146 m 1
 387 0 l 1
 237 0 l 1
 268 146 l 1
 418 146 l 1
EndSplineSet
Validated: 1
EndChar

StartChar: at
Encoding: 64 64 32
Width: 975
Flags: MW
LayerCount: 2
Fore
SplineSet
1032 439 m 0
 1032 211 836 56 705 56 c 0
 649 56 612 80 597 126 c 1
 548 78 493 53 438 53 c 0
 357 53 301 109 301 189 c 0
 301 249 335 324 391 390 c 0
 460 470 548 518 626 518 c 0
 676 518 703 499 723 449 c 1
 750 508 l 1
 840 508 l 1
 704 228 l 1
 687 195 685 188 685 174 c 0
 685 153 701 139 724 139 c 0
 775 139 939 245 939 425 c 0
 939 545 830 662 641 662 c 0
 270 662 173 302 173 196 c 0
 173 50 298 -54 476 -54 c 0
 539 -54 594 -43 688 -13 c 1
 700 -92 l 1
 624 -123 548 -137 453 -137 c 0
 147 -137 73 62 73 181 c 0
 73 311 133 450 235 557 c 0
 349 677 506 745 670 745 c 0
 887 745 1032 605 1032 439 c 0
671 376 m 0
 671 417 643 446 601 446 c 0
 516 446 401 315 401 215 c 0
 401 168 428 136 468 136 c 0
 559 136 671 284 671 376 c 0
EndSplineSet
Validated: 1
EndChar

StartChar: A
Encoding: 65 65 33
Width: 722
Flags: MW
LayerCount: 2
Fore
SplineSet
532 147 m 1
 260 147 l 1
 179 0 l 1
 26 0 l 1
 433 729 l 1
 606 729 l 1
 703 0 l 1
 550 0 l 1
 532 147 l 1
518 272 m 1
 483 555 l 1
 329 272 l 1
 518 272 l 1
EndSplineSet
Validated: 1
EndChar

StartChar: B
Encoding: 66 66 34
Width: 722
Flags: MW
LayerCount: 2
Fore
SplineSet
562 729 m 2
 723 729 762 638 762 571 c 0
 762 502 721 438 645 388 c 1
 696 348 716 310 716 255 c 0
 716 196 684 126 635 78 c 0
 579 24 510 0 410 0 c 2
 82 0 l 1
 237 729 l 1
 562 729 l 2
489 439 m 2
 594 439 613 502 613 542 c 0
 613 585 586 604 524 604 c 2
 360 604 l 1
 325 439 l 1
 489 439 l 2
437 125 m 2
 542 125 568 192 568 245 c 0
 568 292 539 314 477 314 c 2
 299 314 l 1
 259 125 l 1
 437 125 l 2
EndSplineSet
Validated: 1
EndChar

StartChar: C
Encoding: 67 67 35
Width: 722
Flags: MW
LayerCount: 2
Fore
SplineSet
107 235 m 0
 107 517 289 741 533 741 c 0
 688 741 793 656 793 532 c 0
 793 521 792 510 789 482 c 1
 648 482 l 1
 648 559 615 613 516 613 c 0
 295 613 256 334 256 264 c 0
 256 159 306 105 403 105 c 0
 499 105 570 157 599 249 c 1
 742 249 l 1
 698 78 564 -23 382 -23 c 0
 211 -23 107 75 107 235 c 0
EndSplineSet
Validated: 1
EndChar

StartChar: D
Encoding: 68 68 36
Width: 722
Flags: MW
LayerCount: 2
Fore
SplineSet
77 0 m 1
 232 729 l 1
 517 729 l 2
 698 729 776 654 776 479 c 0
 776 361 735 238 664 140 c 0
 591 39 507 0 362 0 c 2
 77 0 l 1
254 125 m 1
 388 125 l 2
 475 125 524 153 567 228 c 0
 601 287 627 390 627 469 c 0
 627 560 582 604 490 604 c 2
 355 604 l 1
 254 125 l 1
EndSplineSet
Validated: 1
EndChar

StartChar: E
Encoding: 69 69 37
Width: 667
Flags: MW
LayerCount: 2
Fore
SplineSet
296 314 m 1
 256 125 l 1
 651 125 l 1
 624 0 l 1
 79 0 l 1
 234 729 l 1
 762 729 l 1
 735 604 l 1
 357 604 l 1
 322 439 l 1
 671 439 l 1
 645 314 l 1
 296 314 l 1
EndSplineSet
Validated: 1
EndChar

StartChar: F
Encoding: 70 70 38
Width: 611
Flags: MW
LayerCount: 2
Fore
SplineSet
291 314 m 1
 224 0 l 1
 74 0 l 1
 229 729 l 1
 741 729 l 1
 714 604 l 1
 352 604 l 1
 317 439 l 1
 637 439 l 1
 610 314 l 1
 291 314 l 1
EndSplineSet
Validated: 1
EndChar

StartChar: G
Encoding: 71 71 39
Width: 778
Flags: MW
LayerCount: 2
Fore
SplineSet
795 392 m 1
 711 -2 l 1
 621 -2 l 1
 628 88 l 1
 554 9 488 -23 395 -23 c 0
 219 -23 107 88 107 262 c 0
 107 378 155 505 233 596 c 0
 315 691 424 741 547 741 c 0
 710 741 819 655 819 529 c 0
 819 521 818 510 817 496 c 1
 679 496 l 1
 671 571 614 613 519 613 c 0
 434 613 366 575 318 501 c 0
 282 446 256 355 256 284 c 0
 256 181 328 105 426 105 c 0
 564 105 626 218 642 267 c 1
 476 267 l 1
 503 392 l 1
 795 392 l 1
EndSplineSet
Validated: 1
EndChar

StartChar: H
Encoding: 72 72 40
Width: 722
Flags: MW
LayerCount: 2
Fore
SplineSet
577 331 m 1
 288 331 l 1
 218 0 l 1
 68 0 l 1
 223 729 l 1
 373 729 l 1
 315 456 l 1
 603 456 l 1
 661 729 l 1
 812 729 l 1
 657 0 l 1
 507 0 l 1
 577 331 l 1
EndSplineSet
Validated: 1
EndChar

StartChar: I
Encoding: 73 73 41
Width: 278
Flags: MW
LayerCount: 2
Fore
SplineSet
368 729 m 1
 213 0 l 1
 63 0 l 1
 218 729 l 1
 368 729 l 1
EndSplineSet
Validated: 1
EndChar

StartChar: J
Encoding: 74 74 42
Width: 556
Flags: MW
LayerCount: 2
Fore
SplineSet
491 729 m 1
 641 729 l 1
 526 190 l 2
 510 114 475 55 426 23 c 0
 383 -5 313 -23 247 -23 c 0
 130 -23 59 36 59 133 c 0
 59 154 61 176 66 198 c 0
 81 270 l 1
 231 270 l 1
 215 193 l 1
 212 180 211 169 211 159 c 0
 211 127 238 105 277 105 c 0
 330 105 364 135 376 190 c 0
 491 729 l 1
EndSplineSet
Validated: 1
EndChar

StartChar: K
Encoding: 75 75 43
Width: 722
Flags: MW
LayerCount: 2
Fore
SplineSet
274 234 m 1
 224 0 l 1
 74 0 l 1
 229 729 l 1
 379 729 l 1
 311 409 l 1
 665 729 l 1
 843 729 l 1
 482 410 l 1
 717 0 l 1
 538 0 l 1
 365 314 l 1
 274 234 l 1
EndSplineSet
Validated: 1
EndChar

StartChar: L
Encoding: 76 76 44
Width: 611
Flags: MW
LayerCount: 2
Fore
SplineSet
385 729 m 1
 257 125 l 1
 606 125 l 1
 579 0 l 1
 80 0 l 1
 235 729 l 1
 385 729 l 1
EndSplineSet
Validated: 1
EndChar

StartChar: M
Encoding: 77 77 45
Width: 833
Flags: MW
LayerCount: 2
Fore
SplineSet
497 0 m 1
 347 0 l 1
 340 619 l 1
 208 0 l 1
 66 0 l 1
 221 729 l 1
 438 729 l 1
 458 169 l 1
 712 729 l 1
 931 729 l 1
 776 0 l 1
 634 0 l 1
 766 619 l 1
 497 0 l 1
EndSplineSet
Validated: 1
EndChar

StartChar: N
Encoding: 78 78 46
Width: 722
Flags: MW
LayerCount: 2
Fore
SplineSet
816 729 m 1
 661 0 l 1
 513 0 l 1
 321 523 l 1
 210 0 l 1
 68 0 l 1
 223 729 l 1
 373 729 l 1
 565 214 l 1
 674 729 l 1
 816 729 l 1
EndSplineSet
Validated: 1
EndChar

StartChar: O
Encoding: 79 79 47
Width: 778
Flags: MW
LayerCount: 2
Fore
SplineSet
538 741 m 0
 721 741 828 635 828 455 c 0
 828 337 783 215 705 124 c 0
 619 22 523 -23 395 -23 c 0
 217 -23 106 86 106 261 c 0
 106 376 153 502 231 594 c 0
 313 693 414 741 538 741 c 0
419 105 m 0
 638 105 679 371 679 437 c 0
 679 547 619 613 519 613 c 0
 299 613 255 351 255 282 c 0
 255 173 318 105 419 105 c 0
EndSplineSet
Validated: 1
EndChar

StartChar: P
Encoding: 80 80 48
Width: 667
Flags: MW
LayerCount: 2
Fore
SplineSet
539 729 m 2
 706 729 747 631 747 560 c 0
 747 483 712 398 658 341 c 0
 605 284 547 260 468 260 c 2
 281 260 l 1
 226 0 l 1
 76 0 l 1
 231 729 l 1
 539 729 l 2
461 385 m 2
 571 385 598 469 598 525 c 0
 598 572 562 604 508 604 c 2
 354 604 l 1
 308 385 l 1
 461 385 l 2
EndSplineSet
Validated: 1
EndChar

StartChar: Q
Encoding: 81 81 49
Width: 778
Flags: MW
LayerCount: 2
Fore
SplineSet
686 103 m 1
 750 27 l 1
 657 -54 l 1
 588 27 l 1
 527 -7 468 -23 397 -23 c 0
 220 -23 109 87 109 262 c 0
 109 378 156 504 232 594 c 0
 315 694 414 741 538 741 c 0
 721 741 831 632 831 453 c 0
 831 330 771 185 686 103 c 1
539 278 m 1
 604 200 l 1
 650 258 682 354 682 436 c 0
 682 547 621 613 518 613 c 0
 442 613 379 578 329 508 c 0
 285 447 258 361 258 282 c 0
 258 173 319 105 418 105 c 0
 450 105 482 112 507 124 c 1
 445 197 l 1
 539 278 l 1
EndSplineSet
Validated: 1
EndChar

StartChar: R
Encoding: 82 82 50
Width: 722
Flags: MW
LayerCount: 2
Fore
SplineSet
510 41 m 0
 510 102 548 198 548 234 c 0
 548 271 520 289 463 289 c 2
 291 289 l 1
 230 0 l 1
 80 0 l 1
 235 729 l 1
 612 729 l 2
 750 729 785 634 785 579 c 0
 785 434 665 375 618 352 c 1
 670 335 696 308 696 270 c 0
 696 207 665 100 665 61 c 0
 665 47 670 37 683 27 c 1
 677 0 l 1
 518 0 l 1
 512 19 510 29 510 41 c 0
636 534 m 0
 636 590 587 604 526 604 c 2
 358 604 l 1
 318 414 l 1
 499 414 l 2
 612 414 636 493 636 534 c 0
EndSplineSet
Validated: 1
EndChar

StartChar: S
Encoding: 83 83 51
Width: 667
Flags: MW
LayerCount: 2
Fore
SplineSet
151 472 m 0
 151 621 274 741 473 741 c 0
 632 741 725 677 725 569 c 0
 725 549 723 535 717 507 c 1
 577 507 l 1
 578 516 579 525 579 530 c 0
 579 584 532 613 447 613 c 0
 356 613 300 573 300 509 c 0
 300 471 327 455 421 436 c 2
 530 414 l 2
 632 394 687 342 687 265 c 0
 687 157 619 -23 345 -23 c 0
 130 -23 76 89 76 174 c 0
 76 188 77 198 80 218 c 1
 226 218 l 1
 225 209 224 200 224 195 c 0
 224 138 276 105 367 105 c 0
 471 105 538 149 538 216 c 0
 538 263 509 283 418 301 c 2
 320 321 l 2
 201 345 151 389 151 472 c 0
EndSplineSet
Validated: 1
EndChar

StartChar: T
Encoding: 84 84 52
Width: 611
Flags: MW
LayerCount: 2
Fore
SplineSet
514 604 m 1
 385 0 l 1
 235 0 l 1
 364 604 l 1
 142 604 l 1
 169 729 l 1
 753 729 l 1
 726 604 l 1
 514 604 l 1
EndSplineSet
Validated: 1
EndChar

StartChar: U
Encoding: 85 85 53
Width: 722
Flags: MW
LayerCount: 2
Fore
SplineSet
659 729 m 1
 809 729 l 1
 704 235 l 1
 686 152 654 96 597 51 c 0
 536 3 454 -23 366 -23 c 0
 215 -23 119 51 119 167 c 0
 119 189 123 222 130 255 c 2
 231 729 l 1
 381 729 l 1
 276 235 l 1
 273 219 271 205 271 190 c 0
 271 137 316 105 394 105 c 0
 485 105 535 145 554 235 c 2
 659 729 l 1
EndSplineSet
Validated: 1
EndChar

StartChar: V
Encoding: 86 86 54
Width: 667
Flags: MW
LayerCount: 2
Fore
SplineSet
400 0 m 1
 273 0 l 1
 179 729 l 1
 330 729 l 1
 375 180 l 1
 651 729 l 1
 802 729 l 1
 400 0 l 1
EndSplineSet
Validated: 1
EndChar

StartChar: W
Encoding: 87 87 55
Width: 944
Flags: MW
LayerCount: 2
Fore
SplineSet
730 0 m 1
 595 0 l 1
 591 555 l 1
 354 0 l 1
 219 0 l 1
 168 729 l 1
 327 729 l 1
 324 183 l 1
 548 729 l 1
 706 729 l 1
 703 181 l 1
 928 729 l 1
 1087 729 l 1
 730 0 l 1
EndSplineSet
Validated: 1
EndChar

StartChar: X
Encoding: 88 88 56
Width: 667
Flags: MW
LayerCount: 2
Fore
SplineSet
499 372 m 1
 655 0 l 1
 476 0 l 1
 386 249 l 1
 197 0 l 1
 22 0 l 1
 332 367 l 1
 187 729 l 1
 365 729 l 1
 444 493 l 1
 627 729 l 1
 802 729 l 1
 499 372 l 1
EndSplineSet
Validated: 1
EndChar

StartChar: Y
Encoding: 89 89 57
Width: 667
Flags: MW
LayerCount: 2
Fore
SplineSet
477 270 m 1
 419 0 l 1
 269 0 l 1
 327 270 l 1
 182 729 l 1
 349 729 l 1
 431 414 l 1
 638 729 l 1
 805 729 l 1
 477 270 l 1
EndSplineSet
Validated: 1
EndChar

StartChar: Z
Encoding: 90 90 58
Width: 611
Flags: MW
LayerCount: 2
Fore
SplineSet
733 729 m 1
 706 604 l 1
 232 125 l 1
 605 125 l 1
 578 0 l 1
 30 0 l 1
 57 125 l 1
 531 604 l 1
 158 604 l 1
 185 729 l 1
 733 729 l 1
EndSplineSet
Validated: 1
EndChar

StartChar: bracketleft
Encoding: 91 91 59
Width: 333
Flags: MW
LayerCount: 2
Fore
SplineSet
463 729 m 1
 441 629 l 1
 328 629 l 1
 174 -100 l 1
 287 -100 l 1
 266 -200 l 1
 23 -200 l 1
 220 729 l 1
 463 729 l 1
EndSplineSet
Validated: 1
EndChar

StartChar: backslash
Encoding: 92 92 60
Width: 278
Flags: MW
LayerCount: 2
Fore
SplineSet
138 709 m 1
 212 709 l 1
 285 -23 l 1
 210 -23 l 1
 138 709 l 1
EndSplineSet
Validated: 1
EndChar

StartChar: bracketright
Encoding: 93 93 61
Width: 333
Flags: MW
LayerCount: 2
Fore
SplineSet
-25 -200 m 1
 -3 -100 l 1
 110 -100 l 1
 264 629 l 1
 151 629 l 1
 172 729 l 1
 415 729 l 1
 218 -200 l 1
 -25 -200 l 1
EndSplineSet
Validated: 1
EndChar

StartChar: asciicircum
Encoding: 94 94 62
Width: 584
Flags: MW
LayerCount: 2
Fore
SplineSet
580 270 m 1
 467 270 l 1
 409 570 l 1
 231 270 l 1
 119 270 l 1
 374 695 l 1
 499 695 l 1
 580 270 l 1
EndSplineSet
Validated: 1
EndChar

StartChar: underscore
Encoding: 95 95 63
Width: 556
Flags: MW
LayerCount: 2
Fore
SplineSet
550 -76 m 1
 535 -145 l 1
 -65 -145 l 1
 -50 -76 l 1
 550 -76 l 1
EndSplineSet
Validated: 1
EndChar

StartChar: grave
Encoding: 96 96 64
Width: 333
Flags: MW
LayerCount: 2
Fore
SplineSet
175 757 m 1
 294 757 l 1
 339 607 l 1
 276 607 l 1
 175 757 l 1
EndSplineSet
Validated: 1
EndChar

StartChar: a
Encoding: 97 97 65
Width: 556
Flags: MW
LayerCount: 2
Fore
SplineSet
386 549 m 0
 547 549 578 476 578 428 c 0
 578 416 576 401 572 383 c 2
 509 83 l 1
 507 75 506 68 506 62 c 0
 506 47 512 34 527 17 c 1
 523 0 l 1
 370 0 l 1
 365 11 363 17 363 27 c 0
 363 34 363 39 366 54 c 1
 306 0 257 -23 199 -23 c 0
 110 -23 50 30 50 108 c 0
 50 149 80 282 252 311 c 2
 310 320 l 2
 359 327 436 331 436 394 c 0
 436 424 414 437 363 437 c 0
 299 437 268 417 251 362 c 1
 120 362 l 1
 148 492 229 549 386 549 c 0
400 217 m 1
 408 255 l 1
 391 245 392 247 361 241 c 2
 295 230 l 2
 230 219 193 186 193 139 c 0
 193 106 218 89 266 89 c 0
 334 89 382 135 400 217 c 1
EndSplineSet
Validated: 1
EndChar

StartChar: b
Encoding: 98 98 66
Width: 611
Flags: MW
LayerCount: 2
Fore
SplineSet
214 729 m 1
 354 729 l 1
 299 470 l 1
 344 524 397 549 465 549 c 0
 571 549 640 467 640 342 c 0
 640 152 497 -23 343 -23 c 0
 276 -23 233 2 211 55 c 1
 199 0 l 1
 59 0 l 1
 214 729 l 1
409 437 m 0
 323 437 248 327 248 202 c 0
 248 134 283 89 336 89 c 0
 421 89 497 197 497 319 c 0
 497 392 463 437 409 437 c 0
EndSplineSet
Validated: 1
EndChar

StartChar: c
Encoding: 99 99 67
Width: 556
Flags: MW
LayerCount: 2
Fore
SplineSet
398 549 m 0
 522 549 597 474 597 381 c 0
 597 371 596 362 593 338 c 1
 459 338 l 1
 458 394 451 437 377 437 c 0
 322 437 285 411 257 352 c 0
 233 304 220 245 220 192 c 0
 220 123 249 89 309 89 c 0
 363 89 396 116 427 187 c 1
 561 187 l 1
 519 53 421 -23 292 -23 c 0
 120 -23 77 94 77 172 c 0
 77 267 119 384 178 454 c 0
 230 517 304 549 398 549 c 0
EndSplineSet
Validated: 1
EndChar

StartChar: d
Encoding: 100 100 68
Width: 611
Flags: MW
LayerCount: 2
Fore
SplineSet
405 0 m 1
 417 55 l 1
 371 2 318 -23 251 -23 c 0
 147 -23 79 59 79 185 c 0
 79 267 108 357 157 428 c 0
 209 503 291 549 372 549 c 0
 440 549 482 524 505 470 c 1
 560 729 l 1
 700 729 l 1
 545 0 l 1
 405 0 l 1
380 437 m 0
 297 437 222 327 222 206 c 0
 222 134 256 89 309 89 c 0
 394 89 468 197 468 323 c 0
 468 393 434 437 380 437 c 0
EndSplineSet
Validated: 1
EndChar

StartChar: e
Encoding: 101 101 69
Width: 556
Flags: MW
LayerCount: 2
Fore
SplineSet
379 549 m 0
 507 549 591 467 591 351 c 0
 591 313 585 271 573 226 c 1
 210 226 l 1
 207 198 207 190 207 181 c 0
 207 126 245 89 302 89 c 0
 350 89 394 114 414 152 c 1
 552 152 l 1
 497 41 396 -23 275 -23 c 0
 150 -23 64 61 64 185 c 0
 64 265 111 549 379 549 c 0
448 334 m 2
 448 389 432 437 362 437 c 0
 282 437 245 379 228 319 c 1
 448 319 l 1
 448 334 l 2
EndSplineSet
Validated: 1
EndChar

StartChar: f
Encoding: 102 102 70
Width: 333
Flags: MW
LayerCount: 2
Fore
SplineSet
425 529 m 1
 405 436 l 1
 323 436 l 1
 230 0 l 1
 90 0 l 1
 183 436 l 1
 106 436 l 1
 126 529 l 1
 202 529 l 1
 216 594 l 2
 236 687 289 729 387 729 c 0
 405 729 422 728 464 726 c 1
 442 621 l 1
 415 624 410 625 400 625 c 0
 375 625 361 611 354 582 c 0
 342 529 l 1
 425 529 l 1
EndSplineSet
Validated: 1
EndChar

StartChar: g
Encoding: 103 103 71
Width: 611
Flags: MW
LayerCount: 2
Fore
SplineSet
235 -218 m 0
 67 -218 26 -148 26 -96 c 0
 26 -88 27 -77 29 -65 c 1
 173 -65 l 1
 172 -77 l 1
 172 -106 209 -128 258 -128 c 0
 331 -128 390 -83 404 -18 c 2
 420 55 l 1
 356 -4 316 -23 254 -23 c 0
 153 -23 79 57 79 167 c 0
 79 264 116 374 174 445 c 0
 227 511 302 549 378 549 c 0
 437 549 478 519 505 457 c 1
 523 540 l 1
 656 540 l 1
 537 -18 l 1
 510 -146 401 -218 235 -218 c 0
379 437 m 0
 297 437 222 324 222 201 c 0
 222 132 254 89 306 89 c 0
 395 89 471 193 471 315 c 0
 471 389 435 437 379 437 c 0
EndSplineSet
Validated: 1
EndChar

StartChar: h
Encoding: 104 104 72
Width: 611
Flags: MW
LayerCount: 2
Fore
SplineSet
222 729 m 1
 362 729 l 1
 304 458 l 1
 357 521 413 549 484 549 c 0
 571 549 629 496 629 417 c 0
 629 399 627 381 623 362 c 2
 546 0 l 1
 406 0 l 1
 473 313 l 1
 477 334 479 348 479 361 c 0
 479 410 453 437 406 437 c 0
 342 437 289 385 272 304 c 0
 207 0 l 1
 67 0 l 1
 222 729 l 1
EndSplineSet
Validated: 1
EndChar

StartChar: i
Encoding: 105 105 73
Width: 278
Flags: HMW
LayerCount: 2
Fore
SplineSet
322 540 m 1
 207 0 l 1
 67 0 l 1
 182 540 l 1
 322 540 l 1
362 729 m 1
 335 604 l 1
 195 604 l 1
 222 729 l 1
 362 729 l 1
EndSplineSet
Validated: 1
EndChar

StartChar: j
Encoding: 106 106 74
Width: 278
Flags: HMW
LayerCount: 2
Fore
SplineSet
325 540 m 1
 190 -94 l 1
 172 -181 116 -218 2 -218 c 0
 -17 -218 -29 -217 -43 -213 c 1
 -19 -102 l 1
 -15 -105 -8 -106 6 -106 c 0
 36 -106 50 -94 57 -62 c 2
 185 540 l 1
 325 540 l 1
365 729 m 1
 338 604 l 1
 198 604 l 1
 225 729 l 1
 365 729 l 1
EndSplineSet
Validated: 1
EndChar

StartChar: k
Encoding: 107 107 75
Width: 556
Flags: MW
LayerCount: 2
Fore
SplineSet
354 729 m 1
 269 330 l 1
 492 540 l 1
 651 540 l 1
 419 334 l 1
 548 0 l 1
 384 0 l 1
 305 239 l 1
 237 177 l 1
 199 0 l 1
 59 0 l 1
 214 729 l 1
 354 729 l 1
EndSplineSet
Validated: 1
EndChar

StartChar: l
Encoding: 108 108 76
Width: 278
Flags: MW
LayerCount: 2
Fore
SplineSet
362 729 m 1
 207 0 l 1
 67 0 l 1
 222 729 l 1
 362 729 l 1
EndSplineSet
Validated: 1
EndChar

StartChar: m
Encoding: 109 109 77
Width: 889
Flags: MW
LayerCount: 2
Fore
SplineSet
175 540 m 1
 314 540 l 1
 297 459 l 1
 356 524 403 549 468 549 c 0
 530 549 578 517 592 467 c 1
 647 524 701 549 769 549 c 0
 859 549 911 502 911 423 c 0
 911 405 909 391 903 362 c 2
 826 0 l 1
 686 0 l 1
 758 340 l 2
 761 354 763 369 763 381 c 0
 763 417 742 437 705 437 c 0
 642 437 597 396 582 324 c 0
 513 0 l 1
 373 0 l 1
 447 346 l 1
 449 357 450 367 450 379 c 0
 450 414 425 437 387 437 c 0
 329 437 284 394 269 324 c 2
 200 0 l 1
 60 0 l 1
 175 540 l 1
EndSplineSet
Validated: 1
EndChar

StartChar: n
Encoding: 110 110 78
Width: 611
Flags: MW
LayerCount: 2
Fore
SplineSet
178 540 m 1
 318 540 l 1
 300 458 l 1
 354 522 408 549 482 549 c 0
 571 549 629 497 629 417 c 0
 629 399 627 381 623 362 c 2
 546 0 l 1
 406 0 l 1
 473 313 l 1
 477 335 479 349 479 362 c 0
 479 410 453 437 405 437 c 0
 338 437 286 386 268 304 c 0
 203 0 l 1
 63 0 l 1
 178 540 l 1
EndSplineSet
Validated: 1
EndChar

StartChar: o
Encoding: 111 111 79
Width: 611
Flags: MW
LayerCount: 2
Fore
SplineSet
82 177 m 0
 82 378 211 549 413 549 c 0
 550 549 634 473 634 349 c 0
 634 143 502 -23 299 -23 c 0
 167 -23 82 55 82 177 c 0
324 89 m 0
 458 89 491 265 491 320 c 0
 491 391 452 437 391 437 c 0
 301 437 225 332 225 205 c 0
 225 134 264 89 324 89 c 0
EndSplineSet
Validated: 1
EndChar

StartChar: p
Encoding: 112 112 80
Width: 611
Flags: MW
LayerCount: 2
Fore
SplineSet
312 540 m 1
 295 460 l 1
 341 519 397 549 464 549 c 0
 570 549 637 469 637 342 c 0
 637 141 505 -24 344 -24 c 0
 274 -24 232 4 211 64 c 1
 151 -218 l 1
 11 -218 l 1
 172 540 l 1
 312 540 l 1
406 437 m 0
 320 437 246 327 246 201 c 0
 246 133 281 88 334 88 c 0
 420 88 494 196 494 323 c 0
 494 392 460 437 406 437 c 0
EndSplineSet
Validated: 1
EndChar

StartChar: q
Encoding: 113 113 81
Width: 611
Flags: MW
LayerCount: 2
Fore
SplineSet
519 540 m 1
 659 540 l 1
 498 -218 l 1
 358 -218 l 1
 418 64 l 1
 373 5 316 -24 248 -24 c 0
 142 -24 72 57 72 180 c 0
 72 266 102 359 152 430 c 0
 206 505 286 549 369 549 c 0
 438 549 482 520 502 460 c 1
 519 540 l 1
377 437 m 0
 291 437 215 327 215 202 c 0
 215 133 250 88 304 88 c 0
 391 88 466 197 466 324 c 0
 466 393 431 437 377 437 c 0
EndSplineSet
Validated: 1
EndChar

StartChar: r
Encoding: 114 114 82
Width: 389
Flags: MW
LayerCount: 2
Fore
SplineSet
178 540 m 1
 318 540 l 1
 295 434 l 1
 342 507 406 549 470 549 c 0
 474 549 479 549 487 548 c 1
 457 406 l 1
 439 409 429 410 414 410 c 0
 332 410 281 369 264 287 c 0
 203 0 l 1
 63 0 l 1
 178 540 l 1
EndSplineSet
Validated: 1
EndChar

StartChar: s
Encoding: 115 115 83
Width: 556
Flags: MW
LayerCount: 2
Fore
SplineSet
127 345 m 0
 127 460 231 549 387 549 c 0
 513 549 589 494 589 404 c 0
 589 393 588 384 584 366 c 1
 449 366 l 1
 451 375 452 379 452 385 c 0
 452 417 419 437 364 437 c 0
 311 437 276 416 276 384 c 0
 276 364 290 354 341 339 c 2
 437 311 l 2
 520 286 559 247 559 187 c 0
 559 59 451 -23 281 -23 c 0
 104 -23 60 71 60 127 c 0
 60 136 61 142 64 157 c 1
 201 157 l 1
 204 99 265 89 307 89 c 0
 368 89 411 112 411 144 c 0
 411 167 398 176 335 196 c 2
 256 221 l 2
 168 250 127 289 127 345 c 0
EndSplineSet
Validated: 1
EndChar

StartChar: t
Encoding: 116 116 84
Width: 333
Flags: MW
LayerCount: 2
Fore
SplineSet
414 529 m 1
 394 436 l 1
 316 436 l 1
 254 142 l 1
 250 125 248 113 248 108 c 0
 248 93 263 83 286 83 c 0
 297 83 305 84 319 86 c 1
 299 -12 l 1
 271 -20 247 -23 214 -23 c 0
 141 -23 101 8 101 63 c 0
 101 76 103 90 106 104 c 2
 176 436 l 1
 107 436 l 1
 127 529 l 1
 196 529 l 1
 227 674 l 1
 367 674 l 1
 336 529 l 1
 414 529 l 1
EndSplineSet
Validated: 1
EndChar

StartChar: u
Encoding: 117 117 85
Width: 611
Flags: MW
LayerCount: 2
Fore
SplineSet
541 0 m 1
 401 0 l 1
 416 68 l 1
 362 4 308 -23 234 -23 c 0
 146 -23 88 29 88 109 c 0
 88 127 90 145 94 164 c 2
 174 540 l 1
 314 540 l 1
 244 213 l 1
 240 190 238 178 238 164 c 0
 238 115 264 89 314 89 c 0
 379 89 431 141 448 222 c 0
 516 540 l 1
 656 540 l 1
 541 0 l 1
EndSplineSet
Validated: 1
EndChar

StartChar: v
Encoding: 118 118 86
Width: 556
Flags: MW
LayerCount: 2
Fore
SplineSet
350 0 m 1
 203 0 l 1
 129 540 l 1
 277 540 l 1
 307 145 l 1
 503 540 l 1
 651 540 l 1
 350 0 l 1
EndSplineSet
Validated: 1
EndChar

StartChar: w
Encoding: 119 119 87
Width: 778
Flags: MW
LayerCount: 2
Fore
SplineSet
617 0 m 1
 472 0 l 1
 467 380 l 1
 301 0 l 1
 157 0 l 1
 120 540 l 1
 265 540 l 1
 270 162 l 1
 429 540 l 1
 573 540 l 1
 573 162 l 1
 736 540 l 1
 881 540 l 1
 617 0 l 1
EndSplineSet
Validated: 1
EndChar

StartChar: x
Encoding: 120 120 88
Width: 556
Flags: MW
LayerCount: 2
Fore
SplineSet
411 274 m 1
 534 0 l 1
 366 0 l 1
 307 168 l 1
 184 0 l 1
 16 0 l 1
 249 274 l 1
 138 540 l 1
 306 540 l 1
 357 377 l 1
 480 540 l 1
 648 540 l 1
 411 274 l 1
EndSplineSet
Validated: 1
EndChar

StartChar: y
Encoding: 121 121 89
Width: 556
Flags: MW
LayerCount: 2
Fore
SplineSet
509 540 m 1
 653 540 l 1
 295 -98 l 2
 275 -135 242 -219 81 -219 c 0
 60 -219 50 -218 37 -215 c 1
 60 -106 l 1
 71 -108 76 -108 88 -108 c 0
 157 -108 201 -72 201 -15 c 0
 178 173 149 354 124 540 c 1
 278 540 l 1
 314 147 l 1
 509 540 l 1
EndSplineSet
Validated: 1
EndChar

StartChar: z
Encoding: 122 122 90
Width: 500
Flags: MW
LayerCount: 2
Fore
SplineSet
575 540 m 1
 551 427 l 1
 219 113 l 1
 493 113 l 1
 469 0 l 1
 21 0 l 1
 45 113 l 1
 379 427 l 1
 130 427 l 1
 154 540 l 1
 575 540 l 1
EndSplineSet
Validated: 1
EndChar

StartChar: braceleft
Encoding: 123 123 91
Width: 389
Flags: MW
LayerCount: 2
Fore
SplineSet
195 269 m 1
 227 264 274 256 274 200 c 0
 274 190 272 174 269 159 c 0
 227 -36 l 1
 224 -53 222 -66 222 -76 c 0
 222 -92 236 -101 261 -101 c 2
 296 -101 l 1
 275 -200 l 1
 198 -200 l 2
 140 -200 101 -159 101 -99 c 0
 101 -86 102 -73 105 -60 c 2
 150 150 l 2
 153 165 155 178 155 184 c 0
 155 208 135 222 101 222 c 2
 88 222 l 1
 84 223 l 1
 104 315 l 1
 120 315 l 2
 164 315 189 336 198 378 c 0
 243 589 l 2
 262 679 317 729 396 729 c 2
 472 729 l 1
 451 630 l 1
 414 630 l 2
 377 630 367 620 357 573 c 2
 316 378 l 1
 300 306 268 277 195 269 c 1
EndSplineSet
Validated: 1
EndChar

StartChar: bar
Encoding: 124 124 92
Width: 280
Flags: MW
LayerCount: 2
Fore
SplineSet
335 729 m 1
 137 -200 l 1
 57 -200 l 1
 255 729 l 1
 335 729 l 1
EndSplineSet
Validated: 1
EndChar

StartChar: braceright
Encoding: 125 125 93
Width: 389
Flags: MW
LayerCount: 2
Fore
SplineSet
307 260 m 1
 275 265 228 273 228 329 c 0
 228 339 230 355 233 370 c 0
 275 565 l 1
 278 582 280 595 280 605 c 0
 280 621 266 630 241 630 c 2
 205 630 l 1
 226 729 l 1
 304 729 l 2
 362 729 401 688 401 628 c 0
 401 615 400 602 397 589 c 2
 352 379 l 2
 349 364 347 351 347 345 c 0
 347 321 367 307 401 307 c 2
 415 307 l 1
 419 306 l 1
 399 214 l 1
 382 214 l 2
 338 214 313 193 304 151 c 0
 259 -60 l 2
 240 -150 185 -200 106 -200 c 2
 29 -200 l 1
 50 -101 l 1
 88 -101 l 2
 125 -101 135 -91 145 -44 c 2
 186 151 l 1
 202 223 234 252 307 260 c 1
EndSplineSet
Validated: 1
EndChar

StartChar: asciitilde
Encoding: 126 126 94
Width: 584
Flags: MW
LayerCount: 2
Fore
SplineSet
504 288 m 1
 581 288 l 1
 558 193 503 142 423 142 c 0
 390 142 367 150 346 168 c 2
 298 210 l 2
 278 227 262 234 242 234 c 0
 204 234 188 219 175 169 c 1
 97 169 l 1
 123 266 176 314 256 314 c 0
 288 314 312 306 332 289 c 2
 381 247 l 2
 402 228 415 222 437 222 c 0
 475 222 490 237 504 288 c 1
EndSplineSet
Validated: 1
EndChar

StartChar: exclamdown
Encoding: 161 161 95
Width: 333
Flags: MW
LayerCount: 2
Fore
SplineSet
26 -186 m 1
 71 24 l 1
 178 333 l 1
 245 333 l 1
 221 24 l 1
 176 -186 l 1
 26 -186 l 1
150 394 m 1
 181 540 l 1
 331 540 l 1
 300 394 l 1
 150 394 l 1
EndSplineSet
Validated: 1
EndChar

StartChar: cent
Encoding: 162 162 96
Width: 556
Flags: MW
LayerCount: 2
Fore
SplineSet
434 547 m 1
 580 529 598 416 598 381 c 0
 598 371 597 362 594 338 c 1
 460 338 l 1
 460 398 448 423 410 435 c 1
 337 89 l 1
 378 99 404 128 428 187 c 1
 562 187 l 1
 526 65 430 -16 313 -22 c 1
 292 -124 l 1
 226 -124 l 1
 248 -20 l 1
 92 6 79 130 79 172 c 0
 79 247 122 528 368 548 c 1
 387 634 l 1
 453 634 l 1
 434 547 l 1
344 435 m 1
 239 407 222 234 222 191 c 0
 222 136 236 109 272 93 c 1
 344 435 l 1
EndSplineSet
Validated: 1
EndChar

StartChar: sterling
Encoding: 163 163 97
Width: 556
Flags: MW
LayerCount: 2
Fore
SplineSet
288 496 m 0
 288 466 305 427 316 371 c 1
 455 371 l 1
 443 316 l 1
 321 316 l 1
 323 303 323 297 323 290 c 0
 323 219 282 163 172 86 c 1
 236 115 250 119 280 119 c 0
 324 119 362 102 411 102 c 0
 447 102 480 111 525 131 c 1
 543 22 l 1
 479 -11 437 -23 388 -23 c 0
 316 -23 267 7 197 7 c 0
 160 7 131 0 82 -21 c 1
 49 80 l 1
 153 141 193 191 193 261 c 0
 193 276 192 288 188 316 c 1
 99 316 l 1
 111 371 l 1
 171 371 l 1
 150 432 145 451 145 478 c 0
 145 534 201 715 425 715 c 0
 559 715 629 655 629 539 c 0
 629 522 628 509 625 484 c 1
 494 484 l 1
 495 494 495 505 495 510 c 0
 495 572 464 603 402 603 c 0
 341 603 288 553 288 496 c 0
EndSplineSet
Validated: 1
EndChar

StartChar: currency
Encoding: 164 164 98
Width: 556
Flags: MW
LayerCount: 2
Fore
SplineSet
501 528 m 1
 590 601 l 1
 644 532 l 1
 553 457 l 1
 560 434 563 416 563 397 c 0
 563 346 543 292 507 246 c 1
 567 170 l 1
 484 102 l 1
 425 177 l 1
 377 153 354 147 317 147 c 0
 279 147 235 160 214 178 c 1
 120 100 l 1
 66 169 l 1
 160 246 l 1
 152 270 149 288 149 310 c 0
 149 360 170 415 204 457 c 1
 142 536 l 1
 225 604 l 1
 286 527 l 1
 320 546 365 558 404 558 c 0
 439 558 476 546 501 528 c 1
377 460 m 0
 305 460 249 403 249 330 c 0
 249 280 284 245 335 245 c 0
 406 245 463 303 463 375 c 0
 463 425 427 460 377 460 c 0
EndSplineSet
Validated: 1
EndChar

StartChar: yen
Encoding: 165 165 99
Width: 556
Flags: MW
LayerCount: 2
Fore
SplineSet
574 352 m 1
 561 292 l 1
 417 292 l 1
 406 240 l 1
 550 240 l 1
 537 180 l 1
 393 180 l 1
 355 0 l 1
 215 0 l 1
 253 180 l 1
 107 180 l 1
 120 240 l 1
 266 240 l 1
 277 292 l 1
 131 292 l 1
 143 352 l 1
 283 352 l 1
 155 704 l 1
 294 704 l 1
 379 450 l 1
 566 704 l 1
 702 704 l 1
 435 352 l 1
 574 352 l 1
EndSplineSet
Validated: 1
EndChar

StartChar: brokenbar
Encoding: 166 166 100
Width: 280
Flags: MW
LayerCount: 2
Fore
SplineSet
335 729 m 1
 252 340 l 1
 172 340 l 1
 255 729 l 1
 335 729 l 1
220 189 m 1
 137 -200 l 1
 57 -200 l 1
 140 189 l 1
 220 189 l 1
EndSplineSet
Validated: 1
EndChar

StartChar: section
Encoding: 167 167 101
Width: 556
Flags: MW
LayerCount: 2
Fore
SplineSet
496 27 m 0
 496 -19 450 -201 232 -201 c 0
 124 -201 56 -146 56 -59 c 0
 56 -40 58 -26 65 0 c 1
 196 0 l 1
 194 -17 193 -24 193 -34 c 0
 193 -70 216 -89 258 -89 c 0
 309 -89 348 -57 348 -15 c 0
 348 12 342 16 293 49 c 0
 143 149 l 2
 109 172 89 208 89 247 c 0
 89 322 119 368 216 428 c 1
 190 455 178 485 178 524 c 0
 178 571 202 622 243 659 c 0
 287 700 352 723 425 723 c 0
 532 723 596 675 596 594 c 0
 596 580 594 569 589 544 c 1
 462 544 l 1
 463 551 463 558 463 562 c 0
 463 600 441 621 401 621 c 0
 358 621 326 594 326 559 c 0
 326 538 347 516 397 485 c 2
 509 415 l 2
 557 385 578 350 578 302 c 0
 578 196 520 153 448 126 c 1
 481 99 496 68 496 27 c 0
258 247 m 2
 383 170 l 1
 430 192 448 214 448 247 c 0
 448 271 437 285 402 306 c 2
 275 382 l 1
 237 362 219 335 219 301 c 0
 219 279 229 264 258 247 c 2
EndSplineSet
Validated: 1
EndChar

StartChar: dieresis
Encoding: 168 168 102
Width: 333
Flags: MW
LayerCount: 2
Fore
SplineSet
283 741 m 1
 257 621 l 1
 147 621 l 1
 173 741 l 1
 283 741 l 1
469 741 m 1
 443 621 l 1
 333 621 l 1
 359 741 l 1
 469 741 l 1
EndSplineSet
Validated: 1
EndChar

StartChar: copyright
Encoding: 169 169 103
Width: 737
Flags: MW
LayerCount: 2
Fore
SplineSet
232 287 m 0
 232 459 346 592 493 592 c 0
 586 592 647 541 647 464 c 0
 647 456 646 448 644 431 c 1
 554 431 l 1
 554 485 531 509 478 509 c 0
 348 509 325 348 325 305 c 0
 325 244 356 211 411 211 c 0
 468 211 508 241 526 297 c 1
 618 297 l 1
 590 192 504 128 390 128 c 0
 292 128 232 189 232 287 c 0
530 743 m 0
 707 743 837 615 837 440 c 0
 837 201 607 -22 360 -22 c 0
 184 -22 54 106 54 281 c 0
 54 520 284 743 530 743 c 0
514 671 m 0
 318 671 134 489 134 295 c 0
 134 154 237 50 377 50 c 0
 573 50 757 232 757 427 c 0
 757 568 654 671 514 671 c 0
EndSplineSet
Validated: 1
EndChar

StartChar: ordfeminine
Encoding: 170 170 104
Width: 370
Flags: MW
LayerCount: 2
Fore
SplineSet
396 342 m 1
 380 262 l 1
 96 262 l 1
 113 342 l 1
 396 342 l 1
420 409 m 1
 418 399 l 1
 326 399 l 1
 323 405 322 409 322 415 c 0
 322 419 322 421 324 431 c 1
 288 399 257 385 217 385 c 0
 166 385 134 415 134 463 c 0
 134 526 182 575 256 586 c 2
 290 592 l 2
 331 598 366 601 366 636 c 0
 366 653 353 661 322 661 c 0
 284 661 265 649 255 617 c 1
 176 617 l 1
 193 692 247 729 337 729 c 0
 408 729 451 702 451 657 c 0
 451 649 450 640 448 629 c 0
 409 449 l 2
 408 444 408 441 408 436 c 0
 408 428 412 419 420 409 c 1
344 529 m 2
 349 552 l 1
 342 549 340 548 333 546 c 0
 331 546 327 545 321 544 c 2
 311 543 l 1
 281 537 l 2
 243 531 221 511 221 483 c 0
 221 464 236 453 263 453 c 0
 304 453 334 481 344 529 c 2
EndSplineSet
Validated: 1
EndChar

StartChar: guillemotleft
Encoding: 171 171 105
Width: 556
Flags: MW
LayerCount: 2
Fore
SplineSet
135 218 m 1
 159 332 l 1
 358 481 l 1
 333 364 l 1
 213 275 l 1
 295 186 l 1
 271 72 l 1
 135 218 l 1
348 218 m 1
 372 332 l 1
 571 481 l 1
 546 364 l 1
 426 275 l 1
 508 186 l 1
 484 72 l 1
 348 218 l 1
EndSplineSet
Validated: 1
EndChar

StartChar: logicalnot
Encoding: 172 172 106
Width: 584
Flags: MW
LayerCount: 2
Fore
SplineSet
128 376 m 1
 632 376 l 1
 571 86 l 1
 452 86 l 1
 488 256 l 1
 103 256 l 1
 128 376 l 1
EndSplineSet
Validated: 1
EndChar

StartChar: registered
Encoding: 174 174 107
Width: 737
Flags: MW
LayerCount: 2
Fore
SplineSet
480 168 m 0
 480 205 500 261 500 278 c 0
 500 302 483 313 447 313 c 2
 356 313 l 1
 319 140 l 1
 223 140 l 1
 317 582 l 1
 555 582 l 2
 621 582 654 552 654 493 c 0
 654 429 621 382 557 353 c 1
 585 340 596 326 596 304 c 0
 596 287 593 266 581 195 c 1
 580 182 l 1
 580 173 583 167 592 161 c 1
 587 140 l 1
 485 140 l 1
 481 153 480 159 480 168 c 0
475 394 m 2
 517 394 553 406 553 469 c 0
 553 493 538 502 498 502 c 2
 396 502 l 1
 373 394 l 1
 475 394 l 2
530 743 m 0
 708 743 837 615 837 440 c 0
 837 201 608 -22 361 -22 c 0
 185 -22 55 106 55 281 c 0
 55 520 284 743 530 743 c 0
514 671 m 0
 318 671 135 489 135 295 c 0
 135 154 237 50 377 50 c 0
 574 50 757 232 757 427 c 0
 757 568 654 671 514 671 c 0
EndSplineSet
Validated: 1
EndChar

StartChar: macron
Encoding: 175 175 108
Width: 333
Flags: MW
LayerCount: 2
Fore
SplineSet
467 722 m 1
 450 642 l 1
 150 642 l 1
 167 722 l 1
 467 722 l 1
EndSplineSet
Validated: 1
EndChar

StartChar: degree
Encoding: 176 176 109
Width: 606
Flags: MW
LayerCount: 2
Fore
SplineSet
391 686 m 0
 475 686 543 618 543 535 c 0
 543 450 475 383 390 383 c 0
 308 383 240 452 240 535 c 0
 240 618 308 686 391 686 c 0
392 623 m 0
 343 623 303 583 303 534 c 0
 303 487 343 446 390 446 c 0
 440 446 480 485 480 535 c 0
 480 583 440 623 392 623 c 0
EndSplineSet
Validated: 1
EndChar

StartChar: plusminus
Encoding: 177 177 110
Width: 584
Flags: MW
LayerCount: 2
Fore
SplineSet
630 452 m 1
 605 332 l 1
 422 332 l 1
 387 170 l 1
 268 170 l 1
 303 332 l 1
 121 332 l 1
 146 452 l 1
 328 452 l 1
 367 633 l 1
 486 633 l 1
 447 452 l 1
 630 452 l 1
559 119 m 1
 534 0 l 1
 50 0 l 1
 75 119 l 1
 559 119 l 1
EndSplineSet
Validated: 1
EndChar

StartChar: twosuperior
Encoding: 178 178 111
Width: 350
Flags: MW
LayerCount: 2
Fore
SplineSet
457 613 m 0
 457 470 270 428 221 364 c 1
 405 364 l 1
 388 284 l 1
 82 284 l 1
 135 489 364 465 364 600 c 0
 364 629 345 646 312 646 c 0
 269 646 243 615 237 557 c 1
 146 557 l 1
 162 661 225 718 324 718 c 0
 408 718 457 679 457 613 c 0
EndSplineSet
Validated: 1
EndChar

StartChar: threesuperior
Encoding: 179 179 112
Width: 350
Flags: MW
LayerCount: 2
Fore
SplineSet
240 471 m 1
 253 534 l 1
 257 533 262 533 263 533 c 0
 316 533 350 561 350 606 c 0
 350 630 332 646 305 646 c 0
 267 646 249 627 237 571 c 1
 150 571 l 1
 170 673 223 718 322 718 c 0
 403 718 450 684 450 625 c 0
 450 579 426 541 379 512 c 1
 408 494 422 471 422 439 c 0
 422 340 347 271 238 271 c 0
 155 271 107 310 107 378 c 0
 107 390 108 398 111 414 c 1
 202 414 l 1
 200 406 200 402 200 396 c 0
 200 365 219 349 256 349 c 0
 296 349 329 382 329 422 c 0
 329 456 307 470 253 471 c 2
 240 471 l 1
EndSplineSet
Validated: 1
EndChar

StartChar: acute
Encoding: 180 180 113
Width: 333
Flags: MW
LayerCount: 2
Fore
SplineSet
475 757 m 1
 317 607 l 1
 247 607 l 1
 349 757 l 1
 475 757 l 1
EndSplineSet
Validated: 1
EndChar

StartChar: paragraph
Encoding: 182 182 115
Width: 556
Flags: MW
LayerCount: 2
Fore
SplineSet
121 435 m 0
 121 553 216 729 382 729 c 2
 684 729 l 1
 669 656 l 1
 625 656 l 1
 445 -191 l 1
 347 -191 l 1
 527 656 l 1
 465 656 l 1
 285 -191 l 1
 187 -191 l 1
 284 267 l 1
 184 272 121 337 121 435 c 0
EndSplineSet
Validated: 1
EndChar

StartChar: periodcentered
Encoding: 183 183 116
Width: 278
Flags: MW
LayerCount: 2
Fore
SplineSet
270 282 m 1
 248 182 l 1
 143 182 l 1
 165 282 l 1
 270 282 l 1
EndSplineSet
Validated: 1
EndChar

StartChar: cedilla
Encoding: 184 184 117
Width: 333
Flags: MW
LayerCount: 2
Fore
SplineSet
154 0 m 1
 204 0 l 1
 163 -62 l 1
 179 -58 191 -56 206 -56 c 0
 246 -56 270 -77 270 -113 c 0
 270 -178 210 -220 120 -220 c 0
 75 -220 43 -213 -13 -191 c 1
 17 -140 l 1
 64 -163 87 -170 115 -170 c 0
 153 -170 183 -150 183 -126 c 0
 183 -106 165 -93 139 -93 c 0
 122 -93 110 -96 86 -106 c 1
 154 0 l 1
EndSplineSet
Validated: 1
EndChar

StartChar: onesuperior
Encoding: 185 185 118
Width: 248
Flags: MW
LayerCount: 2
Fore
SplineSet
248 573 m 1
 142 573 l 1
 155 634 l 1
 233 634 283 659 307 709 c 1
 370 709 l 1
 280 284 l 1
 186 284 l 1
 248 573 l 1
EndSplineSet
Validated: 1
EndChar

StartChar: ordmasculine
Encoding: 186 186 119
Width: 365
Flags: MW
LayerCount: 2
Fore
SplineSet
410 342 m 1
 393 262 l 1
 92 262 l 1
 109 342 l 1
 410 342 l 1
140 506 m 0
 140 621 215 729 339 729 c 0
 421 729 471 684 471 610 c 0
 471 486 391 386 269 386 c 0
 190 386 140 432 140 506 c 0
326 661 m 0
 272 661 227 597 227 520 c 0
 227 477 250 449 285 449 c 0
 339 449 384 514 384 590 c 0
 384 633 361 661 326 661 c 0
EndSplineSet
Validated: 1
EndChar

StartChar: guillemotright
Encoding: 187 187 120
Width: 556
Flags: MW
LayerCount: 2
Fore
SplineSet
326 335 m 1
 302 220 l 1
 103 72 l 1
 128 189 l 1
 248 278 l 1
 166 367 l 1
 190 481 l 1
 326 335 l 1
533 335 m 1
 509 220 l 1
 310 72 l 1
 335 189 l 1
 455 278 l 1
 373 367 l 1
 397 481 l 1
 533 335 l 1
EndSplineSet
Validated: 1
EndChar

StartChar: onequarter
Encoding: 188 188 121
Width: 869
Flags: MW
LayerCount: 2
Fore
SplineSet
252 573 m 1
 146 573 l 1
 159 634 l 1
 237 634 287 659 311 709 c 1
 374 709 l 1
 284 284 l 1
 190 284 l 1
 252 573 l 1
733 715 m 1
 818 715 l 1
 237 -20 l 1
 152 -20 l 1
 733 715 l 1
881 166 m 1
 865 93 l 1
 819 93 l 1
 800 0 l 1
 706 0 l 1
 726 93 l 1
 549 93 l 1
 565 165 l 1
 782 425 l 1
 890 425 l 1
 835 166 l 1
 881 166 l 1
742 166 m 1
 777 332 l 1
 637 166 l 1
 742 166 l 1
EndSplineSet
Validated: 1
EndChar

StartChar: onehalf
Encoding: 189 189 122
Width: 869
Flags: MW
LayerCount: 2
Fore
SplineSet
258 573 m 1
 152 573 l 1
 165 634 l 1
 243 634 293 659 317 709 c 1
 380 709 l 1
 290 284 l 1
 196 284 l 1
 258 573 l 1
738 715 m 1
 823 715 l 1
 242 -20 l 1
 157 -20 l 1
 738 715 l 1
915 329 m 0
 915 186 728 144 679 80 c 1
 863 80 l 1
 846 0 l 1
 540 0 l 1
 593 205 822 181 822 316 c 0
 822 345 803 362 770 362 c 0
 727 362 701 331 695 273 c 1
 604 273 l 1
 620 377 683 434 782 434 c 0
 866 434 915 395 915 329 c 0
EndSplineSet
Validated: 1
EndChar

StartChar: threequarters
Encoding: 190 190 123
Width: 869
Flags: MW
LayerCount: 2
Fore
SplineSet
247 471 m 1
 260 534 l 1
 264 533 269 533 270 533 c 0
 323 533 357 561 357 606 c 0
 357 630 339 646 312 646 c 0
 274 646 256 627 244 571 c 1
 157 571 l 1
 177 673 230 718 329 718 c 0
 410 718 457 684 457 625 c 0
 457 579 433 541 386 512 c 1
 415 494 429 471 429 439 c 0
 429 340 354 271 245 271 c 0
 162 271 114 310 114 378 c 0
 114 390 115 398 118 414 c 1
 209 414 l 1
 207 406 207 402 207 396 c 0
 207 365 226 349 263 349 c 0
 303 349 336 382 336 422 c 0
 336 456 314 470 260 471 c 2
 247 471 l 1
775 715 m 1
 860 715 l 1
 279 -20 l 1
 194 -20 l 1
 775 715 l 1
878 166 m 1
 862 93 l 1
 816 93 l 1
 797 0 l 1
 703 0 l 1
 723 93 l 1
 546 93 l 1
 562 165 l 1
 779 425 l 1
 887 425 l 1
 832 166 l 1
 878 166 l 1
739 166 m 1
 774 332 l 1
 634 166 l 1
 739 166 l 1
EndSplineSet
Validated: 1
EndChar

StartChar: questiondown
Encoding: 191 191 124
Width: 611
Flags: MW
LayerCount: 2
Fore
SplineSet
556 59 m 1
 543 0 498 -204 268 -204 c 0
 135 -204 52 -135 52 -26 c 0
 52 131 180 196 219 220 c 0
 287 261 296 273 310 339 c 1
 432 339 l 1
 414 142 195 151 195 7 c 0
 195 -44 233 -80 287 -80 c 0
 354 -80 404 -28 420 59 c 1
 556 59 l 1
306 394 m 1
 337 540 l 1
 487 540 l 1
 456 394 l 1
 306 394 l 1
EndSplineSet
Validated: 1
EndChar

StartChar: AE
Encoding: 198 198 131
Width: 1000
Flags: MW
LayerCount: 2
Fore
SplineSet
464 152 m 1
 245 152 l 1
 160 0 l 1
 1 0 l 1
 421 729 l 1
 1104 729 l 1
 1078 604 l 1
 711 604 l 1
 675 439 l 1
 1014 439 l 1
 988 314 l 1
 649 314 l 1
 609 125 l 1
 995 125 l 1
 968 0 l 1
 432 0 l 1
 464 152 l 1
491 277 m 1
 561 604 l 1
 495 604 l 1
 310 277 l 1
 491 277 l 1
EndSplineSet
Validated: 1
EndChar

StartChar: Ccedilla
Encoding: 199 199 132
Width: 722
Flags: MW
LayerCount: 2
Fore
SplineSet
516 613 m 0
 297 613 256 335 256 265 c 0
 256 159 306 105 403 105 c 0
 499 105 570 157 599 249 c 1
 742 249 l 1
 701 82 565 -22 389 -23 c 1
 363 -63 l 1
 377 -58 391 -56 406 -56 c 0
 446 -56 470 -77 470 -113 c 0
 470 -178 410 -220 319 -220 c 0
 275 -220 243 -213 186 -191 c 1
 216 -140 l 1
 264 -163 287 -170 315 -170 c 0
 353 -170 383 -150 383 -126 c 0
 383 -106 365 -93 339 -93 c 0
 322 -93 310 -96 285 -106 c 1
 340 -22 l 1
 199 -11 107 90 107 235 c 0
 107 517 289 741 533 741 c 0
 688 741 793 656 793 531 c 0
 793 520 792 508 789 482 c 1
 648 482 l 1
 648 559 615 613 516 613 c 0
EndSplineSet
Validated: 1
EndChar

StartChar: Eth
Encoding: 208 208 141
Width: 722
Flags: MW
LayerCount: 2
Fore
SplineSet
150 341 m 1
 73 341 l 1
 90 421 l 1
 166 421 l 1
 232 729 l 1
 517 729 l 2
 698 729 776 654 776 479 c 0
 776 361 735 238 664 140 c 0
 591 39 507 0 362 0 c 2
 77 0 l 1
 150 341 l 1
300 341 m 1
 254 125 l 1
 388 125 l 2
 475 125 524 153 567 228 c 0
 601 287 627 390 627 469 c 0
 627 560 582 604 490 604 c 2
 355 604 l 1
 316 421 l 1
 490 421 l 1
 473 341 l 1
 300 341 l 1
EndSplineSet
Validated: 1
EndChar

StartChar: multiply
Encoding: 215 215 148
Width: 584
Flags: MW
LayerCount: 2
Fore
SplineSet
516 444 m 1
 582 360 l 1
 425 231 l 1
 526 102 l 1
 424 18 l 1
 323 147 l 1
 168 19 l 1
 102 103 l 1
 257 231 l 1
 156 359 l 1
 258 444 l 1
 359 315 l 1
 516 444 l 1
EndSplineSet
Validated: 1
EndChar

StartChar: Oslash
Encoding: 216 216 149
Width: 778
Flags: MW
LayerCount: 2
Fore
SplineSet
181 56 m 1
 75 -39 l 1
 34 7 l 1
 145 106 l 1
 122 150 109 204 109 263 c 0
 109 377 157 503 234 595 c 0
 317 692 422 741 547 741 c 0
 641 741 713 714 763 659 c 1
 864 749 l 1
 906 704 l 1
 798 607 l 1
 821 560 832 510 832 452 c 0
 832 339 785 215 707 123 c 0
 625 27 519 -23 395 -23 c 0
 302 -23 228 4 181 56 c 1
678 500 m 1
 294 157 l 1
 323 123 367 105 421 105 c 0
 497 105 561 140 611 210 c 0
 656 271 683 358 683 439 c 0
 683 460 682 478 678 500 c 1
521 613 m 0
 302 613 258 350 258 281 c 0
 258 258 260 235 264 213 c 1
 650 557 l 1
 620 594 577 613 521 613 c 0
EndSplineSet
Validated: 1
EndChar

StartChar: Thorn
Encoding: 222 222 155
Width: 667
Flags: MW
LayerCount: 2
Fore
SplineSet
514 609 m 2
 682 609 721 508 721 440 c 0
 721 363 687 278 633 221 c 0
 579 164 522 140 443 140 c 2
 256 140 l 1
 226 0 l 1
 76 0 l 1
 231 729 l 1
 381 729 l 1
 355 609 l 1
 514 609 l 2
435 265 m 2
 545 265 572 347 572 405 c 0
 572 452 536 484 482 484 c 2
 329 484 l 1
 282 265 l 1
 435 265 l 2
EndSplineSet
Validated: 1
EndChar

StartChar: germandbls
Encoding: 223 223 156
Width: 611
Flags: MW
LayerCount: 2
Fore
SplineSet
319 96 m 2
 424 98 487 162 487 251 c 0
 487 316 449 349 374 349 c 2
 359 349 l 1
 379 444 l 1
 458 444 511 488 511 552 c 0
 511 593 477 617 422 617 c 0
 367 617 332 590 321 537 c 0
 207 0 l 1
 67 0 l 1
 186 558 l 2
 208 662 312 729 452 729 c 0
 574 729 654 670 654 582 c 0
 654 504 606 437 532 411 c 1
 594 397 630 348 630 277 c 0
 630 213 570 -23 349 -23 c 0
 329 -23 313 -21 281 -16 c 1
 305 96 l 1
 319 96 l 2
EndSplineSet
Validated: 1
EndChar

StartChar: ae
Encoding: 230 230 163
Width: 889
Flags: MW
LayerCount: 2
Fore
SplineSet
718 549 m 0
 848 549 927 461 927 351 c 0
 927 313 921 271 909 226 c 1
 547 226 l 1
 541 200 540 189 540 175 c 0
 540 124 579 89 636 89 c 0
 685 89 730 114 750 152 c 1
 888 152 l 1
 835 45 726 -23 606 -23 c 0
 518 -23 453 13 425 77 c 1
 355 2 301 -23 209 -23 c 0
 112 -23 54 25 54 106 c 0
 54 144 72 280 256 311 c 2
 313 320 l 2
 363 327 440 331 440 394 c 0
 440 424 418 437 367 437 c 0
 303 437 272 417 255 362 c 1
 124 362 l 1
 137 425 154 459 187 488 c 0
 232 528 302 549 392 549 c 0
 469 549 521 533 553 500 c 1
 599 531 659 549 718 549 c 0
404 216 m 1
 412 254 l 1
 400 248 397 247 386 244 c 0
 382 244 375 242 365 241 c 2
 299 230 l 2
 234 219 197 186 197 139 c 0
 197 106 222 89 268 89 c 0
 338 89 386 134 404 216 c 1
784 319 m 1
 784 346 l 2
 784 404 753 437 699 437 c 0
 635 437 589 396 568 319 c 1
 784 319 l 1
EndSplineSet
Validated: 1
EndChar

StartChar: ccedilla
Encoding: 231 231 164
Width: 556
Flags: HMW
LayerCount: 2
Fore
SplineSet
561 187 m 1
 510 25 382 -23 301 -23 c 0
 296.667 -23 292.333 -23 288 -23 c 1
 262 -62 l 1
 277 -58 289 -56 305 -56 c 0
 345 -56 369 -77 369 -113 c 0
 369 -178 309 -220 218 -220 c 0
 174 -220 141 -213 85 -191 c 1
 115 -139 l 1
 162 -163 186 -170 214 -170 c 0
 252 -170 282 -150 282 -126 c 0
 282 -106 264 -93 238 -93 c 0
 221 -93 209 -96 184 -106 c 1
 241 -19 l 1
 86 11 77 133 77 173 c 0
 77 267 119 384 177 454 c 0
 230 517 304 549 398 549 c 0
 522 549 597 474 597 381 c 0
 597 371 596 362 593 338 c 1
 459 338 l 1
 458 394 451 437 377 437 c 0
 322 437 285 411 257 352 c 0
 233 304 220 245 220 192 c 0
 220 123 249 89 309 89 c 0
 363 89 396 116 427 187 c 1
 561 187 l 1
EndSplineSet
Validated: 1
EndChar

StartChar: eth
Encoding: 240 240 173
Width: 611
Flags: MW
LayerCount: 2
Fore
SplineSet
83 178 m 0
 83 253 125 530 362 530 c 0
 394 530 414 524 452 503 c 1
 428 544 393 582 355 609 c 1
 258 564 l 1
 217 607 l 1
 305 648 l 1
 279 666 273 670 235 694 c 1
 305 744 l 1
 325 735 364 717 400 693 c 1
 504 738 l 1
 547 695 l 1
 454 654 l 1
 584 558 633 473 633 345 c 0
 633 140 502 -23 305 -23 c 0
 166 -23 83 52 83 178 c 0
491 326 m 0
 491 410 430 431 387 431 c 0
 252 431 227 256 227 206 c 0
 227 107 288 89 326 89 c 0
 420 89 491 190 491 326 c 0
EndSplineSet
Validated: 1
EndChar

StartChar: divide
Encoding: 247 247 180
Width: 584
Flags: MW
LayerCount: 2
Fore
SplineSet
606 292 m 1
 581 172 l 1
 77 172 l 1
 102 292 l 1
 606 292 l 1
318 124 m 0
 347 124 368 103 368 73 c 0
 368 36 331 0 292 0 c 0
 263 0 242 21 242 49 c 0
 242 88 279 124 318 124 c 0
390 462 m 0
 419 462 440 441 440 411 c 0
 440 374 403 338 363 338 c 0
 335 338 314 359 314 387 c 0
 314 425 351 462 390 462 c 0
EndSplineSet
Validated: 1
EndChar

StartChar: oslash
Encoding: 248 248 181
Width: 611
Flags: MW
LayerCount: 2
Fore
SplineSet
636 344 m 0
 636 151 505 -23 304 -23 c 0
 233 -23 175 -2 135 36 c 1
 46 -38 l 1
 12 2 l 1
 105 80 l 1
 91 110 84 143 84 178 c 0
 84 369 209 549 417 549 c 0
 490 549 551 527 590 486 c 1
 675 557 l 1
 709 516 l 1
 618 440 l 1
 630 411 636 379 636 344 c 0
328 89 m 0
 461 89 494 266 494 321 c 0
 494 324 494 329 493 336 c 1
 246 129 l 1
 263 104 294 89 328 89 c 0
395 437 m 0
 261 437 227 261 227 208 c 0
 227 199 227 194 228 183 c 1
 478 392 l 1
 460 421 430 437 395 437 c 0
EndSplineSet
Validated: 1
EndChar

StartChar: thorn
Encoding: 254 254 187
Width: 611
Flags: MW
LayerCount: 2
Fore
SplineSet
352 729 m 1
 295 460 l 1
 341 519 397 549 464 549 c 0
 569 549 637 468 637 343 c 0
 637 142 505 -23 344 -23 c 0
 274 -23 232 5 211 64 c 1
 151 -218 l 1
 11 -218 l 1
 212 729 l 1
 352 729 l 1
406 437 m 0
 320 437 246 327 246 202 c 0
 246 134 281 89 334 89 c 0
 420 89 494 197 494 323 c 0
 494 392 459 437 406 437 c 0
EndSplineSet
Validated: 1
EndChar

StartChar: Aogonek
Encoding: 260 260 193
Width: 722
Flags: MW
LayerCount: 2
Fore
SplineSet
469 -155 m 0
 469 -61 581 -15 625 0 c 1
 550 0 l 1
 532 147 l 1
 260 147 l 1
 179 0 l 1
 26 0 l 1
 433 729 l 1
 606 729 l 1
 703 0 l 1
 625 -32 569 -91 569 -140 c 0
 569 -170 586 -183 624 -183 c 0
 650 -183 672 -180 696 -172 c 1
 685 -224 l 1
 654 -231 633 -233 605 -233 c 0
 518 -233 469 -205 469 -155 c 0
518 272 m 1
 483 555 l 1
 329 272 l 1
 518 272 l 1
EndSplineSet
Validated: 1
EndChar

StartChar: aogonek
Encoding: 261 261 194
Width: 556
Flags: MW
LayerCount: 2
Fore
SplineSet
386 549 m 0
 547 549 578 476 578 428 c 0
 578 416 576 401 572 383 c 2
 509 83 l 1
 507 75 506 68 506 62 c 0
 506 47 512 34 527 17 c 1
 523 0 l 1
 435 -47 392 -93 392 -140 c 0
 392 -169 408 -183 443 -183 c 0
 474 -183 495 -180 519 -172 c 1
 509 -224 l 1
 477 -231 457 -233 428 -233 c 0
 340 -233 293 -206 293 -154 c 0
 293 -92 346 -39 449 0 c 1
 370 0 l 1
 365 11 363 17 363 27 c 0
 363 34 363 39 366 54 c 1
 306 0 257 -23 199 -23 c 0
 110 -23 50 30 50 108 c 0
 50 149 80 282 252 311 c 2
 310 320 l 2
 359 327 436 331 436 394 c 0
 436 424 414 437 363 437 c 0
 299 437 268 417 251 362 c 1
 120 362 l 1
 148 492 229 549 386 549 c 0
400 217 m 1
 408 255 l 1
 391 245 392 247 361 241 c 2
 295 230 l 2
 230 219 193 186 193 139 c 0
 193 106 218 89 266 89 c 0
 334 89 382 135 400 217 c 1
EndSplineSet
Validated: 1
EndChar

StartChar: Dcroat
Encoding: 272 272 205
Width: 722
Flags: MW
LayerCount: 2
Fore
SplineSet
150 341 m 1
 73 341 l 1
 90 421 l 1
 166 421 l 1
 232 729 l 1
 517 729 l 2
 698 729 776 654 776 479 c 0
 776 361 735 238 664 140 c 0
 591 39 507 0 362 0 c 2
 77 0 l 1
 150 341 l 1
300 341 m 1
 254 125 l 1
 388 125 l 2
 475 125 524 153 567 228 c 0
 601 287 627 390 627 469 c 0
 627 560 582 604 490 604 c 2
 355 604 l 1
 316 421 l 1
 490 421 l 1
 473 341 l 1
 300 341 l 1
EndSplineSet
Validated: 1
EndChar

StartChar: dcroat
Encoding: 273 273 206
Width: 611
Flags: MW
LayerCount: 2
Fore
SplineSet
546 663 m 1
 560 729 l 1
 700 729 l 1
 686 663 l 1
 746 663 l 1
 732 596 l 1
 672 596 l 1
 545 0 l 1
 405 0 l 1
 417 55 l 1
 371 2 318 -23 251 -23 c 0
 147 -23 79 59 79 185 c 0
 79 267 108 357 157 428 c 0
 210 503 291 549 372 549 c 0
 440 549 482 524 505 470 c 1
 532 596 l 1
 392 596 l 1
 406 663 l 1
 546 663 l 1
380 437 m 0
 297 437 222 327 222 206 c 0
 222 134 256 89 309 89 c 0
 394 89 468 197 468 323 c 0
 468 392 434 437 380 437 c 0
EndSplineSet
Validated: 1
EndChar

StartChar: Eogonek
Encoding: 280 280 213
Width: 667
Flags: MW
LayerCount: 2
Fore
SplineSet
395 -156 m 0
 395 -98 442 -37 551 0 c 1
 79 0 l 1
 234 729 l 1
 762 729 l 1
 735 604 l 1
 357 604 l 1
 322 439 l 1
 671 439 l 1
 645 314 l 1
 296 314 l 1
 256 125 l 1
 651 125 l 1
 624 0 l 1
 533 -51 495 -93 495 -143 c 0
 495 -170 512 -183 549 -183 c 0
 576 -183 598 -180 622 -172 c 1
 611 -224 l 1
 580 -231 559 -233 531 -233 c 0
 444 -233 395 -205 395 -156 c 0
EndSplineSet
Validated: 1
EndChar

StartChar: eogonek
Encoding: 281 281 214
Width: 556
Flags: MW
LayerCount: 2
Fore
SplineSet
552 152 m 1
 488 19 321 -38 321 -140 c 0
 321 -168 339 -183 372 -183 c 0
 398 -183 423 -179 443 -172 c 1
 432 -224 l 1
 401 -230 380 -233 356 -233 c 0
 271 -233 222 -203 222 -152 c 0
 222 -101 249 -69 335 -17 c 1
 308 -22 295 -24 276 -24 c 0
 150 -24 64 61 64 184 c 0
 64 264 111 549 379 549 c 0
 507 549 591 467 591 351 c 0
 591 313 585 271 573 226 c 1
 210 226 l 1
 207 198 207 190 207 181 c 0
 207 126 245 89 302 89 c 0
 350 89 394 114 414 152 c 1
 552 152 l 1
448 334 m 2
 448 389 432 437 362 437 c 0
 282 437 245 379 228 319 c 1
 448 319 l 1
 448 334 l 2
EndSplineSet
Validated: 1
EndChar

StartChar: Hbar
Encoding: 294 294 227
Width: 722
Flags: MW
LayerCount: 2
Fore
SplineSet
707 599 m 1
 767 599 l 1
 753 532 l 1
 693 532 l 1
 580 0 l 1
 430 0 l 1
 500 331 l 1
 211 331 l 1
 141 0 l 1
 -9 0 l 1
 104 532 l 1
 44 532 l 1
 58 599 l 1
 118 599 l 1
 145 729 l 1
 295 729 l 1
 268 599 l 1
 556 599 l 1
 583 729 l 1
 734 729 l 1
 707 599 l 1
542 532 m 1
 254 532 l 1
 237 456 l 1
 525 456 l 1
 542 532 l 1
EndSplineSet
Validated: 1
EndChar

StartChar: hbar
Encoding: 295 295 228
Width: 611
Flags: MW
LayerCount: 2
Fore
SplineSet
404 549 m 0
 464 549 547 523 547 421 c 0
 547 403 545 384 540 362 c 2
 464 0 l 1
 324 0 l 1
 394 330 l 2
 397 346 399 358 399 367 c 0
 399 409 369 430 329 430 c 0
 266 430 212 386 198 324 c 2
 130 0 l 1
 -10 0 l 1
 116 596 l 1
 57 596 l 1
 71 663 l 1
 130 663 l 1
 144 729 l 1
 284 729 l 1
 270 663 l 1
 404 663 l 1
 390 596 l 1
 256 596 l 1
 228 462 l 1
 279 521 335 549 404 549 c 0
EndSplineSet
Validated: 1
EndChar

StartChar: Iogonek
Encoding: 302 302 235
Width: 278
Flags: MW
LayerCount: 2
Fore
SplineSet
368 729 m 1
 213 0 l 1
 153 -32 104 -95 104 -139 c 0
 104 -167 121 -183 150 -183 c 0
 164 -183 192 -178 210 -172 c 1
 199 -224 l 1
 165 -231 151 -233 128 -233 c 0
 53 -233 7 -204 7 -155 c 0
 7 -98 49 -50 139 0 c 1
 63 0 l 1
 218 729 l 1
 368 729 l 1
EndSplineSet
Validated: 1
EndChar

StartChar: iogonek
Encoding: 303 303 236
Width: 268
Flags: MW
LayerCount: 2
Fore
SplineSet
311 540 m 1
 196 0 l 1
 132 -45 96 -95 96 -140 c 0
 96 -167 112 -182 143 -182 c 0
 158 -182 163 -181 193 -172 c 1
 182 -224 l 1
 141 -233 138 -233 119 -233 c 0
 45 -233 0 -202 0 -150 c 0
 0 -98 36 -56 129 0 c 1
 56 0 l 1
 171 540 l 1
 311 540 l 1
351 729 m 1
 325 604 l 1
 185 604 l 1
 211 729 l 1
 351 729 l 1
EndSplineSet
Validated: 1
EndChar

StartChar: dotlessi
Encoding: 305 305 238
Width: 278
Flags: MW
LayerCount: 2
Fore
SplineSet
322 540 m 1
 207 0 l 1
 67 0 l 1
 182 540 l 1
 322 540 l 1
EndSplineSet
Validated: 1
EndChar

StartChar: kgreenlandic
Encoding: 312 312 245
Width: 529
Flags: MW
LayerCount: 2
Fore
SplineSet
274 351 m 1
 476 540 l 1
 624 540 l 1
 358 296 l 1
 548 0 l 1
 366 0 l 1
 241 198 l 1
 199 0 l 1
 59 0 l 1
 174 540 l 1
 314 540 l 1
 274 351 l 1
EndSplineSet
Validated: 1
EndChar

StartChar: Lslash
Encoding: 321 321 254
Width: 611
Flags: MW
LayerCount: 2
Fore
SplineSet
338 421 m 1
 525 531 l 1
 505 437 l 1
 318 327 l 1
 275 125 l 1
 624 125 l 1
 597 0 l 1
 98 0 l 1
 154 262 l 1
 54 201 l 1
 74 295 l 1
 174 356 l 1
 253 729 l 1
 403 729 l 1
 338 421 l 1
EndSplineSet
Validated: 1
EndChar

StartChar: lslash
Encoding: 322 322 255
Width: 278
Flags: MW
LayerCount: 2
Fore
SplineSet
296 435 m 1
 372 480 l 1
 355 398 l 1
 279 353 l 1
 204 0 l 1
 64 0 l 1
 126 294 l 1
 50 246 l 1
 67 329 l 1
 143 376 l 1
 219 729 l 1
 359 729 l 1
 296 435 l 1
EndSplineSet
Validated: 1
EndChar

StartChar: OE
Encoding: 338 338 269
Width: 1000
Flags: MW
LayerCount: 2
Fore
SplineSet
692 314 m 1
 652 125 l 1
 997 125 l 1
 971 0 l 1
 481 0 l 1
 493 59 l 1
 437 -1 393 -23 326 -23 c 0
 185 -23 90 84 90 245 c 0
 90 377 146 527 230 619 c 0
 303 700 388 741 482 741 c 0
 548 741 588 723 625 677 c 1
 636 729 l 1
 1107 729 l 1
 1080 604 l 1
 754 604 l 1
 719 439 l 1
 1017 439 l 1
 990 314 l 1
 692 314 l 1
482 613 m 0
 288 613 239 354 239 274 c 0
 239 168 292 105 383 105 c 0
 436 105 474 126 513 178 c 1
 590 540 l 1
 571 591 538 613 482 613 c 0
EndSplineSet
Validated: 1
EndChar

StartChar: oe
Encoding: 339 339 270
Width: 944
Flags: MW
LayerCount: 2
Fore
SplineSet
778 549 m 0
 908 549 986 461 986 351 c 0
 986 313 980 271 968 226 c 1
 606 226 l 1
 600 200 599 188 599 174 c 0
 599 124 638 89 695 89 c 0
 744 89 789 114 809 152 c 1
 947 152 l 1
 894 45 785 -23 666 -23 c 0
 592 -23 526 6 498 50 c 1
 446 4 369 -23 288 -23 c 0
 154 -23 71 53 71 176 c 0
 71 370 198 549 403 549 c 0
 482 549 549 522 583 477 c 1
 629 522 703 549 778 549 c 0
313 89 m 0
 447 89 480 265 480 320 c 0
 480 391 441 437 380 437 c 0
 290 437 214 332 214 205 c 0
 214 135 253 89 313 89 c 0
843 319 m 1
 843 347 l 2
 843 404 812 437 758 437 c 0
 694 437 648 396 627 319 c 1
 843 319 l 1
EndSplineSet
Validated: 1
EndChar

StartChar: Scedilla
Encoding: 350 350 281
Width: 667
Flags: MW
LayerCount: 2
Fore
SplineSet
151 472 m 0
 151 621 274 741 473 741 c 0
 631 741 725 677 725 569 c 0
 725 549 723 535 717 507 c 1
 577 507 l 1
 578 516 579 525 579 530 c 0
 579 584 532 613 447 613 c 0
 356 613 300 573 300 509 c 0
 300 471 327 455 421 436 c 2
 530 414 l 2
 632 394 687 342 687 265 c 0
 687 153 621 -20 347 -23 c 1
 320 -62 l 1
 335 -58 349 -56 364 -56 c 0
 403 -56 427 -77 427 -113 c 0
 427 -178 367 -220 277 -220 c 0
 232 -220 200 -213 144 -191 c 1
 174 -140 l 1
 221 -163 244 -170 273 -170 c 0
 310 -170 340 -150 340 -126 c 0
 340 -106 322 -93 296 -93 c 0
 279 -93 267 -96 243 -106 c 1
 298 -22 l 1
 153 0 76 55 76 174 c 0
 76 188 77 198 80 218 c 1
 226 218 l 1
 225 209 224 200 224 196 c 0
 224 138 276 105 367 105 c 0
 471 105 538 149 538 216 c 0
 538 262 509 283 418 301 c 2
 320 321 l 2
 201 345 151 389 151 472 c 0
EndSplineSet
Validated: 1
EndChar

StartChar: scedilla
Encoding: 351 351 282
Width: 556
Flags: MW
LayerCount: 2
Fore
SplineSet
127 345 m 0
 127 460 231 549 387 549 c 0
 513 549 589 494 589 404 c 0
 589 393 588 384 584 366 c 1
 449 366 l 1
 451 375 452 379 452 385 c 0
 452 417 419 437 364 437 c 0
 311 437 276 416 276 384 c 0
 276 364 290 354 341 339 c 2
 437 311 l 2
 520 286 559 247 559 187 c 0
 559 60 454 -22 288 -22 c 1
 262 -62 l 1
 277 -58 290 -56 305 -56 c 0
 344 -56 368 -77 368 -113 c 0
 368 -178 308 -220 218 -220 c 0
 173 -220 142 -213 85 -191 c 1
 115 -140 l 1
 162 -163 185 -170 213 -170 c 0
 251 -170 281 -150 281 -126 c 0
 281 -106 263 -93 237 -93 c 0
 220 -93 208 -96 184 -106 c 1
 238 -21 l 1
 202 -21 60 16 60 127 c 0
 60 135 61 143 64 157 c 1
 201 157 l 1
 204 99 265 89 307 89 c 0
 368 89 411 112 411 144 c 0
 411 167 398 176 335 196 c 2
 256 221 l 2
 168 250 127 289 127 345 c 0
EndSplineSet
Validated: 1
EndChar

StartChar: uni0162
Encoding: 354 354 285
Width: 611
Flags: M
LayerCount: 2
Fore
SplineSet
514 604 m 1
 385 0 l 1
 348.339 1.38778e-17 l 1
 308 -61 l 1
 324 -57 336 -55 351 -55 c 0
 391 -55 415 -76 415 -112 c 0
 415 -177 355 -219 265 -219 c 0
 220 -219 188 -212 132 -190 c 1
 162 -139 l 1
 209 -162 232 -169 260 -169 c 0
 298 -169 328 -149 328 -125 c 0
 328 -105 310 -92 284 -92 c 0
 267 -92 255 -95 231 -105 c 1
 298.358 1.11022e-16 l 1
 235 0 l 1
 364 604 l 1
 142 604 l 1
 169 729 l 1
 753 729 l 1
 726 604 l 1
 514 604 l 1
EndSplineSet
Validated: 1
EndChar

StartChar: uni0163
Encoding: 355 355 286
Width: 333
Flags: HM
LayerCount: 2
Fore
SplineSet
414 529 m 1
 394 436 l 1
 316 436 l 1
 254 142 l 2
 250 125 248 113 248 108 c 0
 248 93 263 83 286 83 c 0
 297 83 305 84 319 86 c 1
 299 -12 l 1
 271 -20 247 -23 214 -23 c 0
 211.006 -23 208.067 -22.9478 205.184 -22.844 c 1
 174 -70 l 1
 190 -66 202 -64 217 -64 c 0
 257 -64 281 -85 281 -121 c 0
 281 -186 221 -228 131 -228 c 0
 86 -228 54 -221 -2 -199 c 1
 28 -148 l 1
 75 -171 98 -178 126 -178 c 0
 164 -178 194 -158 194 -134 c 0
 194 -114 176 -101 150 -101 c 0
 133 -101 121 -104 97 -114 c 1
 160.063 -15.6955 l 1
 121.547 -3.50975 101 23.5811 101 63 c 0
 101 76 103.046 89.9902 106 104 c 2
 176 436 l 1
 107 436 l 1
 127 529 l 1
 196 529 l 1
 227 674 l 1
 367 674 l 1
 336 529 l 1
 414 529 l 1
EndSplineSet
Validated: 3073
EndChar

StartChar: Uogonek
Encoding: 370 370 299
Width: 722
Flags: MW
LayerCount: 2
Fore
SplineSet
569 -172 m 1
 558 -224 l 1
 528 -230 506 -233 482 -233 c 0
 393 -233 342 -205 342 -157 c 0
 342 -69 435 -27 473 -10 c 1
 423 -20 400 -23 368 -23 c 0
 215 -23 119 50 119 167 c 0
 119 189 123 222 130 255 c 2
 231 729 l 1
 381 729 l 1
 276 235 l 1
 273 219 271 205 271 190 c 0
 271 137 316 105 394 105 c 0
 485 105 535 145 554 235 c 2
 659 729 l 1
 809 729 l 1
 704 235 l 2
 659 38 553 45 474 -63 c 0
 452 -93 442 -117 442 -139 c 0
 442 -169 460 -183 498 -183 c 0
 524 -183 548 -179 569 -172 c 1
EndSplineSet
Validated: 1
EndChar

StartChar: uogonek
Encoding: 371 371 300
Width: 611
Flags: MW
LayerCount: 2
Fore
SplineSet
656 540 m 1
 541 0 l 1
 461 -41 416 -92 416 -142 c 0
 416 -169 434 -183 469 -183 c 0
 491 -183 515 -179 537 -172 c 1
 526 -224 l 1
 483 -233 482 -233 456 -233 c 0
 364 -233 317 -206 317 -154 c 0
 317 -94 365 -45 466 0 c 1
 401 0 l 1
 416 68 l 1
 362 4 308 -23 234 -23 c 0
 146 -23 88 29 88 109 c 0
 88 127 90 145 94 164 c 2
 174 540 l 1
 314 540 l 1
 244 213 l 1
 240 190 238 178 238 164 c 0
 238 115 264 89 314 89 c 0
 379 89 431 141 448 222 c 0
 516 540 l 1
 656 540 l 1
EndSplineSet
Validated: 1
EndChar

StartChar: longs
Encoding: 383 383 312
Width: 333
Flags: MW
LayerCount: 2
Fore
SplineSet
230 0 m 1
 90 0 l 1
 183 436 l 1
 106 436 l 1
 126 529 l 1
 202 529 l 1
 216 594 l 2
 236 687 289 729 387 729 c 0
 405 729 422 728 464 726 c 1
 442 621 l 1
 415 624 410 625 400 625 c 0
 375 625 360 611 354 582 c 0
 230 0 l 1
EndSplineSet
Validated: 1
EndChar

StartChar: florin
Encoding: 402 402 313
Width: 556
Flags: MW
LayerCount: 2
Fore
SplineSet
603 483 m 1
 582 383 l 1
 445 383 l 1
 305 1 l 2
 263 -113 200 -220 65 -220 c 0
 33 -220 8 -214 -21 -198 c 1
 28 -83 l 1
 45 -96 64 -104 80 -104 c 0
 116 -104 139 -76 170 7 c 2
 309 383 l 1
 186 383 l 1
 207 483 l 1
 345 483 l 1
 368 542 l 2
 422 681 493 744 598 744 c 0
 629 744 650 740 690 727 c 1
 646 613 l 1
 621 626 610 629 594 629 c 0
 555 629 522 594 495 524 c 1
 480 483 l 1
 603 483 l 1
EndSplineSet
Validated: 1
EndChar

StartChar: circumflex
Encoding: 710 710 318
Width: 333
Flags: MW
LayerCount: 2
Fore
SplineSet
274 757 m 1
 382 757 l 1
 453 610 l 1
 375 610 l 1
 314 707 l 1
 211 610 l 1
 135 610 l 1
 274 757 l 1
EndSplineSet
Validated: 1
EndChar

StartChar: caron
Encoding: 711 711 319
Width: 333
Flags: MW
LayerCount: 2
Fore
SplineSet
346 610 m 1
 238 610 l 1
 167 757 l 1
 245 757 l 1
 306 660 l 1
 409 757 l 1
 485 757 l 1
 346 610 l 1
EndSplineSet
Validated: 1
EndChar

StartChar: breve
Encoding: 728 728 320
Width: 333
Flags: MW
LayerCount: 2
Fore
SplineSet
413 754 m 1
 455 754 l 1
 441 672 373 611 294 611 c 0
 231 611 188 653 188 715 c 0
 188 727 189 736 194 754 c 1
 236 754 l 1
 236 746 l 2
 236 710 263 689 310 689 c 0
 361 689 396 711 413 754 c 1
EndSplineSet
Validated: 1
EndChar

StartChar: dotaccent
Encoding: 729 729 321
Width: 333
Flags: MW
LayerCount: 2
Fore
SplineSet
377 741 m 1
 351 621 l 1
 241 621 l 1
 267 741 l 1
 377 741 l 1
EndSplineSet
Validated: 1
EndChar

StartChar: ring
Encoding: 730 730 322
Width: 333
Flags: MW
LayerCount: 2
Fore
SplineSet
326 773 m 0
 368 773 398 743 398 702 c 0
 398 645 344 593 286 593 c 0
 244 593 214 623 214 664 c 0
 214 721 268 773 326 773 c 0
316 723 m 0
 289 723 263 700 263 675 c 0
 263 657 277 643 297 643 c 0
 324 643 349 667 349 692 c 0
 349 710 335 723 316 723 c 0
EndSplineSet
Validated: 1
EndChar

StartChar: ogonek
Encoding: 731 731 323
Width: 333
Flags: MW
LayerCount: 2
Fore
SplineSet
23 -157 m 0
 23 -89 73 -42 174 0 c 1
 248 0 l 1
 217 -18 123 -68 123 -143 c 0
 123 -169 140 -183 173 -183 c 0
 199 -183 224 -179 244 -172 c 1
 234 -224 l 1
 202 -230 181 -233 157 -233 c 0
 74 -233 23 -204 23 -157 c 0
EndSplineSet
Validated: 1
EndChar

StartChar: tilde
Encoding: 732 732 324
Width: 333
Flags: MW
LayerCount: 2
Fore
SplineSet
500 744 m 1
 475 654 420 622 367 622 c 0
 350 622 329 627 316 633 c 2
 266 658 l 2
 251 665 230 672 222 672 c 0
 204 672 188 657 171 624 c 1
 117 624 l 1
 140 699 184 741 238 741 c 0
 263 741 277 738 309 724 c 2
 359 703 l 2
 378 694 380 693 392 693 c 0
 415 693 432 710 446 744 c 1
 500 744 l 1
EndSplineSet
Validated: 1
EndChar

StartChar: hungarumlaut
Encoding: 733 733 325
Width: 333
Flags: MW
LayerCount: 2
Fore
SplineSet
310 757 m 1
 152 610 l 1
 82 610 l 1
 184 757 l 1
 310 757 l 1
498 757 m 1
 340 610 l 1
 270 610 l 1
 372 757 l 1
 498 757 l 1
EndSplineSet
Validated: 1
EndChar

StartChar: gravedblnosp
Encoding: 783 783 337
Width: 0
Flags: HMW
AnchorPoint: "above" -30 538 mark 0
LayerCount: 2
Fore
SplineSet
-64 757 m 1
 55 757 l 1
 100 607 l 1
 37 607 l 1
 -64 757 l 1
-252 757 m 1
 -133 757 l 1
 -88 607 l 1
 -151 607 l 1
 -252 757 l 1
EndSplineSet
Validated: 3073
EndChar

StartChar: uni0313
Encoding: 787 787 339
Width: 0
Flags: HMW
AnchorPoint: "above" -165 538 mark 0
LayerCount: 2
Fore
SplineSet
-185 740 m 1
 -78 740 l 1
 -93 671 l 2
 -105 614 -163 583 -219 583 c 1
 -210 625 l 1
 -207 625 l 0
 -188 625 -169 626 -159 670 c 1
 -200 670 l 1
 -185 740 l 1
EndSplineSet
Validated: 3073
EndChar

StartChar: uni0374
Encoding: 884 884 341
Width: 208
Flags: MW
LayerCount: 2
Fore
SplineSet
172 706 m 1
 40 575 l 1
 25 649 l 1
 113 789 l 1
 172 706 l 1
EndSplineSet
Validated: 1
EndChar

StartChar: uni0375
Encoding: 885 885 342
Width: 247
Flags: HMW
LayerCount: 2
Fore
SplineSet
82 -182 m 1
 -1 -123 l 1
 139 -35 l 1
 213 -50 l 1
 82 -182 l 1
EndSplineSet
Validated: 1
EndChar

StartChar: ypogegrammeni
Encoding: 890 890 343
Width: 364
Flags: HMW
LayerCount: 2
Fore
SplineSet
223 -163 m 0
 252 -163 246 -157 257 -139 c 1
 282 -139 l 1
 269 -199 218 -200 160 -200 c 0
 118 -200 100 -182 100 -149 c 0
 100 -140 101 -130.999 103 -121 c 2
 115 -61 l 1
 218 -61 l 1
 210 -107 209 -130 209 -150 c 0
 209 -159 213 -163 223 -163 c 0
EndSplineSet
Validated: 3073
EndChar

StartChar: Kappa
Encoding: 922 922 345
Width: 744
Flags: MW
LayerCount: 2
Fore
SplineSet
621 -25 m 1
 432 -25 l 1
 271 323 l 1
 163 237 l 1
 98 -25 l 1
 -46 -25 l 1
 145 741 l 1
 289 741 l 1
 209 423 l 1
 607 741 l 1
 799 741 l 1
 401 423 l 1
 621 -25 l 1
EndSplineSet
Validated: 1
EndChar

StartChar: Lambda
Encoding: 923 923 346
Width: 744
Flags: HMW
LayerCount: 2
Fore
SplineSet
383.635 550.715 m 1
 32 -25 l 1
 -123 -25 l 1
 363 741 l 1
 498 741 l 1
 620 -25 l 1
 460 -25 l 1
 390.653 493.06 398.167 435.478 383.635 550.715 c 1
EndSplineSet
Validated: 1
EndChar

StartChar: Mu
Encoding: 924 924 347
Width: 860
Flags: MW
LayerCount: 2
Fore
SplineSet
678 -25 m 1
 536 -25 l 1
 654 451 l 1
 371 -25 l 1
 249 -25 l 1
 206 457 l 1
 86 -25 l 1
 -56 -25 l 1
 135 741 l 1
 322 741 l 1
 365 219 l 2
 366 208 372 146 372 145 c 2
 372 141 l 1
 373 143 374 162 375 197 c 1
 698 741 l 1
 869 741 l 1
 678 -25 l 1
EndSplineSet
Validated: 1
EndChar

StartChar: Nu
Encoding: 925 925 348
Width: 714
Flags: MW
LayerCount: 2
Fore
SplineSet
550 -25 m 1
 415 -25 l 1
 203 479 l 1
 78 -25 l 1
 -64 -25 l 1
 127 741 l 1
 264 741 l 1
 475 237 l 1
 601 741 l 1
 741 741 l 1
 550 -25 l 1
EndSplineSet
Validated: 1
EndChar

StartChar: Xi
Encoding: 926 926 349
Width: 690
Flags: MW
LayerCount: 2
Fore
SplineSet
675 607 m 1
 107 607 l 1
 141 741 l 1
 709 741 l 1
 675 607 l 1
543 301 m 1
 93 301 l 1
 126 435 l 1
 576 435 l 1
 543 301 l 1
534 -25 m 1
 -50 -25 l 1
 -17 109 l 1
 567 109 l 1
 534 -25 l 1
EndSplineSet
Validated: 1
EndChar

StartChar: Omicron
Encoding: 927 927 350
Width: 822
Flags: MW
LayerCount: 2
Fore
SplineSet
488 763 m 0
 714 763 772 607 772 491 c 0
 772 329 693 155 577 58 c 0
 491 -15 394 -51 285 -51 c 0
 59 -51 1 105 1 221 c 0
 1 378 75 553 196 654 c 0
 281 727 379 763 488 763 c 0
150 244 m 0
 150 114 250 81 318 81 c 0
 577 81 624 395 624 468 c 0
 624 598 524 631 455 631 c 0
 198 631 150 321 150 244 c 0
EndSplineSet
Validated: 1
EndChar

StartChar: Pi
Encoding: 928 928 351
Width: 781
Flags: MW
LayerCount: 2
Fore
SplineSet
570 -25 m 1
 426 -25 l 1
 583 607 l 1
 261 607 l 1
 104 -25 l 1
 -40 -25 l 1
 151 741 l 1
 761 741 l 1
 570 -25 l 1
EndSplineSet
Validated: 1
EndChar

StartChar: Rho
Encoding: 929 929 352
Width: 698
Flags: MW
LayerCount: 2
Fore
SplineSet
695 574 m 0
 695 519 664 364 510 298 c 0
 461 277 402 267 334 267 c 2
 175 267 l 1
 102 -25 l 1
 -42 -25 l 1
 149 741 l 1
 444 741 l 2
 524 741 607 740 655 686 c 0
 685 654 695 616 695 574 c 0
369 401 m 2
 517 401 543 482 543 540 c 0
 543 594 516 607 418 607 c 2
 259 607 l 1
 208 401 l 1
 369 401 l 2
EndSplineSet
Validated: 1
EndChar

StartChar: Sigma
Encoding: 931 931 353
Width: 688
Flags: MW
LayerCount: 2
Fore
SplineSet
535 -25 m 1
 -81 -25 l 1
 -51 98 l 1
 250 386 l 1
 115 625 l 1
 144 743 l 1
 706 743 l 1
 673 609 l 1
 305 609 l 1
 323 573 319 585 330 564 c 2
 431 386 l 1
 139 109 l 1
 568 109 l 1
 535 -25 l 1
EndSplineSet
Validated: 1
EndChar

StartChar: Tau
Encoding: 932 932 354
Width: 688
Flags: MW
LayerCount: 2
Fore
SplineSet
694 607 m 1
 456 607 l 1
 299 -25 l 1
 155 -25 l 1
 312 607 l 1
 76 607 l 1
 110 741 l 1
 728 741 l 1
 694 607 l 1
EndSplineSet
Validated: 1
EndChar

StartChar: Upsilon
Encoding: 933 933 355
Width: 744
Flags: MW
LayerCount: 2
Fore
SplineSet
814 741 m 1
 394 296 l 1
 314 -25 l 1
 170 -25 l 1
 250 296 l 1
 63 741 l 1
 238 741 l 1
 330 514 l 1
 345 473 356 445 361 429 c 1
 452 536 548 637 642 741 c 1
 814 741 l 1
EndSplineSet
Validated: 1
EndChar

StartChar: Phi
Encoding: 934 934 356
Width: 777
Flags: MW
LayerCount: 2
Fore
SplineSet
499 662 m 1
 647 652 722 551 722 435 c 0
 722 271 582 63 347 49 c 1
 329 -25 l 1
 196 -25 l 1
 214 49 l 1
 72 58 -9 149 -9 269 c 0
 -9 431 130 647 368 662 c 1
 389 745 l 1
 520 745 l 1
 499 662 l 1
378 171 m 1
 508 200 577 311 577 407 c 0
 577 484 521 523 469 536 c 1
 378 171 l 1
336 536 m 1
 195 505 137 393 137 303 c 0
 137 224 190 184 245 171 c 1
 336 536 l 1
EndSplineSet
Validated: 1
EndChar

StartChar: Chi
Encoding: 935 935 357
Width: 783
Flags: HMW
LayerCount: 2
Fore
SplineSet
397 492 m 1
 476.472 571.472 564.707 659.047 647 741 c 1
 813 741 l 1
 451 378 l 1
 641 -25 l 1
 462 -25 l 1
 333 258 l 1
 163.342 81.1734 295 219 61 -25 c 1
 -116 -25 l 1
 280 374 l 1
 110 741 l 1
 283 741 l 1
 320.905 658.375 393.691 499.941 397 492 c 1
EndSplineSet
Validated: 1
EndChar

StartChar: Psi
Encoding: 936 936 358
Width: 805
Flags: HMW
LayerCount: 2
Fore
SplineSet
164 326 m 0
 164 279.749 186.497 254 278 254 c 1
 400 743 l 1
 536 743 l 1
 414 254 l 1
 518.064 254 558.788 284.193 584 380 c 2
 674 742 l 1
 815 746 l 1
 721 368 l 2
 661.475 128.633 417 121 385 121 c 1
 348 -27 l 1
 204 -27 l 1
 242 121 l 1
 103 121 18 153 18 288 c 0
 18 312 22 339 29 368 c 2
 123 746 l 1
 262 742 l 1
 172 380 l 2
 167 359 164 341 164 326 c 0
EndSplineSet
Validated: 3073
EndChar

StartChar: Omega
Encoding: 937 937 359
Width: 780
Flags: MW
LayerCount: 2
Fore
SplineSet
744 475 m 0
 744 325 669 183 544 101 c 1
 662 101 l 1
 631 -25 l 1
 307 -25 l 1
 337 96 l 1
 411 124 600 223 600 446 c 0
 600 518 567 621 433 621 c 0
 265 621 150 433 150 285 c 0
 150 179 203 127 265 97 c 1
 235 -25 l 1
 -79 -25 l 1
 -48 101 l 1
 74 101 l 1
 29 151 11 206 11 271 c 0
 11 467 191 747 462 747 c 0
 687 747 744 597 744 475 c 0
EndSplineSet
Validated: 1
EndChar

StartChar: alpha
Encoding: 945 945 367
Width: 656
Flags: MW
LayerCount: 2
Fore
SplineSet
233 111 m 0
 378 111 403 300 403 338 c 0
 403 411 370 432 319 432 c 0
 181 432 146 250 146 198 c 0
 146 146 168 111 233 111 c 0
430 -12 m 0
 414 -12 376 -6 358 31 c 1
 312 4 260 -11 203 -11 c 0
 71 -11 11 50 11 158 c 0
 11 237 62 552 350 552 c 0
 407 550 447 542 482 502 c 1
 493 543 l 1
 615 543 l 1
 504 119 l 1
 502 113 l 1
 542 136 l 1
 548 20 l 1
 497 -1 458 -12 430 -12 c 0
EndSplineSet
Validated: 1
EndChar

StartChar: beta
Encoding: 946 946 368
Width: 576
Flags: HMW
LayerCount: 2
Fore
SplineSet
524 266 m 0
 524 205 463 -22 218 -22 c 0
 140 -22 109 -3 88 12 c 1
 32 -197 l 1
 -107 -197 l 1
 74 478 l 2
 91 540 141 731 372 731 c 0
 519 731 557 653 557 592 c 0
 557 549 539 451 444 389 c 1
 443 389 443 389 442 388 c 1
 507 360 524 311 524 266 c 0
232 95 m 0
 356 95 378 214 378 245 c 0
 378 271 361 311 261 311 c 2
 185 311 l 1
 216 428 l 1
 285 428 l 2
 406 428 427 531 427 558 c 0
 427 604 382 616 354 616 c 0
 238 616 222 510 212 475 c 2
 127 155 l 1
 136.5 99.5 178 95 232 95 c 0
EndSplineSet
Validated: 1
EndChar

StartChar: gamma
Encoding: 947 947 369
Width: 591
Flags: MW
LayerCount: 2
Fore
SplineSet
650 542 m 1
 326 48 l 1
 264 -193 l 1
 129 -193 l 1
 192 47 l 1
 135 379 l 1
 133 405 130 422 127 431 c 0
 127 432 126 433 125 433 c 0
 120 433 103 428 74 418 c 1
 91 518 l 2
 95 537 135 554 166 554 c 0
 231 554 258 536 268 452 c 2
 301 218 l 1
 510 542 l 1
 650 542 l 1
EndSplineSet
Validated: 1
EndChar

StartChar: delta
Encoding: 948 948 370
Width: 620
Flags: MW
LayerCount: 2
Fore
SplineSet
209 118 m 0
 370 118 399 276 399 320 c 0
 399 378 366 412 294 412 c 0
 152 412 115 252 115 204 c 0
 115 147 146 118 209 118 c 0
-33 166 m 0
 -33 298 55 483 247 517 c 1
 116 622 l 1
 143 724 l 1
 596 724 l 1
 565 611 l 1
 346 611 l 1
 439 535 l 2
 469 509 543 458 543 352 c 0
 543 223 458 71 341 24 c 0
 295 4 239 -5 175 -5 c 0
 -1 -5 -33 99 -33 166 c 0
EndSplineSet
Validated: 1
EndChar

StartChar: epsilon
Encoding: 949 949 371
Width: 570
Flags: MW
LayerCount: 2
Fore
SplineSet
204 104 m 0
 323 104 345 153 354 176 c 1
 484 176 l 1
 417 15 301 -10 177 -10 c 0
 39 -10 -30 29 -30 107 c 0
 -30 205 45 254 75 271 c 1
 60 282 34 302 34 348 c 0
 34 432 91 549 328 552 c 2
 337 552 l 2
 495 552 537 496 537 405 c 0
 537 393 536 380 535 366 c 1
 405 366 l 1
 406 370 406 374 406 377 c 0
 406 412 378 438 294 438 c 0
 192 438 173 398 173 372 c 0
 173 340 191 323 262 323 c 2
 335 323 l 1
 306 219 l 1
 234 219 l 2
 181 219 137 215 112 157 c 0
 111 153 112 149 112 147 c 0
 112 118 142 104 204 104 c 0
EndSplineSet
Validated: 1
EndChar

StartChar: zeta
Encoding: 950 950 372
Width: 522
Flags: MW
LayerCount: 2
Fore
SplineSet
-14 160 m 0
 -14 234 47 453 294 616 c 1
 116 616 l 1
 147 735 l 1
 565 735 l 1
 539 638 l 1
 243 500 141 290 141 204 c 0
 141 102 271 115 325 102 c 0
 344 99 400 85 400 13 c 0
 400 -31 378 -87 297 -205 c 1
 181 -160 l 1
 235 -90 258 -57 258 -31 c 0
 258 -17 250 -14 222 -14 c 0
 175 -14 -14 21 -14 160 c 0
EndSplineSet
Validated: 1
EndChar

StartChar: eta
Encoding: 951 951 373
Width: 586
Flags: MW
LayerCount: 2
Fore
SplineSet
182 556 m 0
 238 556 251 509 252 494 c 1
 261 505 l 2
 281 525 354 555 416 555 c 0
 554 555 578 473 578 419 c 0
 578 397 574 373 561 320 c 2
 427 -215 l 1
 299 -177 l 1
 422 316 l 2
 428 340 431 359 431 374 c 0
 431 405 415 429 367 429 c 0
 292 429 242 381 218 284 c 2
 141 -25 l 1
 3 -25 l 1
 112 414 l 2
 117 424 117 424 118 426 c 1
 117 426 105 423 80 418 c 1
 87 536 l 1
 126 549 158 556 182 556 c 0
EndSplineSet
Validated: 1
EndChar

StartChar: theta
Encoding: 952 952 374
Width: 586
Flags: MW
LayerCount: 2
Fore
SplineSet
368 731 m 0
 512 731 546 629 548 549 c 2
 548 535 l 2
 548 427 483 116 315 24 c 0
 270 0 221 -12 167 -12 c 0
 30 -12 -15 59 -15 164 c 0
 -15 288 61 731 368 731 c 0
414 526 m 0
 414 580 403 617 337 617 c 0
 266 617 211 554 170 424 c 1
 400 424 l 1
 409 462 414 496 414 526 c 0
122 192 m 0
 122 122 158 104 199 104 c 0
 301 104 343 224 369 309 c 1
 140 309 l 1
 128 262 122 212 122 192 c 0
EndSplineSet
Validated: 1
EndChar

StartChar: iota
Encoding: 953 953 375
Width: 346
Flags: MW
LayerCount: 2
Fore
SplineSet
137 131 m 0
 137 124 142 117 150 117 c 2
 155 117 l 2
 165 118 187 126 223 142 c 1
 239 15 l 1
 183 -5 138 -16 106 -16 c 0
 55 -16 -12 4 -12 86 c 0
 -12 103 -10 123 -4 145 c 0
 101 545 l 1
 242 545 l 1
 141 162 l 2
 138 146 137 147 137 143 c 0
 137 141 137 134 137 131 c 0
EndSplineSet
Validated: 1
EndChar

StartChar: kappa
Encoding: 954 954 376
Width: 576
Flags: MW
LayerCount: 2
Fore
SplineSet
470 -14 m 1
 303 -14 l 1
 204 233 l 1
 165 203 l 1
 110 -14 l 1
 -27 -14 l 1
 113 543 l 1
 250 543 l 1
 207 372 l 1
 420 543 l 1
 604 543 l 1
 326 327 l 1
 470 -14 l 1
EndSplineSet
Validated: 1
EndChar

StartChar: lambda
Encoding: 955 955 377
Width: 620
Flags: MW
LayerCount: 2
Fore
SplineSet
437 119 m 0
 451 119 467 128 494 139 c 1
 498 29 l 1
 445 6 404 -5 377 -5 c 0
 302 -5 305 43 296 82 c 2
 267 302 l 1
 265 313 264 324 263 335 c 1
 46 6 l 1
 -106 6 l 1
 241 512 l 1
 240 524 l 2
 237 591 219 605 184 605 c 0
 155 605 140 598 97 594 c 1
 146 714 l 1
 183 726 211 732 230 732 c 0
 352 732 362 641 376 529 c 2
 426 148 l 1
 433 123 l 2
 434 121 436 119 437 119 c 0
EndSplineSet
Validated: 1
EndChar

StartChar: uni03BC
Encoding: 956 956 378
Width: 667
Flags: HMW
LayerCount: 2
Fore
SplineSet
523 118 m 1
 542 109 l 1
 558 33 l 1
 536 21 499 -2 464 -2 c 0
 417 -2 393 18 387 43 c 1
 349 9 296 -12 246 -12 c 0
 188 -12 165 8 149 19 c 1
 94 -194 l 1
 -44 -194 l 1
 147 543 l 1
 285 543 l 1
 202 221 l 2
 199 210 198 199 198 189 c 0
 198 158 215 107 280 107 c 0
 344 107 373 149 389 170 c 0
 392 173 393 175 393 176 c 1
 402 191 405 201 410 221 c 2
 493 543 l 1
 629 543 l 1
 532 167 l 2
 525.712 142.896 523 127.8 523 118 c 1
EndSplineSet
Validated: 1
EndChar

StartChar: nu
Encoding: 957 957 379
Width: 564
Flags: MW
LayerCount: 2
Fore
SplineSet
450 542 m 1
 594 542 l 1
 238 -9 l 1
 122 -9 l 1
 48 542 l 1
 194 542 l 1
 235 205 l 1
 450 542 235 205 450 542 c 1
EndSplineSet
Validated: 1
EndChar

StartChar: xi
Encoding: 958 958 380
Width: 530
Flags: MW
LayerCount: 2
Fore
SplineSet
222 100 m 0
 358 100 398 85 398 12 c 0
 398 -33 375 -95 296 -212 c 1
 188 -168 l 1
 205 -141 264 -49 264 -28 c 0
 264 -19 251 -17 199 -17 c 2
 180 -17 l 2
 0 -17 -34 68 -34 130 c 0
 -34 277 86 348 139 374 c 1
 113 391 96 427 96 463 c 0
 96 552 147 590 164 612 c 1
 104 612 l 1
 134 728 l 1
 556 728 l 1
 526 612 l 1
 335 612 l 2
 286 612 225 538 225 490 c 0
 225 462 243 424 345 424 c 2
 452 424 l 1
 424 313 l 1
 289 313 l 2
 146 313 107 208 107 176 c 0
 107 129 158 100 222 100 c 0
EndSplineSet
Validated: 1
EndChar

StartChar: omicron
Encoding: 959 959 381
Width: 610
Flags: MW
LayerCount: 2
Fore
SplineSet
564 370 m 0
 564 275 488 -10 198 -10 c 0
 105 -10 -14 28 -14 178 c 0
 -14 258 45 552 349 552 c 0
 443 552 564 516 564 370 c 0
230 108 m 0
 386 108 415 299 415 343 c 0
 413 384 396 436 318 436 c 0
 171 436 133 256 133 203 c 0
 133 164 148 108 230 108 c 0
EndSplineSet
Validated: 1
EndChar

StartChar: pi
Encoding: 960 960 382
Width: 721
Flags: HMW
LayerCount: 2
Fore
SplineSet
472 -29 m 0
 405 -29 382 0 382 47 c 0
 382 66 385 88 392 114 c 2
 470 425 l 1
 284 425 l 1
 172 -24 l 1
 27 -28 l 1
 141 425 l 1
 71 425 l 1
 100 545 l 1
 702 545 l 1
 672 425 l 1
 608 425 l 1
 531 116 l 2
 525.621 90.8986 524.875 89.125 523.125 82.75 c 1
 541.75 94.3789 563.331 107.425 582 119 c 1
 583 -1 l 1
 519 -22 496 -29 472 -29 c 0
EndSplineSet
Validated: 1
EndChar

StartChar: rho
Encoding: 961 961 383
Width: 626
Flags: MW
LayerCount: 2
Fore
SplineSet
395 557 m 0
 562 557 604 443 604 362 c 0
 604 248 549 113 463 44 c 0
 405 -5 329 -35 247 -35 c 0
 176 -35 146 -10 129 2 c 1
 73 -225 l 1
 -65 -225 l 1
 58 270 l 2
 111 483 267 557 395 557 c 0
278 89 m 0
 424 89 461 280 461 331 c 0
 461 414 404 435 364 435 c 0
 220 435 184 247 184 189 c 0
 184 109 237 89 278 89 c 0
EndSplineSet
Validated: 1
EndChar

StartChar: sigma1
Encoding: 962 962 384
Width: 595
Flags: MW
LayerCount: 2
Fore
SplineSet
375 561 m 0
 460 561 570 527 570 390 c 0
 570 363 566 332 558 299 c 1
 417 299 l 1
 423 323 426 344 426 361 c 0
 426 399 408 433 335 433 c 0
 198 433 161 271 161 225 c 0
 161 164 215 121 302 117 c 0
 442 105 481 78 481 14 c 0
 481 -32 457 -76 447 -93 c 2
 371 -214 l 1
 243 -165 l 1
 272 -124 300 -80 327 -34 c 1
 327 -31 321 -30 310 -30 c 0
 172 -15 154 -25 77 42 c 0
 26 86 12 162 12 197 c 0
 12 259 45 447 226 528 c 0
 273 550 323 561 375 561 c 0
EndSplineSet
Validated: 1
EndChar

StartChar: sigma
Encoding: 963 963 385
Width: 676
Flags: MW
LayerCount: 2
Fore
SplineSet
-4 161 m 0
 -4 242 53 555 349 555 c 0
 368 555 385 551 400 551 c 0
 687 551 l 1
 654 419 l 1
 540 419 l 1
 549 394 553 367 553 338 c 0
 553 256 481 -37 202 -37 c 0
 112 -37 -4 3 -4 161 c 0
233 87 m 0
 385 87 413 288 413 335 c 0
 411 378 394 433 319 433 c 0
 176 433 139 243 139 187 c 0
 139 102 195 87 233 87 c 0
EndSplineSet
Validated: 1
EndChar

StartChar: tau
Encoding: 964 964 386
Width: 592
Flags: MW
LayerCount: 2
Fore
SplineSet
257 -29 m 0
 157 -29 139 23 139 62 c 0
 139 94 148 125 153 144 c 2
 223 425 l 1
 59 425 l 1
 88 543 l 1
 590 543 l 1
 561 425 l 1
 361 425 l 1
 293 152 l 2
 288 131 285 118 285 114 c 1
 288 106 293 105 306 105 c 0
 309 105 312 105 314 106 c 0
 319 106 334 109 361 115 c 1
 359 -13 l 1
 288 -28 279 -29 257 -29 c 0
EndSplineSet
Validated: 1
EndChar

StartChar: upsilon
Encoding: 965 965 387
Width: 575
Flags: MW
LayerCount: 2
Fore
SplineSet
132 139 m 0
 135 90 185 87 219 87 c 0
 329 87 339 152 360 232 c 2
 437 543 l 1
 575 543 l 1
 489 198 l 2
 450 39 370 -39 189 -39 c 0
 122 -39 77 -31 52 -15 c 0
 16 11 -14 29 -14 97 c 2
 -14 102 l 2
 -14 125 -9 157 1 198 c 2
 87 543 l 1
 225 543 l 1
 148 232 l 2
 138 191 133 160 132 139 c 0
EndSplineSet
Validated: 1
EndChar

StartChar: phi
Encoding: 966 966 388
Width: 801
Flags: MW
LayerCount: 2
Fore
SplineSet
429 96 m 1
 471 96 616 139 616 298 c 0
 616 385 550 407 506 407 c 1
 429 96 l 1
262 -35 m 1
 167 -35 34 7 34 174 c 0
 34 254 73 421 272 528 c 1
 326 424 l 1
 241 373 173 300 173 217 c 0
 173 146 220 96 297 96 c 1
 409 547 l 1
 517 547 l 2
 707 547 754 418 754 327 c 0
 754 178 625 -35 404 -35 c 2
 397 -35 l 1
 350 -225 l 1
 212 -225 l 1
 259 -35 l 1
 262 -35 l 1
EndSplineSet
Validated: 1
EndChar

StartChar: chi
Encoding: 967 967 389
Width: 632
Flags: MW
LayerCount: 2
Fore
SplineSet
503 -217 m 1
 470 -230 443 -237 422 -237 c 2
 414 -237 l 2
 369 -237 325 -209 303 -134 c 2
 264 24 l 1
 35 -225 l 1
 -129 -225 l 1
 218 161 l 1
 138 408 l 2
 129 432 127 433 111 433 c 0
 100 430 82 429 58 429 c 1
 89 554 l 1
 123 559 141 561 144 561 c 0
 161 562 171 563 172 563 c 0
 250 563 267 510 273 491 c 2
 333 287 l 1
 534 543 l 1
 687 543 l 1
 383 160 l 1
 448 -79 l 2
 456 -100 458 -102 473 -102 c 0
 476 -102 481 -101 486 -100 c 0
 490 -100 507 -95 536 -84 c 1
 503 -217 l 1
EndSplineSet
Validated: 1
EndChar

StartChar: psi
Encoding: 968 968 390
Width: 722
Flags: MW
LayerCount: 2
Fore
SplineSet
217 -26 m 1
 138 -23 20 7 20 140 c 0
 20 163 23 187 30 214 c 0
 112 543 l 1
 252 543 l 1
 177 242 l 2
 170 214 167 190 167 171 c 0
 167 113 209 102 247 98 c 1
 354 525 l 1
 490 525 l 1
 383 98 l 1
 416 101 494 108 525 242 c 2
 600 543 l 1
 740 543 l 1
 658 214 l 2
 631 106 548 -18 353 -26 c 1
 303 -225 l 1
 167 -225 l 1
 217 -26 l 1
EndSplineSet
Validated: 1
EndChar

StartChar: omega
Encoding: 969 969 391
Width: 800
Flags: HMW
LayerCount: 2
Fore
SplineSet
670 555 m 1
 697.686 526.056 736 464.393 736 341 c 0
 736 160.613 616 -34 441 -34 c 0
 415 -34 345 -29 313 34 c 1
 267 -12 212 -34 153 -34 c 0
 77.1424 -34 -7 1.4 -7 143 c 0
 -7 325 138 504 217 554 c 1
 336 513 l 1
 224 417 129 304 129 163 c 0
 129 118 140 88 185 88 c 1
 216 88 263.529 103.118 276 153 c 2
 338 401 l 1
 472 401 l 1
 410 153 l 2
 409 148 408 140.938 408 137 c 0
 408 96 444 88 468 88 c 0
 573 88 598 267 600 317 c 0
 600 400 575 445 531 512 c 1
 670 555 l 1
EndSplineSet
Validated: 3073
EndChar

StartChar: afii10051
Encoding: 1026 1026 399
Width: 790
Flags: HMW
LayerCount: 2
Fore
SplineSet
587 504 m 2
 697 504 770 439 770 356 c 0
 770 341 768 329 767 323 c 2
 698 0 l 1
 680 -54 670.262 -120.147 582.417 -146.667 c 0
 529.417 -162.667 498.75 -165 448.75 -165 c 0
 373 -165 l 1
 393 -70 l 1
 453 -70 l 1
 502 -69 537 -52 548 0 c 0
 615 317 l 2
 616 322 617 327 617 332 c 0
 617 355 602 370 573 376 c 1
 549 379 l 1
 374 379 l 1
 293 0 l 1
 142 0 l 1
 271 605 l 1
 83 605 l 1
 109 729 l 1
 631 729 l 1
 605 605 l 1
 421 605 l 1
 399 504 l 1
 587 504 l 2
EndSplineSet
Validated: 1
EndChar

StartChar: afii10053
Encoding: 1028 1028 401
Width: 722
Flags: MW
LayerCount: 2
Fore
SplineSet
565 482 m 1
 563 550 543 613 437 613 c 0
 340 613 257 548 213 436 c 1
 504 436 l 1
 478 311 l 1
 186 311 l 1
 184 295 183 279 183 264 c 0
 183 161 232 103 324 103 c 0
 417 103 487 156 516 249 c 1
 662 249 l 1
 617 82 474 -23 293 -23 c 0
 126 -23 31 77 31 243 c 0
 31 279 35 317 44 358 c 0
 94 594 253 741 459 741 c 0
 610 741 712 659 712 535 c 0
 712 519 711 502 708 482 c 1
 565 482 l 1
EndSplineSet
Validated: 1
EndChar

StartChar: afii10056
Encoding: 1031 1031 404
Width: 278
Flags: MW
LayerCount: 2
Fore
SplineSet
368 729 m 1
 213 0 l 1
 63 0 l 1
 218 729 l 1
 368 729 l 1
297 920 m 1
 271 800 l 1
 161 800 l 1
 187 920 l 1
 297 920 l 1
483 920 m 1
 457 800 l 1
 347 800 l 1
 373 920 l 1
 483 920 l 1
EndSplineSet
Validated: 1
EndChar

StartChar: afii10058
Encoding: 1033 1033 406
Width: 1110
Flags: HMW
LayerCount: 2
Fore
SplineSet
859 435 m 2
 1000 435 1035 339 1035 262 c 0
 1035 52 872 0 752 0 c 2
 430 0 l 1
 558 604 l 1
 336 604 l 1
 296 414 l 2
 257 235 177 0 -31 0 c 1
 -1 145 l 1
 93.2 145 136.828 374.728 156 461 c 2
 212 729 l 1
 734 729 l 1
 672 435 l 1
 859 435 l 2
766 125 m 2
 813 125 883 134 883 234 c 0
 883 280 855 310 801 310 c 2
 645 310 l 1
 606 125 l 1
 766 125 l 2
EndSplineSet
Validated: 1
EndChar

StartChar: afii10059
Encoding: 1034 1034 407
Width: 1088
Flags: MW
LayerCount: 2
Fore
SplineSet
1043 294 m 0
 1043 119 926 0 752 0 c 2
 430 0 l 1
 496 311 l 1
 207 311 l 1
 141 0 l 1
 -9 0 l 1
 145 729 l 1
 295 729 l 1
 233 436 l 1
 521 436 l 1
 583 729 l 1
 734 729 l 1
 679 469 l 1
 866 469 l 2
 978 469 1043 403 1043 294 c 0
746 125 m 2
 861 125 890 209 890 270 c 0
 890 320 859 344 793 344 c 2
 653 344 l 1
 606 125 l 1
 746 125 l 2
EndSplineSet
Validated: 1
EndChar

StartChar: afii10060
Encoding: 1035 1035 408
Width: 790
Flags: MW
LayerCount: 2
Fore
SplineSet
570 504 m 2
 680 504 753 439 753 356 c 0
 753 341 751 329 749 323 c 2
 681 0 l 1
 531 0 l 1
 598 317 l 2
 599 322 600 327 600 332 c 0
 600 355 585 370 555 376 c 1
 531 379 l 1
 356 379 l 1
 276 0 l 1
 125 0 l 1
 253 605 l 1
 65 605 l 1
 91 729 l 1
 613 729 l 1
 587 605 l 1
 403 605 l 1
 382 504 l 1
 570 504 l 2
EndSplineSet
Validated: 1
EndChar

StartChar: afii10145
Encoding: 1039 1039 412
Width: 722
Flags: MW
LayerCount: 2
Fore
SplineSet
245 125 m 1
 534 125 l 1
 662 729 l 1
 812 729 l 1
 657 0 l 1
 68 0 l 1
 223 729 l 1
 373 729 l 1
 245 125 l 1
EndSplineSet
Validated: 1
EndChar

StartChar: afii10018
Encoding: 1041 1041 414
Width: 722
Flags: MW
LayerCount: 2
Fore
SplineSet
488 439 m 2
 674 439 715 330 715 252 c 0
 715 175 666 96 605 53 c 0
 553 16 494 0 410 0 c 2
 82 0 l 1
 237 729 l 1
 749 729 l 1
 722 604 l 1
 360 604 l 1
 325 439 l 1
 488 439 l 2
438 125 m 2
 546 125 572 198 572 245 c 0
 572 290 540 314 478 314 c 2
 299 314 l 1
 259 125 l 1
 438 125 l 2
EndSplineSet
Validated: 1
EndChar

StartChar: afii10020
Encoding: 1043 1043 416
Width: 611
Flags: MW
LayerCount: 2
Fore
SplineSet
224 0 m 1
 74 0 l 1
 229 729 l 1
 741 729 l 1
 714 604 l 1
 352 604 l 1
 224 0 l 1
EndSplineSet
Validated: 1
EndChar

StartChar: afii10021
Encoding: 1044 1044 417
Width: 918
Flags: HMW
LayerCount: 2
Fore
SplineSet
106 108 m 2
 159 108 229 255 272 461 c 1
 329 729 l 1
 851 729 l 1
 719 108 l 1
 834 108 l 1
 780 -150 l 1
 650 -150 l 1
 681 0 l 1
 111 0 l 1
 80 -150 l 1
 -50 -150 l 1
 4 108 l 1
 106 108 l 2
304 125 m 1
 573 125 l 1
 675 604 l 1
 453 604 l 1
 412 414 l 0
 392 319 362 209 304 125 c 1
EndSplineSet
Validated: 1
EndChar

StartChar: afii10024
Encoding: 1046 1046 419
Width: 1054
Flags: MW
LayerCount: 2
Fore
SplineSet
536 285 m 1
 201 0 l 1
 22 0 l 1
 459 378 l 1
 221 729 l 1
 385 729 l 1
 571 450 l 1
 630 729 l 1
 780 729 l 1
 721 450 l 1
 1025 729 l 1
 1189 729 l 1
 801 378 l 1
 1078 0 l 1
 899 0 l 1
 686 285 l 1
 625 0 l 1
 475 0 l 1
 536 285 l 1
EndSplineSet
Validated: 1
EndChar

StartChar: afii10025
Encoding: 1047 1047 420
Width: 659
Flags: MW
LayerCount: 2
Fore
SplineSet
356 97 m 0
 427 97 526 122 526 223 c 0
 526 270 496 308 411 308 c 2
 309 308 l 1
 334 428 l 1
 410 428 l 2
 540 428 572 504 572 549 c 0
 572 593 531 621 463 621 c 0
 368 621 307 581 286 507 c 1
 146 507 l 1
 159 569 213 741 482 741 c 0
 633 741 716 680 716 571 c 0
 716 495 683 419 617 377 c 1
 658 352 677 317 677 268 c 0
 677 99 539 -23 322 -23 c 0
 156 -23 67 45 67 170 c 0
 67 185 68 201 71 218 c 1
 217 218 l 1
 216 211 215 204 215 197 c 0
 215 132 264 97 356 97 c 0
EndSplineSet
Validated: 1
EndChar

StartChar: afii10026
Encoding: 1048 1048 421
Width: 722
Flags: MW
LayerCount: 2
Fore
SplineSet
218 0 m 1
 68 0 l 1
 223 729 l 1
 373 729 l 1
 268 233 l 1
 662 729 l 1
 816 729 l 1
 661 0 l 1
 511 0 l 1
 618 504 l 1
 218 0 l 1
EndSplineSet
Validated: 1
EndChar

StartChar: afii10029
Encoding: 1051 1051 424
Width: 722
Flags: HMW
LayerCount: 2
Fore
SplineSet
558 604 m 1
 336 604 l 1
 296 414 l 1
 258 237 181 0 -31 0 c 1
 -1 145 l 1
 71.2941 145 113.326 257.556 156 461 c 2
 212 729 l 1
 734 729 l 1
 580 0 l 1
 430 0 l 1
 558 604 l 1
EndSplineSet
Validated: 1
EndChar

StartChar: afii10031
Encoding: 1053 1053 426
Width: 722
Flags: MW
LayerCount: 2
Fore
SplineSet
573 311 m 1
 284 311 l 1
 218 0 l 1
 68 0 l 1
 223 729 l 1
 373 729 l 1
 311 436 l 1
 599 436 l 1
 661 729 l 1
 812 729 l 1
 657 0 l 1
 507 0 l 1
 573 311 l 1
EndSplineSet
Validated: 1
EndChar

StartChar: afii10033
Encoding: 1055 1055 428
Width: 722
Flags: MW
LayerCount: 2
Fore
SplineSet
635 604 m 1
 346 604 l 1
 218 0 l 1
 68 0 l 1
 223 729 l 1
 812 729 l 1
 657 0 l 1
 507 0 l 1
 635 604 l 1
EndSplineSet
Validated: 1
EndChar

StartChar: afii10037
Encoding: 1059 1059 432
Width: 698
Flags: MW
LayerCount: 2
Fore
SplineSet
310 0 m 1
 136 0 l 1
 298 226 l 1
 152 729 l 1
 315 729 l 1
 414 384 l 1
 659 729 l 1
 833 729 l 1
 310 0 l 1
EndSplineSet
Validated: 1
EndChar

StartChar: afii10038
Encoding: 1060 1060 433
Width: 902
Flags: MW
LayerCount: 2
Fore
SplineSet
873 450 m 0
 873 321 805 94 498 94 c 0
 484 94 472 94 464 94 c 1
 444 0 l 1
 294 0 l 1
 314 94 l 1
 306 94 294 94 280 94 c 0
 194 94 23 107 23 292 c 0
 23 422 79 638 401 638 c 0
 411 638 421 638 429 638 c 1
 449 729 l 1
 599 729 l 1
 579 638 l 1
 587 638 597 638 607 638 c 0
 700 638 873 629 873 450 c 0
392 540 m 0
 191 540 158 396 158 307 c 0
 158 197 241 188 301 188 c 0
 313 188 325 188 334 188 c 1
 408 540 l 1
 403 540 398 540 392 540 c 0
517 188 m 0
 691 188 735 332 735 422 c 0
 735 535 631 540 574 540 c 0
 568 540 563 540 558 540 c 1
 484 188 l 1
 493 188 505 188 517 188 c 0
EndSplineSet
Validated: 1
EndChar

StartChar: afii10039
Encoding: 1061 1061 434
Width: 664
Flags: MW
LayerCount: 2
Fore
SplineSet
498 372 m 1
 653 0 l 1
 475 0 l 1
 389 253 l 1
 196 0 l 1
 22 0 l 1
 330 367 l 1
 185 729 l 1
 363 729 l 1
 440 489 l 1
 625 729 l 1
 799 729 l 1
 498 372 l 1
EndSplineSet
Validated: 1
EndChar

StartChar: afii10040
Encoding: 1062 1062 435
Width: 730
Flags: MW
LayerCount: 2
Fore
SplineSet
534 125 m 1
 662 729 l 1
 812 729 l 1
 680 108 l 1
 820 108 l 1
 765 -150 l 1
 635 -150 l 1
 667 0 l 1
 68 0 l 1
 223 729 l 1
 373 729 l 1
 245 125 l 1
 534 125 l 1
EndSplineSet
Validated: 1
EndChar

StartChar: afii10041
Encoding: 1063 1063 436
Width: 671
Flags: MW
LayerCount: 2
Fore
SplineSet
514 274 m 1
 268 274 l 2
 198 275 141 313 141 371 c 0
 141 378 141 385 143 392 c 2
 215 729 l 1
 365 729 l 1
 295 399 l 1
 540 399 l 1
 610 729 l 1
 761 729 l 1
 606 0 l 1
 456 0 l 1
 514 274 l 1
EndSplineSet
Validated: 1
EndChar

StartChar: afii10042
Encoding: 1064 1064 437
Width: 1101
Flags: MW
LayerCount: 2
Fore
SplineSet
1036 0 m 1
 68 0 l 1
 223 729 l 1
 373 729 l 1
 245 125 l 1
 504 125 l 1
 632 729 l 1
 782 729 l 1
 654 125 l 1
 913 125 l 1
 1041 729 l 1
 1191 729 l 1
 1036 0 l 1
EndSplineSet
Validated: 1
EndChar

StartChar: afii10043
Encoding: 1065 1065 438
Width: 1179
Flags: MW
LayerCount: 2
Fore
SplineSet
1046 0 m 1
 68 0 l 1
 223 729 l 1
 373 729 l 1
 245 125 l 1
 504 125 l 1
 632 729 l 1
 782 729 l 1
 654 125 l 1
 913 125 l 1
 1041 729 l 1
 1191 729 l 1
 1059 108 l 1
 1199 108 l 1
 1144 -150 l 1
 1014 -150 l 1
 1046 0 l 1
EndSplineSet
Validated: 1
EndChar

StartChar: afii10044
Encoding: 1066 1066 439
Width: 816
Flags: MW
LayerCount: 2
Fore
SplineSet
856 296 m 0
 856 120 740 0 565 0 c 2
 243 0 l 1
 372 604 l 1
 142 605 l 1
 168 729 l 1
 548 729 l 1
 493 469 l 1
 680 469 l 2
 792 469 856 403 856 296 c 0
560 125 m 2
 675 125 704 210 704 270 c 0
 704 320 672 344 606 344 c 2
 466 344 l 1
 420 125 l 1
 560 125 l 2
EndSplineSet
Validated: 1
EndChar

StartChar: afii10045
Encoding: 1067 1067 440
Width: 939
Flags: MW
LayerCount: 2
Fore
SplineSet
1037 729 m 1
 882 0 l 1
 732 0 l 1
 887 729 l 1
 1037 729 l 1
679 296 m 0
 679 120 563 0 388 0 c 2
 66 0 l 1
 221 729 l 1
 371 729 l 1
 316 469 l 1
 503 469 l 2
 615 469 679 403 679 296 c 0
383 125 m 2
 498 125 527 210 527 270 c 0
 527 320 495 344 429 344 c 2
 289 344 l 1
 243 125 l 1
 383 125 l 2
EndSplineSet
Validated: 1
EndChar

StartChar: afii10046
Encoding: 1068 1068 441
Width: 639
Flags: MW
LayerCount: 2
Fore
SplineSet
679 296 m 0
 679 120 563 0 388 0 c 2
 66 0 l 1
 221 729 l 1
 371 729 l 1
 316 469 l 1
 503 469 l 2
 615 469 679 403 679 296 c 0
383 125 m 2
 498 125 527 210 527 270 c 0
 527 320 495 344 429 344 c 2
 289 344 l 1
 243 125 l 1
 383 125 l 2
EndSplineSet
Validated: 1
EndChar

StartChar: afii10047
Encoding: 1069 1069 442
Width: 737
Flags: MW
LayerCount: 2
Fore
SplineSet
162 482 m 1
 204 621 326 741 521 741 c 0
 691 741 787 641 787 473 c 0
 787 437 783 399 774 358 c 0
 724 124 566 -23 363 -23 c 0
 202 -23 106 60 106 197 c 0
 106 213 107 231 110 249 c 1
 256 249 l 1
 255 240 254 232 254 224 c 0
 254 146 302 103 386 103 c 0
 490 103 572 179 612 311 c 1
 320 311 l 1
 347 436 l 1
 638 436 l 1
 638 445 l 0
 638 551 583 613 489 613 c 0
 411 613 349 578 305 482 c 1
 162 482 l 1
EndSplineSet
Validated: 1
EndChar

StartChar: afii10048
Encoding: 1070 1070 443
Width: 1080
Flags: MW
LayerCount: 2
Fore
SplineSet
736 -23 m 0
 512 -23 456 137 456 258 c 0
 456 275 457 293 459 311 c 1
 283 311 l 1
 216 0 l 1
 66 0 l 1
 221 729 l 1
 371 729 l 1
 309 436 l 1
 488 436 l 1
 520 521 636 741 897 741 c 0
 1122 741 1178 584 1178 457 c 0
 1178 301 1098 158 1006 78 c 0
 929 10 840 -23 736 -23 c 0
871 613 m 0
 660 613 607 358 607 280 c 0
 607 172 664 105 763 105 c 0
 883 105 985 206 1017 355 c 0
 1024 385 1027 413 1027 439 c 0
 1027 548 970 613 871 613 c 0
EndSplineSet
Validated: 1
EndChar

StartChar: afii10049
Encoding: 1071 1071 444
Width: 690
Flags: MW
LayerCount: 2
Fore
SplineSet
175 435 m 0
 175 608 289 729 466 729 c 2
 788 729 l 1
 633 0 l 1
 483 0 l 1
 538 260 l 1
 505 260 l 1
 201 0 l 1
 22 0 l 1
 323 261 l 1
 231 270 175 334 175 435 c 0
471 604 m 2
 356 604 327 519 327 459 c 0
 327 409 359 385 425 385 c 2
 565 385 l 1
 611 604 l 1
 471 604 l 2
EndSplineSet
Validated: 1
EndChar

StartChar: afii10066
Encoding: 1073 1073 446
Width: 611
Flags: MW
LayerCount: 2
Fore
SplineSet
609 342 m 0
 609 264 560 -23 280 -23 c 0
 152 -23 76 23 76 162 c 0
 76 199 81 242 92 292 c 0
 121 428 176 603 321 684 c 0
 372 712 453 716 520 724 c 0
 568 730 583 776 583 776 c 1
 687 777 l 1
 678 736 668 690 630 666 c 0
 534 606 463 655 369 592 c 0
 316 557 269 470 269 470 c 1
 314 524 367 549 434 549 c 0
 508 549 609 508 609 342 c 0
307 94 m 0
 432 94 467 269 467 319 c 0
 467 388 434 432 379 432 c 0
 252 432 218 256 218 206 c 0
 218 137 251 94 307 94 c 0
EndSplineSet
Validated: 1
EndChar

StartChar: afii10067
Encoding: 1074 1074 447
Width: 621
Flags: MW
LayerCount: 2
Fore
SplineSet
576 182 m 0
 576 83 488 0 351 0 c 2
 60 0 l 1
 175 540 l 1
 463 540 l 2
 589 540 612 470 612 423 c 0
 612 341 540 302 512 286 c 1
 555 257 576 223 576 182 c 0
387 333 m 2
 437 333 473 342 473 395 c 0
 473 423 451 430 407 430 c 2
 291 430 l 1
 271 333 l 1
 387 333 l 2
345 110 m 2
 397 110 439 128 439 188 c 0
 439 218 415 223 369 223 c 2
 247 223 l 1
 223 110 l 1
 345 110 l 2
EndSplineSet
Validated: 1
EndChar

StartChar: afii10068
Encoding: 1075 1075 448
Width: 475
Flags: MW
LayerCount: 2
Fore
SplineSet
523 540 m 1
 499 427 l 1
 291 427 l 1
 200 0 l 1
 60 0 l 1
 175 540 l 1
 523 540 l 1
EndSplineSet
Validated: 1
EndChar

StartChar: afii10069
Encoding: 1076 1076 449
Width: 804
Flags: MW
LayerCount: 2
Fore
SplineSet
638 101 m 1
 730 101 l 1
 682 -125 l 1
 572 -125 l 1
 599 0 l 1
 115 0 l 1
 88 -125 l 1
 -22 -125 l 1
 26 101 l 1
 122 101 l 2
 176 102 230 252 260 388 c 0
 293 540 l 1
 732 540 l 1
 638 101 l 1
303 113 m 1
 501 113 l 1
 568 427 l 1
 409 427 l 1
 398 376 l 2
 373 259 343 174 303 113 c 1
EndSplineSet
Validated: 1
EndChar

StartChar: afii10072
Encoding: 1078 1078 451
Width: 775
Flags: MW
LayerCount: 2
Fore
SplineSet
374 198 m 1
 195 0 l 1
 16 0 l 1
 292 296 l 1
 167 540 l 1
 315 540 l 1
 407 351 l 1
 447 540 l 1
 587 540 l 1
 547 351 l 1
 719 540 l 1
 867 540 l 1
 638 296 l 1
 788 0 l 1
 609 0 l 1
 514 198 l 1
 472 0 l 1
 332 0 l 1
 374 198 l 1
EndSplineSet
Validated: 1
EndChar

StartChar: afii10073
Encoding: 1079 1079 452
Width: 556
Flags: MW
LayerCount: 2
Fore
SplineSet
292 87 m 0
 381 87 410 120 410 163 c 0
 410 185 399 208 339 208 c 2
 247 208 l 1
 271 318 l 1
 365 318 l 2
 432 318 446 371 446 397 c 0
 446 422 419 439 374 439 c 0
 307 439 269 415 258 366 c 1
 123 366 l 1
 149 480 252 549 397 549 c 0
 517 549 585 496 585 409 c 0
 585 354 561 298 516 271 c 1
 542 252 555 229 555 196 c 0
 555 73 443 -23 276 -23 c 0
 131 -23 56 26 56 119 c 0
 56 131 57 143 60 157 c 1
 197 157 l 1
 197 154 197 152 197 149 c 0
 197 112 216 87 292 87 c 0
EndSplineSet
Validated: 1
EndChar

StartChar: afii10074
Encoding: 1080 1080 453
Width: 636
Flags: MW
LayerCount: 2
Fore
SplineSet
175 540 m 1
 315 540 l 1
 242 197 l 1
 503 540 l 1
 658 540 l 1
 543 0 l 1
 403 0 l 1
 476 343 l 1
 215 0 l 1
 60 0 l 1
 175 540 l 1
EndSplineSet
Validated: 1
EndChar

StartChar: afii10076
Encoding: 1082 1082 455
Width: 529
Flags: MW
LayerCount: 2
Fore
SplineSet
274 351 m 1
 476 540 l 1
 624 540 l 1
 358 296 l 1
 548 0 l 1
 366 0 l 1
 241 198 l 1
 199 0 l 1
 59 0 l 1
 174 540 l 1
 314 540 l 1
 274 351 l 1
EndSplineSet
Validated: 1
EndChar

StartChar: afii10077
Encoding: 1083 1083 456
Width: 608
Flags: MW
LayerCount: 2
Fore
SplineSet
161 540 m 1
 600 540 l 1
 486 0 l 1
 346 0 l 1
 436 427 l 1
 277 427 l 1
 267 376 l 1
 210 112 125 0 -28 0 c 1
 0 135 l 1
 74 136 100 252 129 388 c 2
 161 540 l 1
EndSplineSet
Validated: 1
EndChar

StartChar: afii10078
Encoding: 1084 1084 457
Width: 697
Flags: MW
LayerCount: 2
Fore
SplineSet
313 74 m 1
 255 257 l 1
 200 0 l 1
 60 0 l 1
 175 540 l 1
 315 540 l 1
 394 289 l 1
 579 540 l 1
 719 540 l 1
 604 0 l 1
 464 0 l 1
 519 257 l 1
 383 74 l 1
 313 74 l 1
EndSplineSet
Validated: 1
EndChar

StartChar: afii10079
Encoding: 1085 1085 458
Width: 636
Flags: MW
LayerCount: 2
Fore
SplineSet
175 540 m 1
 315 540 l 1
 275 352 l 1
 478 352 l 1
 518 540 l 1
 658 540 l 1
 543 0 l 1
 403 0 l 1
 456 237 l 1
 253 237 l 1
 200 0 l 1
 60 0 l 1
 175 540 l 1
EndSplineSet
Validated: 1
EndChar

StartChar: afii10081
Encoding: 1087 1087 460
Width: 636
Flags: MW
LayerCount: 2
Fore
SplineSet
175 540 m 1
 658 540 l 1
 543 0 l 1
 403 0 l 1
 494 427 l 1
 291 427 l 1
 200 0 l 1
 60 0 l 1
 175 540 l 1
EndSplineSet
Validated: 1
EndChar

StartChar: afii10084
Encoding: 1090 1090 463
Width: 454
Flags: MW
LayerCount: 2
Fore
SplineSet
535 540 m 1
 511 427 l 1
 376 427 l 1
 285 0 l 1
 145 0 l 1
 236 427 l 1
 101 427 l 1
 125 540 l 1
 535 540 l 1
EndSplineSet
Validated: 1
EndChar

StartChar: afii10085
Encoding: 1091 1091 464
Width: 552
Flags: HMW
LayerCount: 2
Fore
SplineSet
505 540 m 1
 649 540 l 1
 291 -99 l 2
 251 -169 212 -219 86 -219 c 0
 69 -219 57 -218 37 -215 c 1
 59 -110 l 1
 76 -115 84 -116 95 -116 c 0
 144 -116 190 -77 201 -26 c 1
 120 540 l 1
 274 540 l 1
 309 147 l 1
 505 540 l 1
EndSplineSet
Validated: 1
EndChar

StartChar: afii10086
Encoding: 1092 1092 465
Width: 989
Flags: MW
LayerCount: 2
Fore
SplineSet
982 346 m 0
 982 112 806 -24 686 -24 c 0
 618 -24 576 4 555 64 c 1
 495 -218 l 1
 355 -218 l 1
 415 64 l 1
 368 4 314 -24 246 -24 c 0
 139 -24 72 59 72 181 c 0
 72 243 95 372 182 464 c 0
 229 515 303 549 368 549 c 0
 436 549 478 520 499 460 c 1
 554 719 l 1
 694 719 l 1
 639 460 l 1
 686 520 740 549 808 549 c 0
 882 549 982 508 982 346 c 0
303 93 m 0
 430 93 463 269 463 319 c 0
 463 388 431 432 375 432 c 0
 249 432 215 255 215 205 c 0
 215 137 248 93 303 93 c 0
751 432 m 0
 624 432 591 254 591 205 c 0
 591 136 623 93 679 93 c 0
 748 93 812 162 833 260 c 0
 837 281 839 301 839 318 c 0
 839 388 808 432 751 432 c 0
EndSplineSet
Validated: 1
EndChar

StartChar: afii10087
Encoding: 1093 1093 466
Width: 554
Flags: MW
LayerCount: 2
Fore
SplineSet
413 272 m 1
 535 0 l 1
 367 0 l 1
 312 168 l 1
 184 0 l 1
 16 0 l 1
 254 272 l 1
 135 540 l 1
 303 540 l 1
 356 377 l 1
 478 540 l 1
 646 540 l 1
 413 272 l 1
EndSplineSet
Validated: 1
EndChar

StartChar: afii10088
Encoding: 1094 1094 467
Width: 690
Flags: MW
LayerCount: 2
Fore
SplineSet
60 0 m 1
 175 540 l 1
 315 540 l 1
 224 113 l 1
 427 113 l 1
 518 540 l 1
 658 540 l 1
 564 101 l 1
 684 101 l 1
 636 -125 l 1
 526 -125 l 1
 553 0 l 1
 60 0 l 1
EndSplineSet
Validated: 1
EndChar

StartChar: afii10089
Encoding: 1095 1095 468
Width: 606
Flags: MW
LayerCount: 2
Fore
SplineSet
170 540 m 1
 310 540 l 1
 254 278 l 1
 432 278 l 1
 488 540 l 1
 628 540 l 1
 513 0 l 1
 373 0 l 1
 408 165 l 1
 230 165 l 2
 168 165 112 181 112 248 c 0
 112 258 113 268 115 279 c 0
 170 540 l 1
EndSplineSet
Validated: 1
EndChar

StartChar: afii10090
Encoding: 1096 1096 469
Width: 934
Flags: MW
LayerCount: 2
Fore
SplineSet
841 0 m 1
 60 0 l 1
 175 540 l 1
 315 540 l 1
 224 113 l 1
 403 113 l 1
 494 540 l 1
 634 540 l 1
 543 113 l 1
 725 113 l 1
 816 540 l 1
 956 540 l 1
 841 0 l 1
EndSplineSet
Validated: 1
EndChar

StartChar: afii10091
Encoding: 1097 1097 470
Width: 987
Flags: MW
LayerCount: 2
Fore
SplineSet
851 0 m 1
 60 0 l 1
 174 540 l 1
 314 540 l 1
 224 113 l 1
 403 113 l 1
 493 540 l 1
 633 540 l 1
 543 113 l 1
 725 113 l 1
 815 540 l 1
 955 540 l 1
 862 101 l 1
 982 101 l 1
 934 -125 l 1
 824 -125 l 1
 851 0 l 1
EndSplineSet
Validated: 1
EndChar

StartChar: afii10092
Encoding: 1098 1098 471
Width: 741
Flags: MW
LayerCount: 2
Fore
SplineSet
699 202 m 0
 699 126 653 0 472 0 c 2
 181 0 l 1
 271 427 l 1
 100 427 l 1
 124 540 l 1
 435 540 l 1
 391 333 l 1
 507 333 l 2
 633 333 699 288 699 202 c 0
457 110 m 2
 544 110 560 154 560 184 c 0
 560 217 529 223 481 223 c 2
 368 223 l 1
 344 110 l 1
 457 110 l 2
EndSplineSet
Validated: 1
EndChar

StartChar: afii10093
Encoding: 1099 1099 472
Width: 839
Flags: MW
LayerCount: 2
Fore
SplineSet
861 540 m 1
 746 0 l 1
 606 0 l 1
 721 540 l 1
 861 540 l 1
577 196 m 0
 577 125 532 0 351 0 c 2
 60 0 l 1
 175 540 l 1
 315 540 l 1
 271 333 l 1
 387 333 l 2
 515 333 577 283 577 196 c 0
346 110 m 2
 401 110 439 129 439 188 c 0
 439 218 416 223 370 223 c 2
 248 223 l 1
 224 110 l 1
 346 110 l 2
EndSplineSet
Validated: 1
EndChar

StartChar: afii10094
Encoding: 1100 1100 473
Width: 619
Flags: MW
LayerCount: 2
Fore
SplineSet
577 196 m 0
 577 78 487 0 351 0 c 2
 60 0 l 1
 175 540 l 1
 315 540 l 1
 271 333 l 1
 387 333 l 2
 515 333 577 283 577 196 c 0
345 110 m 2
 401 110 439 130 439 188 c 0
 439 218 415 223 369 223 c 2
 247 223 l 1
 223 110 l 1
 345 110 l 2
EndSplineSet
Validated: 1
EndChar

StartChar: afii10095
Encoding: 1101 1101 474
Width: 575
Flags: MW
LayerCount: 2
Fore
SplineSet
597 351 m 0
 597 151 473 -23 274 -23 c 0
 154 -23 82 45 82 155 c 0
 82 165 83 176 84 187 c 1
 218 187 l 1
 221 117 243 90 297 90 c 0
 356 90 405 133 433 207 c 1
 257 207 l 1
 281 320 l 1
 455 320 l 1
 455 324 455 329 455 333 c 0
 455 396 438 436 371 436 c 0
 314 436 281 409 250 338 c 1
 116 338 l 1
 154 470 259 549 394 549 c 0
 526 549 597 478 597 351 c 0
EndSplineSet
Validated: 1
EndChar

StartChar: afii10096
Encoding: 1102 1102 475
Width: 908
Flags: MW
LayerCount: 2
Fore
SplineSet
931 347 m 0
 931 156 804 -23 594 -23 c 0
 455 -23 379 53 379 181 c 0
 379 189 379 198 380 207 c 1
 244 207 l 1
 200 0 l 1
 60 0 l 1
 175 540 l 1
 315 540 l 1
 268 320 l 1
 404 320 l 1
 454 463 568 549 715 549 c 0
 855 549 931 476 931 347 c 0
618 90 m 0
 753 90 788 267 788 321 c 0
 788 392 753 436 692 436 c 0
 558 436 522 259 522 207 c 0
 522 135 557 90 618 90 c 0
EndSplineSet
Validated: 1
EndChar

StartChar: afii10097
Encoding: 1103 1103 476
Width: 636
Flags: MW
LayerCount: 2
Fore
SplineSet
140 344 m 0
 140 458 229 540 367 540 c 2
 658 540 l 1
 543 0 l 1
 403 0 l 1
 447 207 l 1
 403 207 l 1
 216 0 l 1
 37 0 l 1
 239 218 l 1
 174 237 140 284 140 344 c 0
373 430 m 2
 317 430 279 410 279 352 c 0
 279 322 303 317 349 317 c 2
 471 317 l 1
 495 430 l 1
 373 430 l 2
EndSplineSet
Validated: 1
EndChar

StartChar: afii10099
Encoding: 1106 1106 479
Width: 606
Flags: HMW
LayerCount: 2
Fore
SplineSet
371 421 m 0
 296 421 251 365 240 315 c 2
 173 0 l 1
 33 0 l 1
 153 567 l 1
 83 567 l 1
 106 671 l 1
 176 671 l 1
 188 729 l 1
 328 729 l 1
 316 671 l 1
 486 671 l 1
 463 567 l 1
 293 567 l 1
 269 453 l 1
 320 511 380 540 447 540 c 0
 508 540 590 514 590 412 c 0
 590 394 588 375 583 354 c 2
 537 132 l 2
 489 -48 258 -173 183 -173 c 0
 179 -173 175 -173 172 -172 c 1
 186 -110 l 1
 242 -108 359 -25 393 112 c 1
 436 321 l 2
 439 334 440 346 440 356 c 0
 440 411 399 421 371 421 c 0
EndSplineSet
Validated: 1
EndChar

StartChar: afii10101
Encoding: 1108 1108 481
Width: 556
Flags: MW
LayerCount: 2
Fore
SplineSet
23 172 m 0
 23 366 148 549 350 549 c 0
 471 549 541 485 541 377 c 0
 541 365 540 352 538 338 c 1
 404 338 l 1
 403 409 382 436 325 436 c 0
 245 436 212 376 191 320 c 1
 365 320 l 1
 341 207 l 1
 166 207 l 1
 166 195 l 0
 166 128 196 90 251 90 c 0
 305 90 339 117 372 187 c 1
 506 187 l 1
 465 58 357 -23 226 -23 c 0
 94 -23 23 47 23 172 c 0
EndSplineSet
Validated: 1
EndChar

StartChar: afii10104
Encoding: 1111 1111 484
Width: 278
Flags: MW
LayerCount: 2
Fore
SplineSet
322 540 m 1
 207 0 l 1
 67 0 l 1
 182 540 l 1
 322 540 l 1
256 741 m 1
 230 621 l 1
 120 621 l 1
 146 741 l 1
 256 741 l 1
442 741 m 1
 416 621 l 1
 306 621 l 1
 332 741 l 1
 442 741 l 1
EndSplineSet
Validated: 1
EndChar

StartChar: afii10106
Encoding: 1113 1113 486
Width: 900
Flags: MW
LayerCount: 2
Fore
SplineSet
661 319 m 2
 775 319 846 267 846 199 c 0
 846 89 765 0 629 0 c 2
 346 0 l 1
 436 427 l 1
 277 427 l 1
 267 376 l 2
 230 204 168 11 -12 0 c 2
 -28 0 l 1
 0 135 l 1
 75 136 104 269 129 388 c 2
 161 540 l 1
 600 540 l 1
 553 319 l 1
 661 319 l 2
717 173 m 0
 717 193 698 209 634 209 c 2
 530 209 l 1
 509 110 l 1
 618 110 l 2
 690 110 717 119 717 173 c 0
EndSplineSet
Validated: 1
EndChar

StartChar: afii10107
Encoding: 1114 1114 487
Width: 611
Flags: MW
LayerCount: 2
Fore
SplineSet
664 319 m 2
 778 319 849 267 849 199 c 0
 849 89 768 0 632 0 c 2
 349 0 l 1
 393 207 l 1
 190 207 l 1
 146 0 l 1
 6 0 l 1
 120 540 l 1
 260 540 l 1
 214 320 l 1
 417 320 l 1
 463 540 l 1
 603 540 l 1
 556 319 l 1
 664 319 l 2
720 173 m 0
 720 193 701 209 637 209 c 2
 533 209 l 1
 512 110 l 1
 621 110 l 2
 693 110 720 119 720 173 c 0
EndSplineSet
Validated: 1
EndChar

StartChar: afii10108
Encoding: 1115 1115 488
Width: 606
Flags: MW
LayerCount: 2
Fore
SplineSet
422 356 m 0
 422 411 381 421 353 421 c 0
 274 421 232 363 221 315 c 2
 155 0 l 1
 15 0 l 1
 135 567 l 1
 65 567 l 1
 87 671 l 1
 157 671 l 1
 169 729 l 1
 309 729 l 1
 297 671 l 1
 467 671 l 1
 445 567 l 1
 275 567 l 1
 251 453 l 1
 302 511 362 540 428 540 c 0
 491 540 571 514 571 412 c 0
 571 388 567 367 565 353 c 2
 489 0 l 1
 349 0 l 1
 418 321 l 2
 421 334 422 346 422 356 c 0
EndSplineSet
Validated: 1
EndChar

StartChar: afii10193
Encoding: 1119 1119 492
Width: 636
Flags: MW
LayerCount: 2
Fore
SplineSet
543 0 m 1
 60 0 l 1
 175 540 l 1
 315 540 l 1
 224 113 l 1
 427 113 l 1
 518 540 l 1
 658 540 l 1
 543 0 l 1
EndSplineSet
Validated: 1
EndChar

StartChar: uni048C
Encoding: 1164 1164 493
Width: 639
Flags: MW
LayerCount: 2
Fore
SplineSet
289 344 m 1
 243 125 l 1
 383 125 l 2
 476 125 527 188 527 270 c 0
 527 320 495 344 429 344 c 2
 289 344 l 1
350 631 m 1
 425 631 l 1
 408 551 l 1
 333 551 l 1
 316 469 l 1
 503 469 l 2
 615 469 679 403 679 296 c 0
 679 127 562 0 388 0 c 2
 66 0 l 1
 183 551 l 1
 108 551 l 1
 125 631 l 1
 200 631 l 1
 221 729 l 1
 371 729 l 1
 350 631 l 1
EndSplineSet
Validated: 1
EndChar

StartChar: uni048D
Encoding: 1165 1165 494
Width: 619
Flags: MW
LayerCount: 2
Fore
SplineSet
247 223 m 1
 223 110 l 1
 320 110 l 2
 382 110 414 140 414 188 c 0
 414 218 390 223 344 223 c 2
 247 223 l 1
302 478 m 1
 385 478 l 1
 370 398 l 1
 285 398 l 1
 271 333 l 1
 362 333 l 2
 490 333 552 283 552 196 c 0
 552 76 460 0 326 0 c 2
 60 0 l 1
 145 398 l 1
 72 398 l 1
 87 478 l 1
 162 478 l 1
 175 540 l 1
 315 540 l 1
 302 478 l 1
EndSplineSet
Validated: 1
EndChar

StartChar: uni048E
Encoding: 1166 1166 495
Width: 649
Flags: MW
LayerCount: 2
Fore
SplineSet
559 439 m 1
 570 457 584 494 584 529 c 0
 584 580 552 604 486 604 c 2
 346 604 l 1
 299 385 l 1
 439 385 l 2
 459 385 477 387 493 392 c 1
 434 451 l 1
 503 495 l 1
 559 439 l 1
739 568 m 0
 739 524 724 419 653 345 c 1
 715 283 l 1
 646 239 l 1
 591 294 l 1
 552 272 508 260 460 260 c 2
 273 260 l 1
 218 0 l 1
 68 0 l 1
 223 729 l 1
 545 729 l 2
 672 729 739 673 739 568 c 0
EndSplineSet
Validated: 1
EndChar

StartChar: uni048F
Encoding: 1167 1167 496
Width: 611
Flags: MW
LayerCount: 2
Fore
SplineSet
373 432 m 0
 246 432 212 254 212 205 c 0
 212 136 245 93 301 93 c 0
 334 93 365 108 391 135 c 1
 322 204 l 1
 391 248 l 1
 436 203 l 1
 445 225 461 267 461 320 c 0
 461 389 429 432 373 432 c 0
604 345 m 0
 604 233 556 148 530 109 c 1
 603 36 l 1
 534 -8 l 1
 478 48 l 1
 428 3 369 -24 308 -24 c 0
 240 -24 198 4 176 64 c 1
 116 -218 l 1
 -24 -218 l 1
 138 540 l 1
 278 540 l 1
 261 460 l 1
 307 520 362 549 430 549 c 0
 502 549 604 508 604 345 c 0
EndSplineSet
Validated: 1
EndChar

StartChar: afii10050
Encoding: 1168 1168 497
Width: 611
Flags: MW
LayerCount: 2
Fore
SplineSet
132 0 m 1
 -18 0 l 1
 137 729 l 1
 499 728 l 1
 528 864 l 1
 678 864 l 1
 623 604 l 1
 261 604 l 1
 132 0 l 1
EndSplineSet
Validated: 1
EndChar

StartChar: afii10098
Encoding: 1169 1169 498
Width: 454
Flags: MW
LayerCount: 2
Fore
SplineSet
483 666 m 1
 432 427 l 1
 224 427 l 1
 133 0 l 1
 -7 0 l 1
 108 540 l 1
 328 540 l 1
 355 666 l 1
 483 666 l 1
EndSplineSet
Validated: 1
EndChar

StartChar: uni0492
Encoding: 1170 1170 499
Width: 611
Flags: MW
LayerCount: 2
Fore
SplineSet
323 469 m 1
 397 469 l 1
 380 389 l 1
 306 389 l 1
 224 0 l 1
 74 0 l 1
 157 389 l 1
 80 389 l 1
 97 469 l 1
 174 469 l 1
 229 729 l 1
 741 729 l 1
 714 604 l 1
 352 604 l 1
 323 469 l 1
EndSplineSet
Validated: 1
EndChar

StartChar: uni0493
Encoding: 1171 1171 500
Width: 475
Flags: MW
LayerCount: 2
Fore
SplineSet
133 344 m 1
 175 540 l 1
 523 540 l 1
 499 427 l 1
 291 427 l 1
 273 344 l 1
 351 344 l 1
 334 264 l 1
 256 264 l 1
 200 0 l 1
 60 0 l 1
 116 264 l 1
 34 264 l 1
 51 344 l 1
 133 344 l 1
EndSplineSet
Validated: 1
EndChar

StartChar: uni0494
Encoding: 1172 1172 501
Width: 611
Flags: MW
LayerCount: 2
Fore
SplineSet
224 0 m 1
 74 0 l 1
 229 729 l 1
 741 729 l 1
 714 604 l 1
 352 604 l 1
 320 455 l 1
 464 455 l 2
 617 455 673 390 673 289 c 0
 673 266 670 241 665 215 c 2
 619 0 l 2
 599 -92 563 -166 410 -166 c 2
 306 -166 l 1
 328 -59 l 1
 383 -59 l 2
 450 -59 462 -34 469 0 c 2
 517 224 l 2
 520 241 523 257 523 271 c 0
 523 307 504 330 437 330 c 2
 294 330 l 1
 224 0 l 1
EndSplineSet
Validated: 1
EndChar

StartChar: uni0495
Encoding: 1173 1173 502
Width: 475
Flags: MW
LayerCount: 2
Fore
SplineSet
291 427 m 1
 266 299 l 1
 374 299 l 2
 461 299 519 246 519 167 c 0
 519 149 517 131 513 112 c 2
 489 0 l 2
 473 -75 431 -132 344 -132 c 2
 263 -132 l 1
 281 -44 l 1
 328 -44 342 -26 352 22 c 2
 370 94 l 2
 374 115 375 115 375 128 c 0
 375 177 342 187 314 187 c 2
 240 187 l 1
 200 0 l 1
 60 0 l 1
 175 540 l 1
 523 540 l 1
 499 427 l 1
 291 427 l 1
EndSplineSet
Validated: 1
EndChar

StartChar: uni0496
Encoding: 1174 1174 503
Width: 1054
Flags: MW
LayerCount: 2
Fore
SplineSet
999 108 m 1
 1101 108 l 1
 1046 -150 l 1
 916 -150 l 1
 948 0 l 1
 899 0 l 1
 686 285 l 1
 625 0 l 1
 475 0 l 1
 536 285 l 1
 201 0 l 1
 22 0 l 1
 459 378 l 1
 221 729 l 1
 385 729 l 1
 571 450 l 1
 630 729 l 1
 780 729 l 1
 721 450 l 1
 1025 729 l 1
 1189 729 l 1
 801 378 l 1
 999 108 l 1
EndSplineSet
Validated: 1
EndChar

StartChar: uni0497
Encoding: 1175 1175 504
Width: 775
Flags: MW
LayerCount: 2
Fore
SplineSet
737 101 m 1
 809 101 l 1
 761 -125 l 1
 651 -125 l 1
 678 0 l 1
 609 0 l 1
 514 198 l 1
 472 0 l 1
 332 0 l 1
 374 198 l 1
 195 0 l 1
 16 0 l 1
 292 296 l 1
 167 540 l 1
 315 540 l 1
 407 351 l 1
 447 540 l 1
 587 540 l 1
 547 351 l 1
 719 540 l 1
 867 540 l 1
 638 296 l 1
 737 101 l 1
EndSplineSet
Validated: 1
EndChar

StartChar: uni0498
Encoding: 1176 1176 505
Width: 659
Flags: MW
LayerCount: 2
Fore
SplineSet
360 -22 m 1
 388 -35 462 -81 462 -157 c 0
 462 -204 411 -233 328 -233 c 0
 304 -233 283 -230 251 -224 c 1
 241 -172 l 1
 261 -179 286 -183 312 -183 c 0
 345 -183 362 -169 362 -143 c 0
 362 -116 345 -64 273 -21 c 1
 138 -8 67 59 67 170 c 0
 67 185 68 201 71 218 c 1
 217 218 l 1
 216 211 215 204 215 197 c 0
 215 132 268 97 356 97 c 0
 455 97 526 142 526 223 c 0
 526 270 496 308 411 308 c 2
 309 308 l 1
 334 428 l 1
 410 428 l 2
 522 428 572 483 572 542 c 0
 572 586 531 621 463 621 c 0
 368 621 307 581 286 507 c 1
 146 507 l 1
 159 569 213 741 482 741 c 0
 633 741 716 680 716 571 c 0
 716 487 674 413 617 377 c 1
 658 352 677 317 677 268 c 0
 677 70 539 -12 360 -22 c 1
EndSplineSet
Validated: 1
EndChar

StartChar: uni0499
Encoding: 1177 1177 506
Width: 556
Flags: MW
LayerCount: 2
Fore
SplineSet
316 -21 m 1
 347 -38 419 -80 419 -157 c 0
 419 -204 368 -233 285 -233 c 0
 261 -233 240 -230 208 -224 c 1
 198 -172 l 1
 218 -179 243 -183 269 -183 c 0
 302 -183 319 -169 319 -143 c 0
 319 -116 302 -64 230 -21 c 1
 115 -11 56 38 56 119 c 0
 56 131 57 143 60 157 c 1
 197 157 l 1
 197 149 l 2
 197 92 247 87 292 87 c 0
 365 87 410 109 410 163 c 0
 410 185 399 208 339 208 c 2
 247 208 l 1
 271 318 l 1
 360 318 l 2
 433 318 441 361 441 391 c 0
 441 416 414 439 369 439 c 0
 302 439 269 415 258 366 c 1
 123 366 l 1
 149 480 247 549 392 549 c 0
 512 549 580 496 580 409 c 0
 580 349 557 296 516 271 c 1
 542 252 555 229 555 196 c 0
 555 75 452 -8 316 -21 c 1
EndSplineSet
Validated: 1
EndChar

StartChar: uni049A
Encoding: 1178 1178 507
Width: 720
Flags: MW
LayerCount: 2
Fore
SplineSet
626 108 m 1
 736 108 l 1
 681 -150 l 1
 551 -150 l 1
 583 0 l 1
 534 0 l 1
 285 285 l 1
 224 0 l 1
 74 0 l 1
 229 729 l 1
 379 729 l 1
 320 450 l 1
 664 729 l 1
 841 729 l 1
 400 378 l 1
 626 108 l 1
EndSplineSet
Validated: 1
EndChar

StartChar: uni049B
Encoding: 1179 1179 508
Width: 529
Flags: MW
LayerCount: 2
Fore
SplineSet
483 101 m 1
 569 101 l 1
 521 -125 l 1
 411 -125 l 1
 438 0 l 1
 366 0 l 1
 241 198 l 1
 199 0 l 1
 59 0 l 1
 174 540 l 1
 314 540 l 1
 274 351 l 1
 476 540 l 1
 624 540 l 1
 358 296 l 1
 483 101 l 1
EndSplineSet
Validated: 1
EndChar

StartChar: uni049C
Encoding: 1180 1180 509
Width: 720
Flags: MW
LayerCount: 2
Fore
SplineSet
310 256 m 1
 285 285 l 1
 224 0 l 1
 74 0 l 1
 229 729 l 1
 379 729 l 1
 320 450 l 1
 358 481 l 1
 392 640 l 1
 502 640 l 1
 491 589 l 1
 664 729 l 1
 841 729 l 1
 456 422 l 1
 437 335 l 1
 725 0 l 1
 538 0 l 1
 399 157 l 1
 387 100 l 1
 277 100 l 1
 310 256 l 1
EndSplineSet
Validated: 1
EndChar

StartChar: uni049D
Encoding: 1181 1181 510
Width: 529
Flags: MW
LayerCount: 2
Fore
SplineSet
261 166 m 1
 241 198 l 1
 199 0 l 1
 59 0 l 1
 174 540 l 1
 314 540 l 1
 274 351 l 1
 307 382 l 1
 335 511 l 1
 425 511 l 1
 420 487 l 1
 476 540 l 1
 624 540 l 1
 384 320 l 1
 374 271 l 1
 548 0 l 1
 366 0 l 1
 329 59 l 1
 324 38 l 1
 234 38 l 1
 261 166 l 1
EndSplineSet
Validated: 1
EndChar

StartChar: uni049E
Encoding: 1182 1182 511
Width: 720
Flags: MW
LayerCount: 2
Fore
SplineSet
365 662 m 1
 442 662 l 1
 425 582 l 1
 348 582 l 1
 320 450 l 1
 664 729 l 1
 841 729 l 1
 400 378 l 1
 725 0 l 1
 538 0 l 1
 285 285 l 1
 224 0 l 1
 74 0 l 1
 198 582 l 1
 125 582 l 1
 142 662 l 1
 215 662 l 1
 229 729 l 1
 379 729 l 1
 365 662 l 1
EndSplineSet
Validated: 1
EndChar

StartChar: uni049F
Encoding: 1183 1183 512
Width: 529
Flags: MW
LayerCount: 2
Fore
SplineSet
306 502 m 1
 347 502 l 1
 330 422 l 1
 289 422 l 1
 274 351 l 1
 476 540 l 1
 624 540 l 1
 358 296 l 1
 548 0 l 1
 366 0 l 1
 241 198 l 1
 199 0 l 1
 59 0 l 1
 149 422 l 1
 99 422 l 1
 116 502 l 1
 166 502 l 1
 174 540 l 1
 314 540 l 1
 306 502 l 1
EndSplineSet
Validated: 1
EndChar

StartChar: uni04A0
Encoding: 1184 1184 513
Width: 889
Flags: MW
LayerCount: 2
Fore
SplineSet
243 0 m 1
 371 604 l 1
 142 604 l 1
 168 729 l 1
 548 729 l 1
 489 450 l 1
 833 729 l 1
 1010 729 l 1
 569 378 l 1
 894 0 l 1
 707 0 l 1
 454 285 l 1
 393 0 l 1
 243 0 l 1
EndSplineSet
Validated: 1
EndChar

StartChar: uni04A1
Encoding: 1185 1185 514
Width: 650
Flags: MW
LayerCount: 2
Fore
SplineSet
181 0 m 1
 271 427 l 1
 100 427 l 1
 124 540 l 1
 435 540 l 1
 395 351 l 1
 597 540 l 1
 745 540 l 1
 479 296 l 1
 669 0 l 1
 487 0 l 1
 362 198 l 1
 320 0 l 1
 181 0 l 1
EndSplineSet
Validated: 1
EndChar

StartChar: uni04A2
Encoding: 1186 1186 515
Width: 722
Flags: MW
LayerCount: 2
Fore
SplineSet
679 108 m 1
 810 108 l 1
 755 -150 l 1
 625 -150 l 1
 657 0 l 1
 507 0 l 1
 573 311 l 1
 284 311 l 1
 218 0 l 1
 68 0 l 1
 223 729 l 1
 373 729 l 1
 311 436 l 1
 599 436 l 1
 661 729 l 1
 812 729 l 1
 679 108 l 1
EndSplineSet
Validated: 1
EndChar

StartChar: uni04A3
Encoding: 1187 1187 516
Width: 636
Flags: MW
LayerCount: 2
Fore
SplineSet
564 101 m 1
 674 101 l 1
 626 -125 l 1
 516 -125 l 1
 543 0 l 1
 403 0 l 1
 456 237 l 1
 253 237 l 1
 200 0 l 1
 60 0 l 1
 175 540 l 1
 315 540 l 1
 275 352 l 1
 478 352 l 1
 518 540 l 1
 658 540 l 1
 564 101 l 1
EndSplineSet
Validated: 1
EndChar

StartChar: uni04A4
Encoding: 1188 1188 517
Width: 992
Flags: MW
LayerCount: 2
Fore
SplineSet
655 0 m 1
 507 0 l 1
 573 311 l 1
 284 311 l 1
 218 0 l 1
 68 0 l 1
 223 729 l 1
 373 729 l 1
 311 436 l 1
 599 436 l 1
 660 729 l 1
 1122 729 l 1
 1095 604 l 1
 783 604 l 1
 655 0 l 1
EndSplineSet
Validated: 1
EndChar

StartChar: uni04A5
Encoding: 1189 1189 518
Width: 807
Flags: MW
LayerCount: 2
Fore
SplineSet
542 0 m 1
 403 0 l 1
 456 237 l 1
 253 237 l 1
 200 0 l 1
 60 0 l 1
 175 540 l 1
 315 540 l 1
 275 352 l 1
 478 352 l 1
 517 540 l 1
 855 540 l 1
 831 427 l 1
 633 427 l 1
 542 0 l 1
EndSplineSet
Validated: 1
EndChar

StartChar: uni04A6
Encoding: 1190 1190 519
Width: 1067
Flags: MW
LayerCount: 2
Fore
SplineSet
812 729 m 1
 754 455 l 1
 898 455 l 2
 1051 455 1107 390 1107 289 c 0
 1107 266 1104 241 1099 215 c 2
 1053 0 l 2
 1033 -92 997 -166 844 -166 c 2
 740 -166 l 1
 762 -59 l 1
 817 -59 l 2
 884 -59 896 -34 903 0 c 2
 951 224 l 2
 954 241 957 257 957 271 c 0
 957 307 938 330 871 330 c 2
 728 330 l 1
 658 0 l 1
 507 0 l 1
 635 604 l 1
 346 604 l 1
 218 0 l 1
 68 0 l 1
 223 729 l 1
 812 729 l 1
EndSplineSet
Validated: 1
EndChar

StartChar: uni04A7
Encoding: 1191 1191 520
Width: 876
Flags: MW
LayerCount: 2
Fore
SplineSet
609 299 m 1
 717 299 l 2
 804 299 862 246 862 167 c 0
 862 149 860 131 856 112 c 2
 832 0 l 2
 816 -75 774 -132 687 -132 c 2
 606 -132 l 1
 624 -44 l 1
 671 -44 685 -26 695 22 c 2
 713 94 l 2
 717 115 718 115 718 128 c 0
 718 177 685 187 657 187 c 2
 583 187 l 1
 543 0 l 1
 403 0 l 1
 494 427 l 1
 291 427 l 1
 200 0 l 1
 60 0 l 1
 175 540 l 1
 658 540 l 1
 609 299 l 1
EndSplineSet
Validated: 1
EndChar

StartChar: uni04AA
Encoding: 1194 1194 521
Width: 837
Flags: MW
LayerCount: 2
Fore
SplineSet
409 -21 m 1
 440 -38 512 -80 512 -157 c 0
 512 -204 461 -233 378 -233 c 0
 354 -233 333 -230 301 -224 c 1
 291 -172 l 1
 311 -179 336 -183 362 -183 c 0
 395 -183 412 -169 412 -143 c 0
 412 -120 399 -67 322 -20 c 1
 184 -3 106 93 106 243 c 0
 106 522 295 741 534 741 c 0
 686 741 787 658 787 535 c 0
 787 519 785 501 783 482 c 1
 640 482 l 1
 638 550 618 613 512 613 c 0
 368 613 257 452 257 264 c 0
 257 161 308 103 398 103 c 0
 491 103 562 156 591 249 c 1
 737 249 l 1
 695 95 570 -7 409 -21 c 1
EndSplineSet
Validated: 1
EndChar

StartChar: uni04AB
Encoding: 1195 1195 522
Width: 554
Flags: MW
LayerCount: 2
Fore
SplineSet
322 -20 m 1
 352 -35 427 -80 427 -157 c 0
 427 -204 376 -233 293 -233 c 0
 269 -233 248 -230 216 -224 c 1
 206 -172 l 1
 226 -179 251 -183 277 -183 c 0
 310 -183 327 -169 327 -143 c 0
 327 -96 287 -50 236 -20 c 1
 133 -4 77 67 77 173 c 0
 77 376 218 549 404 549 c 0
 525 549 595 485 595 377 c 0
 595 365 594 352 592 338 c 1
 458 338 l 1
 457 409 436 436 379 436 c 0
 244 436 220 243 220 197 c 0
 220 129 248 90 306 90 c 0
 360 90 393 117 426 187 c 1
 560 187 l 1
 524 72 434 -5 322 -20 c 1
EndSplineSet
Validated: 1
EndChar

StartChar: uni04AC
Encoding: 1196 1196 523
Width: 611
Flags: MW
LayerCount: 2
Fore
SplineSet
407 108 m 1
 538 108 l 1
 483 -150 l 1
 353 -150 l 1
 385 0 l 1
 235 0 l 1
 363 604 l 1
 142 604 l 1
 169 729 l 1
 753 729 l 1
 726 604 l 1
 513 604 l 1
 407 108 l 1
EndSplineSet
Validated: 1
EndChar

StartChar: uni04AD
Encoding: 1197 1197 524
Width: 454
Flags: MW
LayerCount: 2
Fore
SplineSet
306 101 m 1
 416 101 l 1
 368 -125 l 1
 258 -125 l 1
 285 0 l 1
 145 0 l 1
 236 427 l 1
 101 427 l 1
 125 540 l 1
 535 540 l 1
 511 427 l 1
 376 427 l 1
 306 101 l 1
EndSplineSet
Validated: 1
EndChar

StartChar: uni04AE
Encoding: 1198 1198 525
Width: 667
Flags: MW
LayerCount: 2
Fore
SplineSet
477 270 m 1
 419 0 l 1
 269 0 l 1
 327 270 l 1
 182 729 l 1
 349 729 l 1
 431 414 l 1
 638 729 l 1
 805 729 l 1
 477 270 l 1
EndSplineSet
Validated: 1
EndChar

StartChar: uni04AF
Encoding: 1199 1199 526
Width: 667
Flags: MW
LayerCount: 2
Fore
SplineSet
457 81 m 1
 419 -189 l 1
 269 -189 l 1
 307 81 l 1
 160 540 l 1
 327 540 l 1
 401 218 l 1
 555 540 l 1
 723 540 l 1
 457 81 l 1
EndSplineSet
Validated: 1
EndChar

StartChar: uni04B0
Encoding: 1200 1200 527
Width: 667
Flags: MW
LayerCount: 2
Fore
SplineSet
302 145 m 1
 102 145 l 1
 124 249 l 1
 324 249 l 1
 328 270 l 1
 182 729 l 1
 349 729 l 1
 431 407 l 1
 637 729 l 1
 805 729 l 1
 478 270 l 1
 474 249 l 1
 674 249 l 1
 652 145 l 1
 452 145 l 1
 422 0 l 1
 272 0 l 1
 302 145 l 1
EndSplineSet
Validated: 1
EndChar

StartChar: uni04B1
Encoding: 1201 1201 528
Width: 667
Flags: MW
LayerCount: 2
Fore
SplineSet
444 -23 m 1
 420 -189 l 1
 270 -189 l 1
 294 -23 l 1
 94 -23 l 1
 108 81 l 1
 308 81 l 1
 160 540 l 1
 327 540 l 1
 401 218 l 1
 555 540 l 1
 723 540 l 1
 458 81 l 1
 658 81 l 1
 644 -23 l 1
 444 -23 l 1
EndSplineSet
Validated: 1
EndChar

StartChar: uni04B2
Encoding: 1202 1202 529
Width: 664
Flags: MW
LayerCount: 2
Fore
SplineSet
608 108 m 1
 676 108 l 1
 621 -150 l 1
 491 -150 l 1
 523 0 l 1
 475 0 l 1
 389 253 l 1
 196 0 l 1
 22 0 l 1
 330 367 l 1
 185 729 l 1
 363 729 l 1
 440 489 l 1
 625 729 l 1
 799 729 l 1
 498 372 l 1
 608 108 l 1
EndSplineSet
Validated: 1
EndChar

StartChar: uni04B3
Encoding: 1203 1203 530
Width: 554
Flags: MW
LayerCount: 2
Fore
SplineSet
489 101 m 1
 557 101 l 1
 509 -125 l 1
 399 -125 l 1
 426 0 l 1
 367 0 l 1
 312 168 l 1
 184 0 l 1
 16 0 l 1
 254 272 l 1
 135 540 l 1
 303 540 l 1
 356 377 l 1
 478 540 l 1
 646 540 l 1
 413 272 l 1
 489 101 l 1
EndSplineSet
Validated: 1
EndChar

StartChar: uni04B4
Encoding: 1204 1204 531
Width: 864
Flags: MW
LayerCount: 2
Fore
SplineSet
481 604 m 1
 379 125 l 1
 668 125 l 1
 796 729 l 1
 946 729 l 1
 814 108 l 1
 954 108 l 1
 899 -150 l 1
 769 -150 l 1
 801 0 l 1
 203 0 l 1
 331 604 l 1
 142 604 l 1
 167 729 l 1
 689 729 l 1
 664 604 l 1
 481 604 l 1
EndSplineSet
Validated: 1
EndChar

StartChar: uni04B5
Encoding: 1205 1205 532
Width: 727
Flags: MW
LayerCount: 2
Fore
SplineSet
356 427 m 1
 289 113 l 1
 492 113 l 1
 583 540 l 1
 723 540 l 1
 629 101 l 1
 749 101 l 1
 701 -125 l 1
 591 -125 l 1
 618 0 l 1
 125 0 l 1
 216 427 l 1
 101 427 l 1
 125 540 l 1
 495 540 l 1
 471 427 l 1
 356 427 l 1
EndSplineSet
Validated: 1
EndChar

StartChar: uni04B6
Encoding: 1206 1206 533
Width: 743
Flags: MW
LayerCount: 2
Fore
SplineSet
629 108 m 1
 769 108 l 1
 714 -150 l 1
 584 -150 l 1
 616 0 l 1
 456 0 l 1
 514 274 l 1
 370 274 l 2
 217 274 161 339 161 440 c 0
 161 463 164 488 169 514 c 2
 215 729 l 1
 365 729 l 1
 317 505 l 2
 314 488 311 472 311 458 c 0
 311 422 330 399 397 399 c 2
 540 399 l 1
 610 729 l 1
 761 729 l 1
 629 108 l 1
EndSplineSet
Validated: 1
EndChar

StartChar: uni04B7
Encoding: 1207 1207 534
Width: 606
Flags: MW
LayerCount: 2
Fore
SplineSet
535 101 m 1
 654 101 l 1
 606 -125 l 1
 496 -125 l 1
 523 0 l 1
 373 0 l 1
 408 165 l 1
 323 165 l 2
 189 165 127 214 127 309 c 0
 127 327 129 347 134 369 c 2
 170 540 l 1
 310 540 l 1
 272 363 l 2
 269 349 267 337 267 326 c 0
 267 295 284 278 339 278 c 2
 432 278 l 1
 488 540 l 1
 628 540 l 1
 535 101 l 1
EndSplineSet
Validated: 1
EndChar

StartChar: uni04B8
Encoding: 1208 1208 535
Width: 671
Flags: MW
LayerCount: 2
Fore
SplineSet
376 400 m 1
 407 550 l 1
 506 550 l 1
 474 399 l 1
 540 399 l 1
 610 729 l 1
 761 729 l 1
 606 0 l 1
 456 0 l 1
 514 274 l 1
 448 274 l 1
 417 130 l 1
 318 130 l 1
 349 274 l 1
 212 280 161 344 161 440 c 0
 161 463 164 488 169 514 c 2
 215 729 l 1
 365 729 l 1
 317 505 l 2
 314 488 311 472 311 458 c 0
 311 426 326 405 376 400 c 1
EndSplineSet
Validated: 1
EndChar

StartChar: uni04B9
Encoding: 1209 1209 536
Width: 606
Flags: MW
LayerCount: 2
Fore
SplineSet
281 167 m 1
 176 177 127 225 127 309 c 0
 127 327 129 347 134 369 c 2
 170 540 l 1
 310 540 l 1
 272 363 l 2
 269 349 267 337 267 326 c 0
 267 303 277 287 305 281 c 1
 324 370 l 1
 403 370 l 1
 383 278 l 1
 432 278 l 1
 488 540 l 1
 628 540 l 1
 513 0 l 1
 373 0 l 1
 408 165 l 1
 359 165 l 1
 339 70 l 1
 260 70 l 1
 281 167 l 1
EndSplineSet
Validated: 1
EndChar

StartChar: uni04BA
Encoding: 1210 1210 537
Width: 671
Flags: MW
LayerCount: 2
Fore
SplineSet
408 455 m 1
 552 455 l 2
 705 455 761 390 761 289 c 0
 761 266 758 241 752 215 c 2
 707 0 l 1
 557 0 l 1
 604 224 l 2
 608 241 610 257 610 271 c 0
 610 307 592 330 525 330 c 2
 382 330 l 1
 312 0 l 1
 161 0 l 1
 316 729 l 1
 466 729 l 1
 408 455 l 1
EndSplineSet
Validated: 1
EndChar

StartChar: uni04BB
Encoding: 1211 1211 538
Width: 606
Flags: MW
LayerCount: 2
Fore
SplineSet
585 0 m 1
 445 0 l 1
 483 177 l 2
 486 191 488 203 488 214 c 0
 488 245 471 262 416 262 c 2
 323 262 l 1
 267 0 l 1
 127 0 l 1
 242 540 l 1
 382 540 l 1
 347 375 l 1
 432 375 l 2
 566 375 628 326 628 231 c 0
 628 213 626 193 621 171 c 2
 585 0 l 1
EndSplineSet
Validated: 1
EndChar

StartChar: uni04BC
Encoding: 1212 1212 539
Width: 837
Flags: MW
LayerCount: 2
Fore
SplineSet
635 482 m 1
 633 550 613 613 507 613 c 0
 425 613 354 561 308 482 c 1
 635 482 l 1
529 741 m 0
 687 741 787 650 787 518 c 0
 787 431 782 398 774 365 c 1
 263 365 l 1
 256 333 252 299 252 264 c 0
 252 161 303 103 393 103 c 0
 486 103 557 156 586 249 c 1
 732 249 l 1
 687 82 544 -23 363 -23 c 0
 196 -23 101 77 101 243 c 0
 101 285 105 326 114 365 c 1
 -23 370 -79 461 -79 532 c 0
 -79 654 5 758 117 758 c 0
 189 758 231 719 231 654 c 0
 231 647 231 639 230 631 c 1
 149 631 l 1
 149 674 136 690 102 690 c 0
 21 690 6 573 6 546 c 0
 6 506 23 482 59 482 c 2
 152 482 l 1
 224 637 365 741 529 741 c 0
EndSplineSet
Validated: 1
EndChar

StartChar: uni04BD
Encoding: 1213 1213 540
Width: 552
Flags: HMW
LayerCount: 2
Fore
SplineSet
235 339 m 1
 444 339 l 1
 444.934 346.627 445.507 354.376 445.507 362.023 c 0
 445.507 403.503 428.642 442 361 442 c 0
 299 442 263 402 235 339 c 1
587 354 m 0
 587 334 586 287 572 246 c 1
 210 246 l 1
 202 227 201 201 201 182 c 0
 201 176 201 170 201 166 c 0
 201 110 240 84 289 84 c 0
 340 84 384 109 411 152 c 1
 549 152 l 1
 495 46 382 -23 261 -23 c 0
 135 -23 64 49 64 172 c 0
 64 198 66 223 71 247 c 1
 -23 258 -62 328 -62 372 c 0
 -62 453 -5 522 69 522 c 0
 118 522 146 497 146 454 c 0
 146 449 145 444 144 438 c 1
 91 438 l 1
 90 466 82 477 59 477 c 0
 5 477 -4 401 -4 382 c 0
 -4 354 7 339 31 339 c 2
 99 339 l 1
 151 461 260 549 386 549 c 0
 505 549 587 483 587 354 c 0
EndSplineSet
Validated: 1
EndChar

StartChar: uni04BE
Encoding: 1214 1214 541
Width: 837
Flags: MW
LayerCount: 2
Fore
SplineSet
635 482 m 1
 633 550 613 613 507 613 c 0
 425 613 354 561 308 482 c 1
 635 482 l 1
404 -21 m 1
 435 -38 507 -80 507 -157 c 0
 507 -204 456 -233 373 -233 c 0
 349 -233 328 -230 296 -224 c 1
 286 -172 l 1
 306 -179 331 -183 357 -183 c 0
 390 -183 407 -169 407 -143 c 0
 407 -120 394 -67 317 -20 c 1
 179 -3 101 93 101 243 c 0
 101 285 105 326 114 365 c 1
 -23 370 -79 461 -79 532 c 0
 -79 654 5 758 117 758 c 0
 189 758 231 719 231 654 c 0
 231 647 231 639 230 631 c 1
 149 631 l 1
 149 674 136 690 102 690 c 0
 21 690 6 573 6 546 c 0
 6 506 23 482 59 482 c 2
 152 482 l 1
 224 637 365 741 529 741 c 0
 687 741 787 650 787 518 c 0
 787 431 782 398 774 365 c 1
 263 365 l 1
 256 333 252 299 252 264 c 0
 252 161 303 103 393 103 c 0
 486 103 557 156 586 249 c 1
 732 249 l 1
 690 95 565 -7 404 -21 c 1
EndSplineSet
Validated: 1
EndChar

StartChar: uni04BF
Encoding: 1215 1215 542
Width: 552
Flags: HMW
LayerCount: 2
Fore
SplineSet
235 339 m 1
 444 339 l 1
 444.572 345.294 444.997 352.098 444.997 359.103 c 0
 444.997 397.511 432.23 442 361 442 c 0
 299 442 263 402 235 339 c 1
298 -21 m 1
 326 -35 402 -78 402 -157 c 0
 402 -204 351 -233 268 -233 c 0
 244 -233 223 -230 191 -224 c 1
 181 -172 l 1
 201 -179 226 -183 252 -183 c 0
 285 -183 302 -169 302 -143 c 0
 302 -120 288 -65 209 -18 c 1
 115 0 64 67 64 172 c 0
 64 198 66 223 71 247 c 1
 -23 258 -62 328 -62 372 c 0
 -62 453 -5 522 69 522 c 0
 118 522 146 497 146 454 c 0
 146 449 145 444 144 438 c 1
 91 438 l 1
 90 466 82 477 59 477 c 0
 5 477 -4 401 -4 382 c 0
 -4 354 7 339 31 339 c 2
 99 339 l 1
 151 461 260 549 386 549 c 0
 505 549 587 483 587 354 c 0
 587 334 586 287 572 246 c 1
 210 246 l 1
 202 227 201 201 201 182 c 0
 201 176 201 170 201 166 c 0
 201 110 240 84 289 84 c 0
 340 84 384 109 411 152 c 1
 549 152 l 1
 501 57 405 -8 298 -21 c 1
EndSplineSet
Validated: 1
EndChar

StartChar: uni04C0
Encoding: 1216 1216 543
Width: 278
Flags: MW
LayerCount: 2
Fore
SplineSet
368 729 m 1
 213 0 l 1
 63 0 l 1
 218 729 l 1
 368 729 l 1
EndSplineSet
Validated: 1
EndChar

StartChar: uni04C1
Encoding: 1217 1217 544
Width: 1054
Flags: MW
LayerCount: 2
Fore
SplineSet
839 944 m 1
 881 944 l 1
 867 862 799 801 720 801 c 0
 657 801 614 843 614 905 c 0
 614 917 615 926 620 944 c 1
 662 944 l 1
 662 936 l 2
 662 900 689 879 736 879 c 0
 787 879 822 901 839 944 c 1
536 285 m 1
 201 0 l 1
 22 0 l 1
 459 378 l 1
 221 729 l 1
 385 729 l 1
 571 450 l 1
 630 729 l 1
 780 729 l 1
 721 450 l 1
 1025 729 l 1
 1189 729 l 1
 801 378 l 1
 1078 0 l 1
 899 0 l 1
 686 285 l 1
 625 0 l 1
 475 0 l 1
 536 285 l 1
EndSplineSet
Validated: 1
EndChar

StartChar: uni04C2
Encoding: 1218 1218 545
Width: 775
Flags: MW
LayerCount: 2
Fore
SplineSet
651 752 m 1
 693 752 l 1
 679 670 611 609 532 609 c 0
 469 609 426 651 426 713 c 0
 426 725 427 734 432 752 c 1
 474 752 l 1
 474 744 l 2
 474 708 501 687 548 687 c 0
 599 687 634 709 651 752 c 1
374 198 m 1
 195 0 l 1
 16 0 l 1
 292 296 l 1
 167 540 l 1
 315 540 l 1
 407 351 l 1
 447 540 l 1
 587 540 l 1
 547 351 l 1
 719 540 l 1
 867 540 l 1
 638 296 l 1
 788 0 l 1
 609 0 l 1
 514 198 l 1
 472 0 l 1
 332 0 l 1
 374 198 l 1
EndSplineSet
Validated: 1
EndChar

StartChar: uni04C3
Encoding: 1219 1219 546
Width: 720
Flags: MW
LayerCount: 2
Fore
SplineSet
485 253 m 2
 278 253 l 1
 224 0 l 1
 74 0 l 1
 229 729 l 1
 379 729 l 1
 320 450 l 1
 664 729 l 1
 841 729 l 1
 400 378 l 1
 512 378 l 2
 665 378 721 313 721 212 c 0
 721 189 718 164 713 138 c 2
 684 3 l 2
 664 -89 628 -163 475 -163 c 2
 371 -163 l 1
 393 -56 l 1
 448 -56 l 2
 515 -56 527 -31 534 3 c 2
 565 147 l 2
 568 164 571 180 571 194 c 0
 571 230 552 253 485 253 c 2
EndSplineSet
Validated: 1
EndChar

StartChar: uni04C4
Encoding: 1220 1220 547
Width: 529
Flags: MW
LayerCount: 2
Fore
SplineSet
374 297 m 2
 461 297 519 246 519 167 c 0
 519 149 517 131 513 112 c 2
 489 0 l 2
 473 -75 431 -132 344 -132 c 2
 263 -132 l 1
 281 -44 l 1
 328 -44 342 -26 352 22 c 2
 370 94 l 2
 374 115 375 115 375 128 c 0
 375 177 342 187 314 187 c 2
 240 187 l 1
 200 0 l 1
 59 0 l 1
 174 540 l 1
 314 540 l 1
 274 351 l 1
 476 540 l 1
 624 540 l 1
 358 296 l 1
 374 297 l 2
EndSplineSet
Validated: 1
EndChar

StartChar: uni04C7
Encoding: 1223 1223 548
Width: 722
Flags: MW
LayerCount: 2
Fore
SplineSet
507 0 m 2
 573 311 l 1
 284 311 l 1
 218 0 l 1
 68 0 l 1
 223 729 l 1
 373 729 l 1
 311 436 l 1
 599 436 l 1
 661 729 l 1
 812 729 l 1
 657 0 l 2
 637 -92 601 -166 448 -166 c 2
 344 -166 l 1
 366 -59 l 1
 421 -59 l 2
 488 -59 500 -34 507 0 c 2
EndSplineSet
Validated: 1
EndChar

StartChar: uni04C8
Encoding: 1224 1224 549
Width: 636
Flags: MW
LayerCount: 2
Fore
SplineSet
403 0 m 2
 456 237 l 1
 253 237 l 1
 200 0 l 1
 60 0 l 1
 175 540 l 1
 315 540 l 1
 275 352 l 1
 478 352 l 1
 518 540 l 1
 658 540 l 1
 543 0 l 2
 527 -75 487 -132 400 -132 c 2
 319 -132 l 1
 337 -44 l 1
 384 -44 398 -23 403 0 c 2
EndSplineSet
Validated: 1
EndChar

StartChar: uni04CB
Encoding: 1227 1227 550
Width: 671
Flags: MW
LayerCount: 2
Fore
SplineSet
446 0 m 1
 414 -150 l 1
 284 -150 l 1
 339 108 l 1
 479 108 l 1
 514 274 l 1
 370 274 l 2
 217 274 161 339 161 440 c 0
 161 463 164 488 169 514 c 2
 215 729 l 1
 365 729 l 1
 317 505 l 2
 314 488 311 472 311 458 c 0
 311 422 330 399 397 399 c 2
 540 399 l 1
 610 729 l 1
 761 729 l 1
 606 0 l 1
 446 0 l 1
EndSplineSet
Validated: 1
EndChar

StartChar: uni04CC
Encoding: 1228 1228 551
Width: 606
Flags: MW
LayerCount: 2
Fore
SplineSet
394 101 m 1
 408 165 l 1
 323 165 l 2
 189 165 127 214 127 309 c 0
 127 327 129 347 134 369 c 2
 170 540 l 1
 310 540 l 1
 272 363 l 2
 269 349 267 337 267 326 c 0
 267 295 284 278 339 278 c 2
 432 278 l 1
 488 540 l 1
 628 540 l 1
 513 0 l 1
 363 0 l 1
 336 -125 l 1
 226 -125 l 1
 274 101 l 1
 394 101 l 1
EndSplineSet
Validated: 1
EndChar

StartChar: uni04D8
Encoding: 1240 1240 560
Width: 837
Flags: MW
LayerCount: 2
Fore
SplineSet
359 -23 m 0
 201 -23 101 68 101 200 c 0
 101 287 106 320 114 353 c 1
 625 353 l 1
 632 385 636 419 636 454 c 0
 636 557 585 615 495 615 c 0
 402 615 331 562 302 469 c 1
 156 469 l 1
 201 636 344 741 525 741 c 0
 692 741 787 641 787 475 c 0
 787 196 598 -23 359 -23 c 0
253 236 m 1
 255 168 275 105 381 105 c 0
 463 105 534 157 580 236 c 1
 253 236 l 1
EndSplineSet
Validated: 1
EndChar

StartChar: afii10846
Encoding: 1241 1241 561
Width: 552
Flags: HMW
LayerCount: 2
Fore
SplineSet
64 172 m 0
 64 192 65 239 79 280 c 1
 441 280 l 1
 449 299 450 325 450 344 c 0
 450 350 450 356 450 360 c 0
 450 416 411 442 362 442 c 0
 311 442 267 417 240 374 c 1
 102 374 l 1
 156 480 269 549 390 549 c 0
 516 549 587 477 587 354 c 0
 587 154 444 -23 265 -23 c 0
 146 -23 64 43 64 172 c 0
416 187 m 1
 207 187 l 1
 206.445 180.899 206.041 174.297 206.041 167.485 c 0
 206.041 129.094 218.88 84 290 84 c 0
 352 84 388 124 416 187 c 1
EndSplineSet
Validated: 1
EndChar

StartChar: uni04E8
Encoding: 1256 1256 574
Width: 778
Flags: MW
LayerCount: 2
Fore
SplineSet
386 -23 m 0
 162 -23 106 139 106 261 c 0
 106 396 171 546 278 640 c 0
 355 707 446 741 548 741 c 0
 773 741 829 582 829 455 c 0
 829 309 757 165 657 78 c 0
 579 10 490 -23 386 -23 c 0
675 403 m 1
 677 415 677 427 677 438 c 0
 677 547 622 613 522 613 c 0
 413 613 319 531 279 403 c 1
 675 403 l 1
660 323 m 1
 261 323 l 1
 259 308 258 294 258 280 c 0
 258 172 315 105 414 105 c 0
 525 105 621 192 660 323 c 1
EndSplineSet
Validated: 1
EndChar

StartChar: uni04E9
Encoding: 1257 1257 575
Width: 611
Flags: MW
LayerCount: 2
Fore
SplineSet
82 181 m 0
 82 373 213 549 418 549 c 0
 558 549 635 475 635 345 c 0
 635 155 508 -23 298 -23 c 0
 159 -23 82 52 82 181 c 0
491 302 m 1
 491 308 491 314 491 319 c 0
 491 392 457 436 395 436 c 0
 329 436 271 383 242 302 c 1
 491 302 l 1
474 222 m 1
 225 222 l 1
 225 207 l 0
 225 136 261 90 322 90 c 0
 387 90 445 142 474 222 c 1
EndSplineSet
Validated: 1
EndChar

StartChar: afii57799
Encoding: 1456 1456 590
Width: 82
Flags: MW
LayerCount: 2
Fore
SplineSet
-157 -172 m 1
 -74 -172 l 1
 -92 -254 l 1
 -174 -254 l 1
 -157 -172 l 1
-133 -60 m 1
 -50 -60 l 1
 -68 -142 l 1
 -150 -142 l 1
 -133 -60 l 1
EndSplineSet
Validated: 1
EndChar

StartChar: afii57801
Encoding: 1457 1457 591
Width: 347
Flags: MW
LayerCount: 2
Fore
SplineSet
-92 -172 m 1
 -9 -172 l 1
 -27 -254 l 1
 -109 -254 l 1
 -92 -172 l 1
-133 -60 m 1
 -50 -60 l 1
 -68 -142 l 1
 -150 -142 l 1
 -133 -60 l 1
-3 -60 m 1
 79 -60 l 1
 62 -142 l 1
 -21 -142 l 1
 -3 -60 l 1
132 -60 m 1
 214 -60 l 1
 197 -142 l 1
 114 -142 l 1
 132 -60 l 1
108 -172 m 1
 191 -172 l 1
 173 -254 l 1
 91 -254 l 1
 108 -172 l 1
EndSplineSet
Validated: 1
EndChar

StartChar: afii57800
Encoding: 1458 1458 592
Width: 341
Flags: MW
LayerCount: 2
Fore
SplineSet
-133 -60 m 1
 67 -60 l 1
 50 -142 l 1
 -150 -142 l 1
 -133 -60 l 1
126 -60 m 1
 208 -60 l 1
 191 -142 l 1
 109 -142 l 1
 126 -60 l 1
102 -172 m 1
 185 -172 l 1
 167 -254 l 1
 85 -254 l 1
 102 -172 l 1
EndSplineSet
Validated: 1
EndChar

StartChar: afii57802
Encoding: 1459 1459 593
Width: 341
Flags: MW
LayerCount: 2
Fore
SplineSet
102 -172 m 1
 185 -172 l 1
 167 -254 l 1
 85 -254 l 1
 102 -172 l 1
126 -60 m 1
 208 -60 l 1
 191 -142 l 1
 109 -142 l 1
 126 -60 l 1
-9 -142 m 1
 -32 -248 l 1
 -114 -248 l 1
 -91 -142 l 1
 -150 -142 l 1
 -133 -60 l 1
 67 -60 l 1
 50 -142 l 1
 -9 -142 l 1
EndSplineSet
Validated: 1
EndChar

StartChar: afii57793
Encoding: 1460 1460 594
Width: 82
Flags: MW
LayerCount: 2
Fore
SplineSet
-133 -60 m 1
 -50 -60 l 1
 -68 -142 l 1
 -150 -142 l 1
 -133 -60 l 1
EndSplineSet
Validated: 1
EndChar

StartChar: afii57794
Encoding: 1461 1461 595
Width: 211
Flags: MW
LayerCount: 2
Fore
SplineSet
-133 -60 m 1
 -50 -60 l 1
 -68 -142 l 1
 -150 -142 l 1
 -133 -60 l 1
-3 -60 m 1
 79 -60 l 1
 62 -142 l 1
 -21 -142 l 1
 -3 -60 l 1
EndSplineSet
Validated: 1
EndChar

StartChar: afii57795
Encoding: 1462 1462 596
Width: 211
Flags: MW
LayerCount: 2
Fore
SplineSet
-92 -172 m 1
 -9 -172 l 1
 -27 -254 l 1
 -109 -254 l 1
 -92 -172 l 1
-133 -60 m 1
 -50 -60 l 1
 -68 -142 l 1
 -150 -142 l 1
 -133 -60 l 1
-3 -60 m 1
 79 -60 l 1
 62 -142 l 1
 -21 -142 l 1
 -3 -60 l 1
EndSplineSet
Validated: 1
EndChar

StartChar: afii57798
Encoding: 1463 1463 597
Width: 200
Flags: MW
LayerCount: 2
Fore
SplineSet
-133 -60 m 1
 67 -60 l 1
 50 -142 l 1
 -150 -142 l 1
 -133 -60 l 1
EndSplineSet
Validated: 1
EndChar

StartChar: afii57797
Encoding: 1464 1464 598
Width: 200
Flags: MW
LayerCount: 2
Fore
SplineSet
-9 -142 m 1
 -32 -248 l 1
 -114 -248 l 1
 -91 -142 l 1
 -150 -142 l 1
 -133 -60 l 1
 67 -60 l 1
 50 -142 l 1
 -9 -142 l 1
EndSplineSet
Validated: 1
EndChar

StartChar: afii57806
Encoding: 1465 1465 599
Width: 82
Flags: MW
LayerCount: 2
Fore
SplineSet
38 742 m 1
 120 742 l 1
 103 660 l 1
 20 660 l 1
 38 742 l 1
EndSplineSet
Validated: 1
EndChar

StartChar: afii57796
Encoding: 1467 1467 600
Width: 341
Flags: MW
LayerCount: 2
Fore
SplineSet
102 -172 m 1
 185 -172 l 1
 167 -254 l 1
 85 -254 l 1
 102 -172 l 1
-15 -113 m 1
 68 -113 l 1
 50 -195 l 1
 -32 -195 l 1
 -15 -113 l 1
-133 -60 m 1
 -50 -60 l 1
 -68 -142 l 1
 -150 -142 l 1
 -133 -60 l 1
EndSplineSet
Validated: 1
EndChar

StartChar: afii57807
Encoding: 1468 1468 601
Width: 82
Flags: MW
LayerCount: 2
Fore
SplineSet
-48 339 m 1
 34 339 l 1
 17 257 l 1
 -65 257 l 1
 -48 339 l 1
EndSplineSet
Validated: 1
EndChar

StartChar: afii57839
Encoding: 1469 1469 602
Width: 82
Flags: MW
LayerCount: 2
Fore
SplineSet
-50 -60 m 1
 -90 -248 l 1
 -173 -248 l 1
 -133 -60 l 1
 -50 -60 l 1
EndSplineSet
Validated: 1
EndChar

StartChar: afii57645
Encoding: 1470 1470 603
Width: 516
Flags: MW
LayerCount: 2
Fore
SplineSet
46 485 m 1
 70 600 l 1
 452 600 l 1
 427 485 l 1
 46 485 l 1
EndSplineSet
Validated: 1
EndChar

StartChar: afii57841
Encoding: 1471 1471 604
Width: 200
Flags: MW
LayerCount: 2
Fore
SplineSet
38 742 m 1
 238 742 l 1
 220 660 l 1
 20 660 l 1
 38 742 l 1
EndSplineSet
Validated: 1
EndChar

StartChar: afii57842
Encoding: 1472 1472 605
Width: 297
Flags: MW
LayerCount: 2
Fore
SplineSet
-62 -100 m 1
 108 700 l 1
 247 700 l 1
 77 -100 l 1
 -62 -100 l 1
EndSplineSet
Validated: 1
EndChar

StartChar: afii57804
Encoding: 1473 1473 606
Width: 1038
Flags: MW
LayerCount: 2
Fore
SplineSet
683 721 m 1
 765 721 l 1
 748 639 l 1
 665 639 l 1
 683 721 l 1
EndSplineSet
Validated: 1
EndChar

StartChar: afii57803
Encoding: 1474 1474 607
Width: 1038
Flags: MW
LayerCount: 2
Fore
SplineSet
134 721 m 1
 216 721 l 1
 199 639 l 1
 116 639 l 1
 134 721 l 1
EndSplineSet
Validated: 1
EndChar

StartChar: uni05C4
Encoding: 1476 1476 609
Width: 82
Flags: MW
LayerCount: 2
Fore
SplineSet
38 742 m 1
 120 742 l 1
 103 660 l 1
 20 660 l 1
 38 742 l 1
EndSplineSet
Validated: 1
EndChar

StartChar: afii57664
Encoding: 1488 1488 610
Width: 714
Flags: MW
LayerCount: 2
Fore
SplineSet
226 285 m 1
 177 237 165 207 139 148 c 1
 108 0 l 1
 -31 0 l 1
 2 158 l 2
 59 302 125 357 174 388 c 1
 69 600 l 1
 230 600 l 1
 372 315 l 1
 420 362 431 389 456 444 c 1
 490 600 l 1
 629 600 l 1
 593 433 l 2
 539 297 469 241 423 212 c 1
 530 0 l 1
 367 0 l 1
 226 285 l 1
EndSplineSet
Validated: 1
EndChar

StartChar: afii57665
Encoding: 1489 1489 611
Width: 651
Flags: HMW
LayerCount: 2
Fore
SplineSet
266 600 m 2
 422.356 581.406 482.341 488.649 482.341 409.9 c 0
 482.341 397.469 480.847 385.386 478 374 c 2
 423 115 l 1
 515 115 l 1
 490 0 l 1
 -43 0 l 1
 -19 115 l 1
 284 115 l 1
 338 365 l 2
 336 446 336 464 230 485 c 2
 60 485 l 1
 84 600 l 1
 266 600 l 2
EndSplineSet
Validated: 1
EndChar

StartChar: afii57666
Encoding: 1490 1490 612
Width: 557
Flags: MW
LayerCount: 2
Fore
SplineSet
208 600 m 2
 399 578 417 501 420 378 c 2
 383 0 l 1
 243 0 l 1
 257 138 l 1
 100 0 l 1
 -73 0 l 1
 145 194 l 1
 262 194 l 1
 279 361 l 2
 274 451 280 464 171 485 c 2
 99 485 l 1
 123 600 l 1
 208 600 l 2
EndSplineSet
Validated: 1
EndChar

StartChar: afii57667
Encoding: 1491 1491 613
Width: 638
Flags: MW
LayerCount: 2
Fore
SplineSet
327 485 m 1
 46 485 l 1
 70 600 l 1
 573 600 l 1
 549 485 l 1
 466 485 l 1
 363 0 l 1
 224 0 l 1
 327 485 l 1
EndSplineSet
Validated: 1
EndChar

StartChar: afii57668
Encoding: 1492 1492 614
Width: 682
Flags: MW
LayerCount: 2
Fore
SplineSet
359 600 m 2
 446 590 572 562 572 406 c 0
 572 396 572 386 571 374 c 1
 492 0 l 1
 353 0 l 1
 431 365 l 2
 428 453 426 465 323 485 c 2
 62 485 l 1
 87 600 l 1
 359 600 l 2
-41 0 m 1
 34 349 l 1
 173 349 l 1
 98 0 l 1
 -41 0 l 1
EndSplineSet
Validated: 1
EndChar

StartChar: afii57669
Encoding: 1493 1493 615
Width: 297
Flags: MW
LayerCount: 2
Fore
SplineSet
-41 0 m 1
 87 600 l 1
 226 600 l 1
 98 0 l 1
 -41 0 l 1
EndSplineSet
Validated: 1
EndChar

StartChar: afii57670
Encoding: 1494 1494 616
Width: 443
Flags: MW
LayerCount: 2
Fore
SplineSet
132 485 m 1
 47 485 l 1
 71 600 l 1
 378 600 l 1
 354 485 l 1
 271 485 l 1
 168 0 l 1
 29 0 l 1
 132 485 l 1
EndSplineSet
Validated: 1
EndChar

StartChar: afii57671
Encoding: 1495 1495 617
Width: 682
Flags: HMW
LayerCount: 2
Fore
SplineSet
359 600 m 2
 525.753 592.42 574.531 478.481 574.531 405.536 c 0
 574.531 393.746 573.257 383.026 571 374 c 2
 492 0 l 1
 353 0 l 1
 431 365 l 2
 428 453 427 465 323 485 c 2
 201 485 l 1
 98 0 l 1
 -41 0 l 1
 87 600 l 1
 359 600 l 2
EndSplineSet
Validated: 1
EndChar

StartChar: afii57672
Encoding: 1496 1496 618
Width: 670
Flags: HMW
LayerCount: 2
Fore
SplineSet
323 485 m 2
 296 485 274 473 274 473 c 1
 300 595 l 1
 314 597 318 600 353 600 c 0
 521.566 600 570.358 479.671 570.358 401.996 c 0
 570.358 391.807 569.519 382.353 568 374 c 2
 537 226 l 2
 491 102 423 59 388 44 c 0
 342 21 287 0 222 0 c 0
 51.9874 0 1.7126 121.14 1.7126 198.848 c 0
 1.7126 208.71 2.5224 217.873 4 226 c 2
 83 600 l 1
 222 600 l 1
 145 235 l 1
 145 223 l 0
 145 186 149 157 172 141 c 0
 211 118 212 116 247 115 c 0
 342 118 376 179 400 235 c 2
 428 365 l 2
 427 404 427 441 400 459 c 0
 363 480 362 485 323 485 c 2
EndSplineSet
Validated: 1
EndChar

StartChar: afii57673
Encoding: 1497 1497 619
Width: 284
Flags: MW
LayerCount: 2
Fore
SplineSet
163 333 m 1
 12 276 l 1
 81 600 l 1
 220 600 l 1
 163 333 l 1
EndSplineSet
Validated: 1
EndChar

StartChar: afii57674
Encoding: 1498 1498 620
Width: 590
Flags: HMW
LayerCount: 2
Fore
SplineSet
267 600 m 2
 447.329 579.738 482.084 477.43 482.084 408.99 c 0
 482.084 395.789 480.791 383.849 479 374 c 2
 357 -200 l 1
 218 -200 l 1
 339 365 l 2
 337 446 337 464 231 485 c 2
 45 485 l 1
 70 600 l 1
 267 600 l 2
EndSplineSet
Validated: 1
EndChar

StartChar: afii57675
Encoding: 1499 1499 621
Width: 595
Flags: HMW
LayerCount: 2
Fore
SplineSet
281 600 m 2
 461.871 579.447 496.054 476.576 496.054 408.751 c 0
 496.054 395.552 494.76 383.68 493 374 c 2
 462 226 l 2
 418 108 348 21 153 0 c 2
 -44 0 l 1
 -19 115 l 1
 166 115 l 2
 260 132 283 139 325 235 c 2
 353 365 l 2
 350 446 351 464 245 485 c 2
 59 485 l 1
 84 600 l 1
 281 600 l 2
EndSplineSet
Validated: 1
EndChar

StartChar: afii57676
Encoding: 1500 1500 622
Width: 667
Flags: MW
LayerCount: 2
Fore
SplineSet
311 101 m 1
 290 0 l 1
 151 0 l 1
 174 107 l 1
 189 154 195 188 237 233 c 0
 299 299 363 312 385 337 c 0
 410 365 416 379 425 419 c 0
 439 485 l 1
 45 485 l 1
 102 750 l 1
 241 750 l 1
 209 600 l 1
 603 600 l 1
 563 412 l 2
 506 224 390 219 352 183 c 0
 325 157 320 141 311 101 c 1
EndSplineSet
Validated: 1
EndChar

StartChar: afii57677
Encoding: 1501 1501 623
Width: 683
Flags: MW
LayerCount: 2
Fore
SplineSet
354 600 m 2
 487 600 576 517 576 411 c 0
 576 397 574 383 571 369 c 0
 493 0 l 1
 -40 0 l 1
 87 600 l 1
 354 600 l 2
434 389 m 0
 434 448 390 483 330 485 c 2
 202 485 l 1
 123 115 l 1
 378 115 l 1
 432 369 l 1
 433 376 434 382 434 389 c 0
EndSplineSet
Validated: 1
EndChar

StartChar: afii57678
Encoding: 1502 1502 624
Width: 704
Flags: MW
LayerCount: 2
Fore
SplineSet
456 397 m 0
 456 416 440 485 350 485 c 2
 281 485 l 1
 106 0 l 1
 -34 0 l 1
 141 485 l 1
 50 485 l 1
 75 600 l 1
 374 600 l 2
 508 600 597 519 597 419 c 0
 597 400 594 383 591 369 c 0
 513 0 l 1
 243 0 l 1
 267 115 l 1
 398 115 l 1
 452 369 l 1
 455 380 456 389 456 397 c 0
EndSplineSet
Validated: 1
EndChar

StartChar: afii57679
Encoding: 1503 1503 625
Width: 297
Flags: MW
LayerCount: 2
Fore
SplineSet
-84 -200 m 1
 87 600 l 1
 226 600 l 1
 55 -200 l 1
 -84 -200 l 1
EndSplineSet
Validated: 1
EndChar

StartChar: afii57680
Encoding: 1504 1504 626
Width: 429
Flags: MW
LayerCount: 2
Fore
SplineSet
92 600 m 1
 219 600 322 528 322 412 c 0
 322 400 321 388 318 374 c 0
 239 0 l 1
 -47 0 l 1
 -23 115 l 1
 124 115 l 1
 178 365 l 2
 177 417 175 440 148 461 c 0
 127 475 96 485 67 485 c 1
 92 600 l 1
EndSplineSet
Validated: 1
EndChar

StartChar: afii57681
Encoding: 1505 1505 627
Width: 670
Flags: HMW
LayerCount: 2
Fore
SplineSet
356 600 m 2
 531.987 590.667 570.455 474.351 570.455 403.425 c 0
 570.455 392.305 569.509 382.301 568 374 c 2
 537 226 l 2
 490 102 422 59 388 44 c 0
 343 22 289 0 226 0 c 0
 225 0 223 0 222 0 c 2
 220 0 219 0 217 0 c 0
 97 0 0 79 0 189 c 0
 0 200 1 213 4 226 c 0
 83 600 l 1
 356 600 l 2
428 365 m 2
 425 446 426 464 320 485 c 2
 198 485 l 1
 145 235 l 1
 145 223 l 0
 145 186 149 157 172 141 c 0
 211 118 212 116 247 115 c 0
 342 118 375 179 400 235 c 2
 428 365 l 2
EndSplineSet
Validated: 1
EndChar

StartChar: afii57682
Encoding: 1506 1506 628
Width: 653
Flags: MW
LayerCount: 2
Fore
SplineSet
255 136 m 1
 344 169 347 195 376 262 c 2
 448 600 l 1
 587 600 l 1
 513 252 l 2
 465 132 435 83 261 21 c 2
 -71 -55 l 1
 -46 65 l 1
 114 101 l 1
 107 600 l 1
 248 600 l 1
 255 136 l 1
EndSplineSet
Validated: 1
EndChar

StartChar: afii57683
Encoding: 1507 1507 629
Width: 661
Flags: MW
LayerCount: 2
Fore
SplineSet
335 601 m 2
 470 597 554 518 554 424 c 0
 554 406 552 389 549 373 c 0
 427 -200 l 1
 288 -200 l 1
 409 367 l 1
 411 385 412 396 412 404 c 0
 412 432 391 458 359 476 c 0
 341 486 242 486 194 486 c 1
 178 407 l 1
 175 396 174 386 174 379 c 0
 174 360 187 356 221 356 c 2
 275 356 l 1
 250 241 l 1
 185 241 l 1
 150 246 102 243 62 284 c 0
 37 309 32 336 32 358 c 0
 32 373 35 387 37 398 c 2
 80 601 l 1
 335 601 l 2
EndSplineSet
Validated: 1
EndChar

StartChar: afii57684
Encoding: 1508 1508 630
Width: 660
Flags: MW
LayerCount: 2
Fore
SplineSet
342 600 m 2
 481 596 561 513 561 421 c 0
 561 404 560 388 556 372 c 0
 525 228 l 2
 468 50 339 10 215 0 c 1
 -41 0 l 1
 -16 115 l 1
 231 115 l 2
 283 121 310 118 364 180 c 0
 377 194 381 200 388 234 c 0
 416 366 l 1
 418 384 420 394 420 402 c 0
 420 417 411 449 365 475 c 0
 348 485 249 485 201 485 c 1
 184 406 l 1
 182 395 181 386 181 379 c 0
 181 358 193 355 228 355 c 2
 281 355 l 1
 257 240 l 1
 192 240 l 1
 156 245 108 242 68 283 c 0
 43 309 38 336 38 358 c 0
 38 373 41 386 43 397 c 2
 87 600 l 1
 342 600 l 2
EndSplineSet
Validated: 1
EndChar

StartChar: afii57685
Encoding: 1509 1509 631
Width: 616
Flags: MW
LayerCount: 2
Fore
SplineSet
294 362 m 1
 328 365 357 384 379 444 c 2
 413 600 l 1
 552 600 l 1
 516 433 l 2
 499 389 443 270 300 249 c 1
 204 -200 l 1
 65 -200 l 1
 169 286 l 1
 34 600 l 1
 192 600 l 1
 294 362 l 1
EndSplineSet
Validated: 1
EndChar

StartChar: afii57686
Encoding: 1510 1510 632
Width: 671
Flags: MW
LayerCount: 2
Fore
SplineSet
330 362 m 1
 364 365 382 383 414 444 c 2
 448 600 l 1
 587 600 l 1
 551 433 l 2
 518 349 454 281 375 258 c 1
 486 0 l 1
 -34 0 l 1
 -10 115 l 1
 279 115 l 1
 68 600 l 1
 226 600 l 1
 330 362 l 1
EndSplineSet
Validated: 1
EndChar

StartChar: afii57687
Encoding: 1511 1511 633
Width: 672
Flags: MW
LayerCount: 2
Fore
SplineSet
389 94 m 1
 331 65 293 51 225 49 c 1
 250 165 l 1
 256 164 l 1
 277 168 314 169 354 206 c 0
 381 235 385 250 401 285 c 1
 443 485 l 1
 63 485 l 1
 87 600 l 1
 607 600 l 1
 538 276 l 2
 496 159 425 111 389 94 c 1
178 371 m 1
 56 -200 l 1
 -83 -200 l 1
 39 371 l 1
 178 371 l 1
EndSplineSet
Validated: 1
EndChar

StartChar: afii57688
Encoding: 1512 1512 634
Width: 600
Flags: MW
LayerCount: 2
Fore
SplineSet
277 600 m 2
 364 590 490 562 490 406 c 0
 490 396 490 386 489 374 c 1
 410 0 l 1
 271 0 l 1
 349 365 l 2
 346 453 344 465 241 485 c 2
 46 485 l 1
 70 600 l 1
 277 600 l 2
EndSplineSet
Validated: 1
EndChar

StartChar: afii57689
Encoding: 1513 1513 635
Width: 840
Flags: MW
LayerCount: 2
Fore
SplineSet
262 0 m 2
 47 0 7 175 7 218 c 0
 7 234 9 249 12 265 c 2
 83 600 l 1
 222 600 l 1
 164 323 l 1
 232 323 l 2
 280 323 308 357 314 387 c 2
 359 600 l 1
 498 600 l 1
 453 387 l 2
 443 340 374 208 218 208 c 0
 215 208 211 208 208 208 c 0
 154 208 l 1
 158 198 l 2
 169 175 204 115 286 115 c 2
 365 115 l 2
 452 115 550 194 563 265 c 2
 635 600 l 1
 774 600 l 1
 702 265 l 2
 692 210 639 98 492 34 c 0
 444 11 392 0 341 0 c 2
 262 0 l 2
EndSplineSet
Validated: 1
EndChar

StartChar: afii57690
Encoding: 1514 1514 636
Width: 756
Flags: HMW
LayerCount: 2
Fore
SplineSet
505 366 m 2
 502 455 504 464 397 485 c 2
 312 485 l 1
 257 229 l 2
 246 193 241 98 128 44 c 0
 96 29 32 0 -32 0 c 0
 -43 0 -57 5 -57 5 c 1
 -32 121 l 1
 -32 121 -16 115 -4 115 c 0
 1 115 5 115 8 115 c 0
 42 115 77 140 90 153 c 0
 108 174 109 185 119 233 c 0
 173 485 l 1
 107 485 l 1
 131 600 l 1
 433 600 l 2
 577.482 583.271 649.971 506.942 649.971 412.959 c 0
 649.971 400.26 648.648 387.24 646 374 c 2
 566 0 l 1
 427 0 l 1
 505 366 l 2
EndSplineSet
Validated: 1
EndChar

StartChar: afii57716
Encoding: 1520 1520 637
Width: 554
Flags: MW
LayerCount: 2
Fore
SplineSet
216 0 m 1
 344 600 l 1
 483 600 l 1
 355 0 l 1
 216 0 l 1
-41 0 m 1
 87 600 l 1
 226 600 l 1
 98 0 l 1
 -41 0 l 1
EndSplineSet
Validated: 1
EndChar

StartChar: afii57717
Encoding: 1521 1521 638
Width: 550
Flags: MW
LayerCount: 2
Fore
SplineSet
212 0 m 1
 340 600 l 1
 479 600 l 1
 351 0 l 1
 212 0 l 1
163 333 m 1
 12 276 l 1
 81 600 l 1
 220 600 l 1
 163 333 l 1
EndSplineSet
Validated: 1
EndChar

StartChar: afii57718
Encoding: 1522 1522 639
Width: 542
Flags: MW
LayerCount: 2
Fore
SplineSet
421 333 m 1
 270 276 l 1
 339 600 l 1
 478 600 l 1
 421 333 l 1
163 333 m 1
 12 276 l 1
 81 600 l 1
 220 600 l 1
 163 333 l 1
EndSplineSet
Validated: 1
EndChar

StartChar: uni05F3
Encoding: 1523 1523 640
Width: 238
Flags: MW
LayerCount: 2
Fore
SplineSet
223 729 m 1
 195 599 l 1
 126 470 l 1
 70 470 l 1
 57 599 l 1
 85 729 l 1
 223 729 l 1
EndSplineSet
Validated: 1
EndChar

StartChar: uni05F4
Encoding: 1524 1524 641
Width: 474
Flags: MW
LayerCount: 2
Fore
SplineSet
223 729 m 1
 195 599 l 1
 126 470 l 1
 70 470 l 1
 57 599 l 1
 85 729 l 1
 223 729 l 1
459 729 m 1
 431 599 l 1
 362 470 l 1
 306 470 l 1
 293 599 l 1
 321 729 l 1
 459 729 l 1
EndSplineSet
Validated: 1
EndChar

StartChar: prosgegrammeni
Encoding: 8126 8126 817
Width: 201
Flags: HMW
LayerCount: 2
Fore
SplineSet
141 37 m 0
 170 37 164 43 175 61 c 1
 200 61 l 1
 187 1 136 0 78 0 c 0
 36 0 18 18 18 51 c 0
 18 60 19.543 68.9062 21 79 c 2
 35 176 l 1
 138 176 l 1
 127 111 127 92 127 72 c 0
 127 63 131 37 141 37 c 0
EndSplineSet
Validated: 3073
EndChar

StartChar: psili
Encoding: 8127 8127 818
Width: 147
Flags: MW
LayerCount: 2
Fore
SplineSet
148 740 m 1
 255 741 l 1
 240 672 l 2
 228 615 170 583 114 583 c 1
 123 625 l 1
 126 625 l 0
 145 625 164 626 174 670 c 1
 133 670 l 1
 148 740 l 1
EndSplineSet
Validated: 1
EndChar

StartChar: dialytikavaria
Encoding: 8173 8173 857
Width: 353
Flags: HMW
LayerCount: 2
Fore
SplineSet
347 796 m 1
 381 604 l 1
 311 604 l 1
 221 796 l 1
 347 796 l 1
233 700 m 1
 212.2 604 l 1
 124.2 604 l 1
 145 700 l 1
 233 700 l 1
509.8 700 m 1
 489 604 l 1
 401 604 l 1
 421.8 700 l 1
 509.8 700 l 1
EndSplineSet
Validated: 3073
EndChar

StartChar: dasia
Encoding: 8190 8190 868
Width: 159
Flags: HMW
LayerCount: 2
Fore
SplineSet
305.674 746 m 1
 281.731 676 l 1
 240.731 676 l 1
 237.1 664.965 235.54 656.634 235.54 650.346 c 0
 235.54 631.561 249.462 631 263.697 631 c 0
 266.697 631 l 1
 252.332 589 l 1
 206.096 589 170.253 610.132 170.253 649.583 c 0
 170.253 657.914 171.851 667.062 175.288 677 c 2
 198.674 746 l 1
 305.674 746 l 1
EndSplineSet
Validated: 3073
EndChar

StartChar: dieresistonos
Encoding: 901 901 870
Width: 446
Flags: HMW
LayerCount: 2
Fore
SplineSet
485 782 m 1
 340 590 l 1
 270 590 l 1
 359 782 l 1
 485 782 l 1
257 686 m 1
 236.2 590 l 1
 148.2 590 l 1
 169 686 l 1
 257 686 l 1
533.8 686 m 1
 513 590 l 1
 425 590 l 1
 445.8 686 l 1
 533.8 686 l 1
EndSplineSet
Validated: 3073
EndChar

StartChar: anoteleia
Encoding: 903 903 872
Width: 418
Flags: MW
LayerCount: 2
Fore
SplineSet
110 324 m 0
 110 351 137 446 239 446 c 0
 288 446 318 421 318 374 c 0
 318 307 258 250 189 250 c 0
 186 250 l 0
 137 250 110 280 110 324 c 0
EndSplineSet
Validated: 1
EndChar

StartChar: Alpha
Encoding: 913 913 880
Width: 764
Flags: MW
LayerCount: 2
Fore
SplineSet
630 -25 m 1
 470 -25 l 1
 440 193 l 1
 175 193 l 1
 43 -25 l 1
 -113 -25 l 1
 373 741 l 1
 508 741 l 1
 630 -25 l 1
394 549 m 1
 390 541 379 523 362 496 c 2
 253 319 l 1
 423 319 l 1
 402 483 l 2
 402 494 395 540 394 549 c 1
EndSplineSet
Validated: 1
EndChar

StartChar: Beta
Encoding: 914 914 881
Width: 688
Flags: MW
LayerCount: 2
Fore
SplineSet
542 386 m 1
 556 372 611 344 611 263 c 0
 611 182 552 79 473 28 c 0
 419 -7 345 -25 251 -25 c 2
 -46 -25 l 1
 145 741 l 1
 438 741 l 2
 621 741 656 649 656 588 c 0
 656 507 610 431 542 386 c 1
505 546 m 0
 505 595 479 607 374 607 c 2
 255 607 l 1
 214 441 l 1
 345 441 l 2
 440 441 505 456 505 546 c 0
284 109 m 2
 432 109 458 188 458 236 c 0
 458 291 406 305 321 305 c 2
 180 305 l 1
 131 109 l 1
 284 109 l 2
EndSplineSet
Validated: 1
EndChar

StartChar: Gamma
Encoding: 915 915 882
Width: 642
Flags: MW
LayerCount: 2
Fore
SplineSet
653 607 m 1
 265 607 l 1
 108 -25 l 1
 -38 -25 l 1
 153 741 l 1
 687 741 l 1
 653 607 l 1
EndSplineSet
Validated: 1
EndChar

StartChar: Delta
Encoding: 916 916 883
Width: 744
Flags: HMW
LayerCount: 2
Fore
SplineSet
626 -26 m 1
 486 -23 l 1
 -119 -26 l 1
 368 741 l 1
 503 741 l 1
 626 -26 l 1
388.708 549.257 m 1
 376.802 527.612 366.105 509.235 358 496 c 2
 121 109 l 1
 447 109 l 1
 397 483 l 2
 394.985 498.069 391.257 522.043 388.708 549.257 c 1
EndSplineSet
Validated: 1
EndChar

StartChar: Epsilon
Encoding: 917 917 884
Width: 710
Flags: MW
LayerCount: 2
Fore
SplineSet
544 -25 m 1
 -40 -25 l 1
 151 741 l 1
 719 741 l 1
 685 607 l 1
 261 607 l 1
 219 437 l 1
 615 437 l 1
 582 303 l 1
 186 303 l 1
 137 109 l 1
 577 109 l 1
 544 -25 l 1
EndSplineSet
Validated: 1
EndChar

StartChar: Zeta
Encoding: 918 918 885
Width: 688
Flags: MW
LayerCount: 2
Fore
SplineSet
531 -25 m 1
 -85 -25 l 1
 -55 97 l 1
 434 562 l 2
 462 589 478 604 482 607 c 1
 114 607 l 1
 148 741 l 1
 710 741 l 1
 680 623 l 1
 135 109 l 1
 564 109 l 1
 531 -25 l 1
EndSplineSet
Validated: 1
EndChar

StartChar: Eta
Encoding: 919 919 886
Width: 743
Flags: MW
LayerCount: 2
Fore
SplineSet
555 -25 m 1
 411 -25 l 1
 495 313 l 1
 173 313 l 1
 89 -25 l 1
 -55 -25 l 1
 136 741 l 1
 280 741 l 1
 206 447 l 1
 528 447 l 1
 602 741 l 1
 746 741 l 1
 555 -25 l 1
EndSplineSet
Validated: 1
EndChar

StartChar: Theta
Encoding: 920 920 887
Width: 810
Flags: MW
LayerCount: 2
Fore
SplineSet
485 755 m 0
 606 755 770 699 770 482 c 0
 770 299 666 105 486 11 c 0
 423 -21 357 -37 288 -37 c 0
 171 -37 0 16 0 228 c 0
 0 331 59 630 330 727 c 0
 380 746 432 755 485 755 c 0
152 265 m 0
 152 129 245 95 319 95 c 0
 571 95 616 383 618 452 c 0
 618 527 585 623 452 623 c 0
 212 623 152 346 152 265 c 0
564 303 m 1
 178 303 l 1
 211 437 l 1
 597 437 l 1
 564 303 l 1
EndSplineSet
Validated: 1
EndChar

StartChar: Iota
Encoding: 921 921 888
Width: 296
Flags: MW
LayerCount: 2
Fore
SplineSet
93 -25 m 1
 -51 -25 l 1
 140 741 l 1
 284 741 l 1
 93 -25 l 1
EndSplineSet
Validated: 1
EndChar

StartChar: endash
Encoding: 8211 8211 889
Width: 556
Flags: MW
LayerCount: 2
Fore
SplineSet
624 311 m 1
 602 207 l 1
 35 207 l 1
 57 311 l 1
 624 311 l 1
EndSplineSet
Validated: 1
EndChar

StartChar: emdash
Encoding: 8212 8212 890
Width: 1000
Flags: MW
LayerCount: 2
Fore
SplineSet
1070 311 m 1
 1048 207 l 1
 37 207 l 1
 59 311 l 1
 1070 311 l 1
EndSplineSet
Validated: 1
EndChar

StartChar: quoteleft
Encoding: 8216 8216 891
Width: 278
Flags: MW
LayerCount: 2
Fore
SplineSet
302 469 m 1
 167 469 l 1
 190 578 l 1
 204 665 268 722 357 729 c 1
 347 683 l 1
 289 673 257 644 248 594 c 1
 329 594 l 1
 302 469 l 1
EndSplineSet
Validated: 1
EndChar

StartChar: quoteright
Encoding: 8217 8217 892
Width: 278
Flags: MW
LayerCount: 2
Fore
SplineSet
220 729 m 1
 356 729 l 1
 333 620 l 1
 321 532 259 476 165 469 c 1
 175 515 l 1
 233 525 265 554 274 604 c 1
 193 604 l 1
 220 729 l 1
EndSplineSet
Validated: 1
EndChar

StartChar: quotesinglbase
Encoding: 8218 8218 893
Width: 278
Flags: MW
LayerCount: 2
Fore
SplineSet
92 125 m 1
 228 125 l 1
 205 16 l 1
 193 -72 131 -128 37 -135 c 1
 47 -89 l 1
 105 -79 137 -50 146 0 c 1
 65 0 l 1
 92 125 l 1
EndSplineSet
Validated: 1
EndChar

StartChar: quotedblleft
Encoding: 8220 8220 894
Width: 500
Flags: MW
LayerCount: 2
Fore
SplineSet
306 469 m 1
 171 469 l 1
 194 578 l 1
 208 665 272 722 361 729 c 1
 351 683 l 1
 293 673 261 644 252 594 c 1
 333 594 l 1
 306 469 l 1
533 469 m 1
 398 469 l 1
 421 578 l 1
 435 665 499 722 588 729 c 1
 578 683 l 1
 520 673 488 644 479 594 c 1
 560 594 l 1
 533 469 l 1
EndSplineSet
Validated: 1
EndChar

StartChar: quotedblright
Encoding: 8221 8221 895
Width: 500
Flags: MW
LayerCount: 2
Fore
SplineSet
228 729 m 1
 363 729 l 1
 340 620 l 1
 326 533 262 476 173 469 c 1
 183 515 l 1
 241 525 273 554 282 604 c 1
 201 604 l 1
 228 729 l 1
460 729 m 1
 595 729 l 1
 572 620 l 1
 558 533 494 476 405 469 c 1
 415 515 l 1
 473 525 505 554 514 604 c 1
 433 604 l 1
 460 729 l 1
EndSplineSet
Validated: 1
EndChar

StartChar: quotedblbase
Encoding: 8222 8222 896
Width: 500
Flags: MW
LayerCount: 2
Fore
SplineSet
92 125 m 1
 227 125 l 1
 204 16 l 1
 190 -71 126 -128 37 -135 c 1
 47 -89 l 1
 105 -79 137 -50 146 0 c 1
 65 0 l 1
 92 125 l 1
327 125 m 1
 462 125 l 1
 439 16 l 1
 425 -71 361 -128 272 -135 c 1
 282 -89 l 1
 340 -79 372 -50 381 0 c 1
 300 0 l 1
 327 125 l 1
EndSplineSet
Validated: 1
EndChar

StartChar: dagger
Encoding: 8224 8224 897
Width: 556
Flags: MW
LayerCount: 2
Fore
SplineSet
626 485 m 1
 601 369 l 1
 422 369 l 1
 303 -194 l 1
 169 -194 l 1
 288 369 l 1
 109 369 l 1
 134 485 l 1
 313 485 l 1
 361 709 l 1
 494 709 l 1
 447 485 l 1
 626 485 l 1
EndSplineSet
Validated: 1
EndChar

StartChar: daggerdbl
Encoding: 8225 8225 898
Width: 556
Flags: MW
LayerCount: 2
Fore
SplineSet
623 485 m 1
 598 369 l 1
 420 369 l 1
 372 146 l 1
 551 146 l 1
 526 30 l 1
 348 30 l 1
 300 -194 l 1
 166 -194 l 1
 214 30 l 1
 35 30 l 1
 60 146 l 1
 238 146 l 1
 286 369 l 1
 107 369 l 1
 132 485 l 1
 310 485 l 1
 358 709 l 1
 492 709 l 1
 444 485 l 1
 623 485 l 1
EndSplineSet
Validated: 1
EndChar

StartChar: bullet
Encoding: 8226 8226 899
Width: 350
Flags: MW
LayerCount: 2
Fore
SplineSet
258 425 m 0
 320 425 367 380 367 321 c 0
 367 246 295 175 217 175 c 0
 156 175 111 219 111 279 c 0
 111 356 181 425 258 425 c 0
EndSplineSet
Validated: 1
EndChar

StartChar: ellipsis
Encoding: 8230 8230 900
Width: 1000
Flags: MW
LayerCount: 2
Fore
SplineSet
273 146 m 1
 242 0 l 1
 92 0 l 1
 123 146 l 1
 273 146 l 1
606 146 m 1
 575 0 l 1
 425 0 l 1
 456 146 l 1
 606 146 l 1
939 146 m 1
 908 0 l 1
 758 0 l 1
 789 146 l 1
 939 146 l 1
EndSplineSet
Validated: 1
EndChar

StartChar: perthousand
Encoding: 8240 8240 901
Width: 1000
Flags: MW
LayerCount: 2
Fore
SplineSet
654 738 m 1
 721 738 l 1
 138 -21 l 1
 72 -21 l 1
 654 738 l 1
316 739 m 0
 388 739 440 690 440 622 c 0
 440 528 353 443 257 443 c 0
 187 443 134 493 134 560 c 0
 134 653 222 739 316 739 c 0
299 661 m 0
 255 661 214 620 214 575 c 0
 214 545 240 521 275 521 c 0
 319 521 360 561 360 604 c 0
 360 637 334 661 299 661 c 0
528 276 m 0
 600 276 652 227 652 159 c 0
 652 66 565 -20 469 -20 c 0
 399 -20 347 30 347 97 c 0
 347 190 434 276 528 276 c 0
512 198 m 0
 468 198 427 157 427 112 c 0
 427 82 453 58 487 58 c 0
 531 58 572 98 572 141 c 0
 572 174 546 198 512 198 c 0
897 276 m 0
 969 276 1021 227 1021 159 c 0
 1021 66 934 -20 838 -20 c 0
 768 -20 716 30 716 97 c 0
 716 190 803 276 897 276 c 0
881 198 m 0
 837 198 796 157 796 112 c 0
 796 82 822 58 856 58 c 0
 900 58 941 98 941 141 c 0
 941 174 915 198 881 198 c 0
EndSplineSet
Validated: 1
EndChar

StartChar: guilsinglleft
Encoding: 8249 8249 902
Width: 333
Flags: MW
LayerCount: 2
Fore
SplineSet
128 218 m 1
 152 332 l 1
 351 481 l 1
 326 364 l 1
 206 275 l 1
 288 186 l 1
 264 72 l 1
 128 218 l 1
EndSplineSet
Validated: 1
EndChar

StartChar: guilsinglright
Encoding: 8250 8250 903
Width: 333
Flags: MW
LayerCount: 2
Fore
SplineSet
319 335 m 1
 295 220 l 1
 96 72 l 1
 121 189 l 1
 241 278 l 1
 159 367 l 1
 183 481 l 1
 319 335 l 1
EndSplineSet
Validated: 1
EndChar

StartChar: fraction
Encoding: 8260 8260 904
Width: 167
Flags: MW
LayerCount: 2
Fore
SplineSet
404 715 m 1
 489 715 l 1
 -92 -20 l 1
 -177 -20 l 1
 404 715 l 1
EndSplineSet
Validated: 1
EndChar

StartChar: afii57636
Encoding: 8362 8362 908
Width: 1049
Flags: MW
LayerCount: 2
Fore
SplineSet
617 115 m 2
 687 121 739 141 769 231 c 2
 848 600 l 1
 987 600 l 1
 908 231 l 2
 897 180 861 84 722 25 c 0
 680 6 637 0 602 0 c 0
 593 0 l 2
 216 0 l 1
 296 378 l 1
 435 378 l 1
 379 115 l 1
 617 115 l 2
547 600 m 2
 641 600 704 550 704 476 c 0
 704 462 702 449 700 438 c 2
 653 218 l 1
 514 218 l 1
 561 438 l 2
 563 445 563 451 563 456 c 0
 563 478 539 485 523 485 c 2
 202 485 l 1
 99 0 l 1
 -40 0 l 1
 88 600 l 1
 547 600 l 2
EndSplineSet
Validated: 1
EndChar

StartChar: Euro
Encoding: 8364 8364 909
Width: 556
Flags: MW
LayerCount: 2
Fore
SplineSet
305 -23 m 0
 223 -23 97 15 94 250 c 1
 21 250 l 1
 60 318 l 1
 99 318 l 1
 104 347 106 358 114 386 c 1
 50 386 l 1
 89 454 l 1
 137 454 l 1
 211 625 336 724 479 724 c 0
 550 724 586 710 648 656 c 1
 575 527 l 1
 524 576 489 594 445 594 c 0
 382 594 325 545 283 454 c 1
 534 454 l 1
 495 386 l 1
 255 386 l 1
 247 359 243 340 239 318 c 1
 456 318 l 1
 418 250 l 1
 237 250 l 1
 244 158 280 108 340 108 c 0
 381 108 410 118 497 160 c 1
 466 11 l 1
 379 -16 345 -23 305 -23 c 0
EndSplineSet
Validated: 1
EndChar

StartChar: trademark
Encoding: 8482 8482 910
Width: 1000
Flags: MW
LayerCount: 2
Fore
SplineSet
445 649 m 1
 365 273 l 1
 270 273 l 1
 350 649 l 1
 213 649 l 1
 230 729 l 1
 595 729 l 1
 578 649 l 1
 445 649 l 1
816 273 m 1
 722 273 l 1
 712 622 l 1
 637 273 l 1
 546 273 l 1
 643 729 l 1
 781 729 l 1
 792 378 l 1
 950 729 l 1
 1087 729 l 1
 990 273 l 1
 899 273 l 1
 973 622 l 1
 816 273 l 1
EndSplineSet
Validated: 1
EndChar

StartChar: partialdiff
Encoding: 8706 8706 911
Width: 608
Flags: HW
LayerCount: 2
Fore
SplineSet
441.523 709 m 0
 521.13 709 652.677 682.329 652.677 477.156 c 0
 652.677 433.348 646.742 381.818 633.372 321.075 c 0
 590.235 125.095 491.695 -23 289.998 -23 c 0
 159.465 -23 82.5605 54.8135 82.5605 166.069 c 0
 82.5605 184.854 84.7412 204.542 89.1963 224.945 c 0
 118.425 358.808 235.831 454 380.773 454 c 0
 447.354 454 498.309 434.206 532.023 396.174 c 1
 537.048 425.843 539.488 452.653 539.488 476.405 c 0
 539.488 541.896 518.065 605 430.039 605 c 0
 369.065 605 317.892 569.159 289.195 505.981 c 2
 285.57 498 l 1
 163.898 498 l 1
 170.145 515.394 l 2
 214.447 636.154 317.973 709 441.523 709 c 0
374.717 350 m 0
 289.482 350 223.871 298.425 203.189 212.922 c 0
 200.467 200.924 199.203 189.522 199.203 178.843 c 0
 199.203 121.142 239.181 81 306.909 81 c 0
 387.918 81 466.113 140.201 486.103 222.848 c 0
 488.89 234.371 490.212 245.254 490.212 255.396 c 0
 490.212 313.998 446.793 350 374.717 350 c 0
EndSplineSet
Validated: 3073
EndChar

StartChar: Delta.math
Encoding: 8710 8710 912
Width: 729
Flags: W
HStem: 0 125<230 549> 709 20G<432.038 593.594>
LayerCount: 2
Fore
SplineSet
8 0 m 1
 444 729 l 1
 590 729 l 1
 721 0 l 1
 8 0 l 1
230 125 m 1
 549 125 l 1
 483 564 l 1
 230 125 l 1
EndSplineSet
Validated: 1
EndChar

StartChar: summation
Encoding: 8721 8721 913
Width: 856
VWidth: 2048
Flags: HW
LayerCount: 2
Fore
SplineSet
220.503 729 m 1
 892.062 729 l 1
 866.129 607 l 1
 390.963 607 l 1
 650.969 276.747 l 1
 226.129 -74 l 1
 727.058 -74 l 1
 700.272 -195 l 1
 -0.448242 -195 l 1
 19.5 -101.146 l 1
 471.3 278.934 l 1
 197.485 628.182 l 1
 220.503 729 l 1
EndSplineSet
Validated: 3073
EndChar

StartChar: minus
Encoding: 8722 8722 914
Width: 584
Flags: MW
LayerCount: 2
Fore
SplineSet
606 292 m 1
 581 172 l 1
 77 172 l 1
 102 292 l 1
 606 292 l 1
EndSplineSet
Validated: 1
EndChar

StartChar: radical
Encoding: 8730 8730 915
Width: 597
Flags: HW
LayerCount: 2
Fore
SplineSet
689.979 917.75 m 1
 764.423 905.419 l 1
 375.459 -74.0674 l 1
 230.04 430.849 l 1
 123.746 383.024 l 1
 102.226 455.22 l 1
 294.636 539.128 l 1
 394.439 179.14 l 1
 689.979 917.75 l 1
EndSplineSet
Validated: 3073
EndChar

StartChar: notequal
Encoding: 8800 8800 916
Width: 584
Flags: MW
LayerCount: 2
Fore
SplineSet
129 52 m 1
 61 52 l 1
 86 172 l 1
 220 172 l 1
 313 292 l 1
 112 292 l 1
 137 412 l 1
 405 412 l 1
 507 544 l 1
 602 481 l 1
 549 412 l 1
 622 412 l 1
 597 292 l 1
 457 292 l 1
 364 172 l 1
 571 172 l 1
 546 52 l 1
 273 52 l 1
 176 -74 l 1
 81 -11 l 1
 129 52 l 1
EndSplineSet
Validated: 1
EndChar

StartChar: lessequal
Encoding: 8804 8804 917
Width: 584
Flags: MW
LayerCount: 2
Fore
SplineSet
546 104 m 1
 524 0 l 1
 35 0 l 1
 57 104 l 1
 546 104 l 1
657 624 m 1
 629 495 l 1
 290 382 l 1
 582 271 l 1
 554 140 l 1
 104 322 l 1
 129 443 l 1
 657 624 l 1
EndSplineSet
Validated: 1
EndChar

StartChar: greaterequal
Encoding: 8805 8805 918
Width: 584
Flags: MW
LayerCount: 2
Fore
SplineSet
555 104 m 1
 533 0 l 1
 44 0 l 1
 66 104 l 1
 555 104 l 1
74 140 m 1
 102 269 l 1
 441 382 l 1
 149 493 l 1
 177 624 l 1
 627 442 l 1
 601 321 l 1
 74 140 l 1
EndSplineSet
Validated: 1
EndChar

StartChar: lozenge
Encoding: 9674 9674 919
Width: 489
Flags: HMW
LayerCount: 2
Fore
SplineSet
437.638 757 m 1
 555.321 369.581 l 1
 276.613 -13 l 1
 198.362 -13 l 1
 80.6787 374.419 l 1
 359.387 757 l 1
 437.638 757 l 1
256.894 88.8223 m 1
 464.69 374.43 l 1
 380.106 655.178 l 1
 172.31 369.57 l 1
 256.894 88.8223 l 1
EndSplineSet
Validated: 3073
EndChar

StartChar: uniFB1D
Encoding: 64285 64285 920
Width: 284
Flags: MW
LayerCount: 2
Fore
SplineSet
33 224 m 1
 116 224 l 1
 98 142 l 1
 16 142 l 1
 33 224 l 1
163 333 m 1
 12 276 l 1
 81 600 l 1
 220 600 l 1
 163 333 l 1
EndSplineSet
Validated: 1
EndChar

StartChar: uniFB1E
Encoding: 64286 64286 921
Width: 305
Flags: HMW
LayerCount: 2
Fore
SplineSet
194 760 m 0
 234 760 252 789 259 813 c 1
 359 813 l 1
 359 813 341 760 318 731 c 0
 281 686 227 660 173 660 c 0
 126 660 52 678 52 785 c 0
 52 801 53 813 53 813 c 1
 153 813 l 1
 153 813 152 807 152 800 c 0
 152 783 158 760 194 760 c 0
EndSplineSet
Validated: 1
EndChar

StartChar: afii57705
Encoding: 64287 64287 922
Width: 542
Flags: MW
LayerCount: 2
Fore
SplineSet
91 222 m 1
 291 222 l 1
 274 140 l 1
 74 140 l 1
 91 222 l 1
421 333 m 1
 270 276 l 1
 339 600 l 1
 478 600 l 1
 421 333 l 1
163 333 m 1
 12 276 l 1
 81 600 l 1
 220 600 l 1
 163 333 l 1
EndSplineSet
Validated: 1
EndChar

StartChar: uniFB20
Encoding: 64288 64288 923
Width: 653
Flags: MW
LayerCount: 2
Fore
SplineSet
255 118 m 1
 281 122 349 153 369 231 c 2
 448 600 l 1
 587 600 l 1
 508 231 l 2
 475 56 279 0 216 0 c 0
 215 0 213 0 212 0 c 2
 -34 0 l 1
 -9 115 l 1
 113 115 l 1
 107 600 l 1
 248 600 l 1
 255 118 l 1
EndSplineSet
Validated: 1
EndChar

StartChar: uniFB21
Encoding: 64289 64289 924
Width: 964
Flags: MW
LayerCount: 2
Fore
SplineSet
294 337 m 1
 225 287 163 261 139 148 c 0
 108 0 l 1
 -31 0 l 1
 2 158 l 2
 49 275 102 350 222 421 c 1
 69 600 l 1
 264 600 l 1
 558 258 l 1
 642 324 689 365 706 444 c 0
 740 600 l 1
 879 600 l 1
 843 433 l 2
 800 325 730 230 623 183 c 1
 780 0 l 1
 580 0 l 1
 294 337 l 1
EndSplineSet
Validated: 1
EndChar

StartChar: uniFB22
Encoding: 64290 64290 925
Width: 888
Flags: MW
LayerCount: 2
Fore
SplineSet
577 485 m 1
 46 485 l 1
 70 600 l 1
 823 600 l 1
 799 485 l 1
 716 485 l 1
 613 0 l 1
 474 0 l 1
 577 485 l 1
EndSplineSet
Validated: 1
EndChar

StartChar: uniFB23
Encoding: 64291 64291 926
Width: 932
Flags: HMW
LayerCount: 2
Fore
SplineSet
609 600 m 2
 794 578 822 485 822 408 c 0
 822 402.286 822.653 395.918 822.653 389.271 c 0
 822.653 384.286 822.286 379.143 821 374 c 0
 742 0 l 1
 603 0 l 1
 681 365 l 2
 678 453 677 465 573 485 c 2
 62 485 l 1
 87 600 l 1
 609 600 l 2
-41 0 m 1
 34 349 l 1
 173 349 l 1
 98 0 l 1
 -41 0 l 1
EndSplineSet
Validated: 1
EndChar

StartChar: uniFB24
Encoding: 64292 64292 927
Width: 845
Flags: HMW
LayerCount: 2
Fore
SplineSet
531 600 m 2
 620 590 744 561 744 406 c 0
 744 401 744.25 395.75 744.25 390.375 c 0
 744.25 385 744 379.5 743 374 c 0
 712 226 l 2
 668 108 598 21 403 0 c 2
 -44 0 l 1
 -19 115 l 1
 416 115 l 2
 510 132 534 139 575 235 c 2
 603 365 l 2
 601 446 601 464 495 485 c 2
 59 485 l 1
 84 600 l 1
 531 600 l 2
EndSplineSet
Validated: 1
EndChar

StartChar: uniFB25
Encoding: 64293 64293 928
Width: 917
Flags: MW
LayerCount: 2
Fore
SplineSet
436 101 m 2
 415 0 l 1
 276 0 l 1
 299 107 l 1
 309 156 351 202 397 240 c 0
 517 339 641 324 675 419 c 2
 689 485 l 1
 45 485 l 1
 102 750 l 1
 241 750 l 1
 209 600 l 1
 853 600 l 1
 813 412 l 2
 772 235 458 251 436 101 c 2
EndSplineSet
Validated: 1
EndChar

StartChar: uniFB26
Encoding: 64294 64294 929
Width: 933
Flags: MW
LayerCount: 2
Fore
SplineSet
604 600 m 2
 737 600 826 517 826 411 c 0
 826 397 824 383 821 369 c 0
 743 0 l 1
 -40 0 l 1
 87 600 l 1
 604 600 l 2
684 389 m 0
 684 448 640 483 580 485 c 2
 202 485 l 1
 123 115 l 1
 628 115 l 1
 682 369 l 1
 683 376 684 382 684 389 c 0
EndSplineSet
Validated: 1
EndChar

StartChar: uniFB27
Encoding: 64295 64295 930
Width: 850
Flags: HMW
LayerCount: 2
Fore
SplineSet
527 600 m 2
 712 578 740 485 740 408 c 0
 740 402.286 740.653 395.918 740.653 389.271 c 0
 740.653 384.286 740.286 379.143 739 374 c 0
 660 0 l 1
 521 0 l 1
 599 365 l 2
 596 453 595 465 491 485 c 2
 46 485 l 1
 70 600 l 1
 527 600 l 2
EndSplineSet
Validated: 1
EndChar

StartChar: uniFB28
Encoding: 64296 64296 931
Width: 1006
Flags: HMW
LayerCount: 2
Fore
SplineSet
755 366 m 2
 752 455 754 464 647 485 c 2
 312 485 l 1
 257 229 l 2
 246 193 241 98 128 44 c 0
 96 29 32 0 -32 0 c 0
 -43 0 -57 5 -57 5 c 1
 -32 121 l 1
 -32 121 -16 115 -4 115 c 0
 1 115 5 115 8 115 c 0
 42 115 77 140 90 153 c 0
 108 174 109 185 119 233 c 0
 173 485 l 1
 107 485 l 1
 131 600 l 1
 683 600 l 2
 778 589 897 561 897 403 c 0
 897 398.5 897.25 393.75 897.25 388.875 c 0
 897.25 384 897 379 896 374 c 0
 816 0 l 1
 677 0 l 1
 755 366 l 2
EndSplineSet
Validated: 1
EndChar

StartChar: uniFB29
Encoding: 64297 64297 932
Width: 584
Flags: MW
LayerCount: 2
Fore
SplineSet
475 291 m 1
 450 172 l 1
 -33 172 l 1
 -8 291 l 1
 174 291 l 1
 213 473 l 1
 332 473 l 1
 293 291 l 1
 475 291 l 1
EndSplineSet
Validated: 1
EndChar

StartChar: afii57694
Encoding: 64298 64298 933
Width: 840
Flags: MW
LayerCount: 2
Fore
SplineSet
683 721 m 1
 765 721 l 1
 748 639 l 1
 665 639 l 1
 683 721 l 1
262 0 m 2
 47 0 7 175 7 218 c 0
 7 234 9 249 12 265 c 2
 83 600 l 1
 222 600 l 1
 164 323 l 1
 232 323 l 2
 280 323 308 357 314 387 c 2
 359 600 l 1
 498 600 l 1
 453 387 l 2
 443 340 374 208 218 208 c 0
 215 208 211 208 208 208 c 0
 154 208 l 1
 158 198 l 2
 169 175 204 115 286 115 c 2
 365 115 l 2
 452 115 550 194 563 265 c 2
 635 600 l 1
 774 600 l 1
 702 265 l 2
 692 210 639 98 492 34 c 0
 444 11 392 0 341 0 c 2
 262 0 l 2
EndSplineSet
Validated: 1
EndChar

StartChar: afii57695
Encoding: 64299 64299 934
Width: 840
Flags: MW
LayerCount: 2
Fore
SplineSet
134 721 m 1
 216 721 l 1
 199 639 l 1
 116 639 l 1
 134 721 l 1
262 0 m 2
 47 0 7 175 7 218 c 0
 7 234 9 249 12 265 c 2
 83 600 l 1
 222 600 l 1
 164 323 l 1
 232 323 l 2
 280 323 308 357 314 387 c 2
 359 600 l 1
 498 600 l 1
 453 387 l 2
 443 340 374 208 218 208 c 0
 215 208 211 208 208 208 c 0
 154 208 l 1
 158 198 l 2
 169 175 204 115 286 115 c 2
 365 115 l 2
 452 115 550 194 563 265 c 2
 635 600 l 1
 774 600 l 1
 702 265 l 2
 692 210 639 98 492 34 c 0
 444 11 392 0 341 0 c 2
 262 0 l 2
EndSplineSet
Validated: 1
EndChar

StartChar: uniFB2C
Encoding: 64300 64300 935
Width: 840
Flags: MW
LayerCount: 2
Fore
SplineSet
683 721 m 1
 765 721 l 1
 748 639 l 1
 665 639 l 1
 683 721 l 1
406 263 m 1
 488 263 l 1
 471 181 l 1
 389 181 l 1
 406 263 l 1
262 0 m 2
 47 0 7 175 7 218 c 0
 7 234 9 249 12 265 c 2
 83 600 l 1
 222 600 l 1
 164 323 l 1
 232 323 l 2
 280 323 308 357 314 387 c 2
 359 600 l 1
 498 600 l 1
 453 387 l 2
 443 340 374 208 218 208 c 0
 215 208 211 208 208 208 c 0
 154 208 l 1
 158 198 l 2
 169 175 204 115 286 115 c 2
 365 115 l 2
 452 115 550 194 563 265 c 2
 635 600 l 1
 774 600 l 1
 702 265 l 2
 692 210 639 98 492 34 c 0
 444 11 392 0 341 0 c 2
 262 0 l 2
EndSplineSet
Validated: 1
EndChar

StartChar: uniFB2D
Encoding: 64301 64301 936
Width: 840
Flags: MW
LayerCount: 2
Fore
SplineSet
134 721 m 1
 216 721 l 1
 199 639 l 1
 116 639 l 1
 134 721 l 1
406 263 m 1
 488 263 l 1
 471 181 l 1
 389 181 l 1
 406 263 l 1
262 0 m 2
 47 0 7 175 7 218 c 0
 7 234 9 249 12 265 c 2
 83 600 l 1
 222 600 l 1
 164 323 l 1
 232 323 l 2
 280 323 308 357 314 387 c 2
 359 600 l 1
 498 600 l 1
 453 387 l 2
 443 340 374 208 218 208 c 0
 215 208 211 208 208 208 c 0
 154 208 l 1
 158 198 l 2
 169 175 204 115 286 115 c 2
 365 115 l 2
 452 115 550 194 563 265 c 2
 635 600 l 1
 774 600 l 1
 702 265 l 2
 692 210 639 98 492 34 c 0
 444 11 392 0 341 0 c 2
 262 0 l 2
EndSplineSet
Validated: 1
EndChar

StartChar: uniFB2E
Encoding: 64302 64302 937
Width: 714
Flags: MW
LayerCount: 2
Fore
SplineSet
123 -60 m 1
 323 -60 l 1
 306 -142 l 1
 106 -142 l 1
 123 -60 l 1
226 285 m 1
 177 237 165 207 139 148 c 1
 108 0 l 1
 -31 0 l 1
 2 158 l 2
 59 302 125 357 174 388 c 1
 69 600 l 1
 230 600 l 1
 372 315 l 1
 420 362 431 389 456 444 c 1
 490 600 l 1
 629 600 l 1
 593 433 l 2
 539 297 469 241 423 212 c 1
 530 0 l 1
 367 0 l 1
 226 285 l 1
EndSplineSet
Validated: 1
EndChar

StartChar: uniFB2F
Encoding: 64303 64303 938
Width: 714
Flags: MW
LayerCount: 2
Fore
SplineSet
255 -142 m 1
 232 -248 l 1
 150 -248 l 1
 173 -142 l 1
 114 -142 l 1
 131 -60 l 1
 331 -60 l 1
 314 -142 l 1
 255 -142 l 1
226 285 m 1
 177 237 165 207 139 148 c 1
 108 0 l 1
 -31 0 l 1
 2 158 l 2
 59 302 125 357 174 388 c 1
 69 600 l 1
 230 600 l 1
 372 315 l 1
 420 362 431 389 456 444 c 1
 490 600 l 1
 629 600 l 1
 593 433 l 2
 539 297 469 241 423 212 c 1
 530 0 l 1
 367 0 l 1
 226 285 l 1
EndSplineSet
Validated: 1
EndChar

StartChar: uniFB30
Encoding: 64304 64304 939
Width: 714
Flags: MW
LayerCount: 2
Fore
SplineSet
178 153 m 1
 260 153 l 1
 243 71 l 1
 161 71 l 1
 178 153 l 1
226 285 m 1
 177 237 165 207 139 148 c 1
 108 0 l 1
 -31 0 l 1
 2 158 l 2
 59 302 125 357 174 388 c 1
 69 600 l 1
 230 600 l 1
 372 315 l 1
 420 362 431 389 456 444 c 1
 490 600 l 1
 629 600 l 1
 593 433 l 2
 539 297 469 241 423 212 c 1
 530 0 l 1
 367 0 l 1
 226 285 l 1
EndSplineSet
Validated: 1
EndChar

StartChar: uniFB31
Encoding: 64305 64305 940
Width: 651
Flags: HMW
LayerCount: 2
Fore
SplineSet
168 339 m 1
 250 339 l 1
 233 257 l 1
 151 257 l 1
 168 339 l 1
266 600 m 2
 451 578 479 485 479 408 c 0
 479 402.286 479.653 395.918 479.653 389.271 c 0
 479.653 384.286 479.286 379.143 478 374 c 0
 423 115 l 1
 515 115 l 1
 490 0 l 1
 -43 0 l 1
 -19 115 l 1
 284 115 l 1
 338 365 l 2
 336 446 336 464 230 485 c 2
 60 485 l 1
 84 600 l 1
 266 600 l 2
EndSplineSet
Validated: 1
EndChar

StartChar: uniFB32
Encoding: 64306 64306 941
Width: 557
Flags: MW
LayerCount: 2
Fore
SplineSet
142 339 m 1
 224 339 l 1
 207 257 l 1
 125 257 l 1
 142 339 l 1
208 600 m 2
 399 578 417 501 420 378 c 2
 383 0 l 1
 243 0 l 1
 257 138 l 1
 100 0 l 1
 -73 0 l 1
 145 194 l 1
 262 194 l 1
 279 361 l 2
 274 451 280 464 171 485 c 2
 99 485 l 1
 123 600 l 1
 208 600 l 2
EndSplineSet
Validated: 1
EndChar

StartChar: uniFB33
Encoding: 64307 64307 942
Width: 638
Flags: MW
LayerCount: 2
Fore
SplineSet
158 339 m 1
 240 339 l 1
 223 257 l 1
 141 257 l 1
 158 339 l 1
327 485 m 1
 46 485 l 1
 70 600 l 1
 573 600 l 1
 549 485 l 1
 466 485 l 1
 363 0 l 1
 224 0 l 1
 327 485 l 1
EndSplineSet
Validated: 1
EndChar

StartChar: uniFB34
Encoding: 64308 64308 943
Width: 682
Flags: MW
LayerCount: 2
Fore
SplineSet
256 339 m 1
 338 339 l 1
 321 257 l 1
 239 257 l 1
 256 339 l 1
359 600 m 2
 446 590 572 562 572 406 c 0
 572 396 572 386 571 374 c 1
 492 0 l 1
 353 0 l 1
 431 365 l 2
 428 453 426 465 323 485 c 2
 62 485 l 1
 87 600 l 1
 359 600 l 2
-41 0 m 1
 34 349 l 1
 173 349 l 1
 98 0 l 1
 -41 0 l 1
EndSplineSet
Validated: 1
EndChar

StartChar: afii57723
Encoding: 64309 64309 944
Width: 367
Flags: MW
LayerCount: 2
Fore
SplineSet
-18 339 m 1
 64 339 l 1
 47 257 l 1
 -35 257 l 1
 -18 339 l 1
29 0 m 1
 157 600 l 1
 296 600 l 1
 168 0 l 1
 29 0 l 1
EndSplineSet
Validated: 1
EndChar

StartChar: uniFB36
Encoding: 64310 64310 945
Width: 443
Flags: MW
LayerCount: 2
Fore
SplineSet
-22 339 m 1
 60 339 l 1
 43 257 l 1
 -39 257 l 1
 -22 339 l 1
132 485 m 1
 47 485 l 1
 71 600 l 1
 378 600 l 1
 354 485 l 1
 271 485 l 1
 168 0 l 1
 29 0 l 1
 132 485 l 1
EndSplineSet
Validated: 1
EndChar

StartChar: uniFB38
Encoding: 64312 64312 946
Width: 670
Flags: HMW
LayerCount: 2
Fore
SplineSet
252 339 m 1
 334 339 l 1
 317 257 l 1
 235 257 l 1
 252 339 l 1
323 485 m 2
 296 485 274 473 274 473 c 1
 300 595 l 1
 314 597 318 600 353 600 c 0
 481 600 569 524 569 406 c 0
 569 401 569.25 395.75 569.25 390.375 c 0
 569.25 385 569 379.5 568 374 c 0
 537 226 l 2
 491 102 423 59 388 44 c 0
 342 21 287 0 222 0 c 0
 92 0 3 78 3 195 c 0
 3 199.5 2.75 204.5 2.75 209.75 c 0
 2.75 215 3 220.5 4 226 c 0
 83 600 l 1
 222 600 l 1
 145 235 l 1
 145 223 l 0
 145 186 149 157 172 141 c 0
 211 118 212 116 247 115 c 0
 342 118 376 179 400 235 c 2
 428 365 l 2
 427 404 427 441 400 459 c 0
 363 480 362 485 323 485 c 2
EndSplineSet
Validated: 1
EndChar

StartChar: uniFB39
Encoding: 64313 64313 947
Width: 354
Flags: MW
LayerCount: 2
Fore
SplineSet
-14 437 m 1
 68 437 l 1
 51 355 l 1
 -31 355 l 1
 -14 437 l 1
233 333 m 1
 82 276 l 1
 151 600 l 1
 290 600 l 1
 233 333 l 1
EndSplineSet
Validated: 1
EndChar

StartChar: uniFB3A
Encoding: 64314 64314 948
Width: 590
Flags: HMW
LayerCount: 2
Fore
SplineSet
168 339 m 1
 250 339 l 1
 233 257 l 1
 151 257 l 1
 168 339 l 1
267 600 m 2
 356 590 480 561 480 406 c 0
 480 401 480.25 395.75 480.25 390.375 c 0
 480.25 385 480 379.5 479 374 c 0
 357 -200 l 1
 218 -200 l 1
 339 365 l 2
 337 446 337 464 231 485 c 2
 45 485 l 1
 70 600 l 1
 267 600 l 2
EndSplineSet
Validated: 1
EndChar

StartChar: uniFB3B
Encoding: 64315 64315 949
Width: 595
Flags: HMW
LayerCount: 2
Fore
SplineSet
164 339 m 1
 246 339 l 1
 229 257 l 1
 147 257 l 1
 164 339 l 1
281 600 m 2
 369 590 494 561 494 406 c 0
 494 401 494.25 395.75 494.25 390.375 c 0
 494.25 385 494 379.5 493 374 c 0
 462 226 l 2
 418 108 348 21 153 0 c 2
 -44 0 l 1
 -19 115 l 1
 166 115 l 2
 260 132 283 139 325 235 c 2
 353 365 l 2
 350 446 351 464 245 485 c 2
 59 485 l 1
 84 600 l 1
 281 600 l 2
EndSplineSet
Validated: 1
EndChar

StartChar: uniFB3C
Encoding: 64316 64316 950
Width: 667
Flags: MW
LayerCount: 2
Fore
SplineSet
210 419 m 1
 292 419 l 1
 275 337 l 1
 193 337 l 1
 210 419 l 1
311 101 m 1
 290 0 l 1
 151 0 l 1
 174 107 l 1
 189 154 195 188 237 233 c 0
 299 299 363 312 385 337 c 0
 410 365 416 379 425 419 c 0
 439 485 l 1
 45 485 l 1
 102 750 l 1
 241 750 l 1
 209 600 l 1
 603 600 l 1
 563 412 l 2
 506 224 390 219 352 183 c 0
 325 157 320 141 311 101 c 1
EndSplineSet
Validated: 1
EndChar

StartChar: uniFB3E
Encoding: 64318 64318 951
Width: 704
Flags: MW
LayerCount: 2
Fore
SplineSet
288 339 m 1
 370 339 l 1
 353 257 l 1
 271 257 l 1
 288 339 l 1
456 397 m 0
 456 416 440 485 350 485 c 2
 281 485 l 1
 106 0 l 1
 -34 0 l 1
 141 485 l 1
 50 485 l 1
 75 600 l 1
 374 600 l 2
 508 600 597 519 597 419 c 0
 597 400 594 383 591 369 c 0
 513 0 l 1
 243 0 l 1
 267 115 l 1
 398 115 l 1
 452 369 l 1
 455 380 456 389 456 397 c 0
EndSplineSet
Validated: 1
EndChar

StartChar: uniFB40
Encoding: 64320 64320 952
Width: 429
Flags: MW
LayerCount: 2
Fore
SplineSet
29 339 m 1
 111 339 l 1
 94 257 l 1
 12 257 l 1
 29 339 l 1
92 600 m 1
 219 600 322 528 322 412 c 0
 322 400 321 388 318 374 c 0
 239 0 l 1
 -47 0 l 1
 -23 115 l 1
 124 115 l 1
 178 365 l 2
 177 417 175 440 148 461 c 0
 127 475 96 485 67 485 c 1
 92 600 l 1
EndSplineSet
Validated: 1
EndChar

StartChar: uniFB41
Encoding: 64321 64321 953
Width: 670
Flags: HMW
LayerCount: 2
Fore
SplineSet
252 339 m 1
 334 339 l 1
 317 257 l 1
 235 257 l 1
 252 339 l 1
356 600 m 2
 488 593 569 524 569 406 c 0
 569 401 569.25 395.75 569.25 390.375 c 0
 569.25 385 569 379.5 568 374 c 0
 537 226 l 2
 490 102 422 59 388 44 c 0
 343 22 289 0 226 0 c 0
 225 0 223 0 222 0 c 2
 220 0 219 0 217 0 c 0
 97 0 0 79 0 189 c 0
 0 200 1 213 4 226 c 0
 83 600 l 1
 356 600 l 2
428 365 m 2
 425 446 426 464 320 485 c 2
 198 485 l 1
 145 235 l 1
 145 223 l 0
 145 186 149 157 172 141 c 0
 211 118 212 116 247 115 c 0
 342 118 375 179 400 235 c 2
 428 365 l 2
EndSplineSet
Validated: 1
EndChar

StartChar: uniFB43
Encoding: 64323 64323 954
Width: 661
Flags: MW
LayerCount: 2
Fore
SplineSet
309 396 m 1
 391 396 l 1
 374 314 l 1
 292 314 l 1
 309 396 l 1
335 601 m 2
 470 597 554 518 554 424 c 0
 554 406 552 389 549 373 c 0
 427 -200 l 1
 288 -200 l 1
 409 367 l 1
 411 385 412 396 412 404 c 0
 412 432 391 458 359 476 c 0
 341 486 242 486 194 486 c 1
 178 407 l 1
 175 396 174 386 174 379 c 0
 174 360 187 356 221 356 c 2
 275 356 l 1
 250 241 l 1
 185 241 l 1
 150 246 102 243 62 284 c 0
 37 309 32 336 32 358 c 0
 32 373 35 387 37 398 c 2
 80 601 l 1
 335 601 l 2
EndSplineSet
Validated: 1
EndChar

StartChar: uniFB44
Encoding: 64324 64324 955
Width: 660
Flags: MW
LayerCount: 2
Fore
SplineSet
318 389 m 1
 400 389 l 1
 383 307 l 1
 301 307 l 1
 318 389 l 1
342 600 m 2
 481 596 561 513 561 421 c 0
 561 404 560 388 556 372 c 0
 525 228 l 2
 468 50 339 10 215 0 c 1
 -41 0 l 1
 -16 115 l 1
 231 115 l 2
 283 121 310 118 364 180 c 0
 377 194 381 200 388 234 c 0
 416 366 l 1
 418 384 420 394 420 402 c 0
 420 417 411 449 365 475 c 0
 348 485 249 485 201 485 c 1
 184 406 l 1
 182 395 181 386 181 379 c 0
 181 358 193 355 228 355 c 2
 281 355 l 1
 257 240 l 1
 192 240 l 1
 156 245 108 242 68 283 c 0
 43 309 38 336 38 358 c 0
 38 373 41 386 43 397 c 2
 87 600 l 1
 342 600 l 2
EndSplineSet
Validated: 1
EndChar

StartChar: uniFB46
Encoding: 64326 64326 956
Width: 671
Flags: MW
LayerCount: 2
Fore
SplineSet
58 287 m 1
 140 287 l 1
 123 205 l 1
 41 205 l 1
 58 287 l 1
330 362 m 1
 364 365 382 383 414 444 c 2
 448 600 l 1
 587 600 l 1
 551 433 l 2
 518 349 454 281 375 258 c 1
 486 0 l 1
 -34 0 l 1
 -10 115 l 1
 279 115 l 1
 68 600 l 1
 226 600 l 1
 330 362 l 1
EndSplineSet
Validated: 1
EndChar

StartChar: uniFB47
Encoding: 64327 64327 957
Width: 672
Flags: MW
LayerCount: 2
Fore
SplineSet
246 366 m 1
 328 366 l 1
 311 284 l 1
 229 284 l 1
 246 366 l 1
389 94 m 1
 331 65 293 51 225 49 c 1
 250 165 l 1
 256 164 l 1
 277 168 314 169 354 206 c 0
 381 235 385 250 401 285 c 1
 443 485 l 1
 63 485 l 1
 87 600 l 1
 607 600 l 1
 538 276 l 2
 496 159 425 111 389 94 c 1
178 371 m 1
 56 -200 l 1
 -83 -200 l 1
 39 371 l 1
 178 371 l 1
EndSplineSet
Validated: 1
EndChar

StartChar: uniFB48
Encoding: 64328 64328 958
Width: 600
Flags: MW
LayerCount: 2
Fore
SplineSet
168 339 m 1
 250 339 l 1
 233 257 l 1
 151 257 l 1
 168 339 l 1
277 600 m 2
 364 590 490 562 490 406 c 0
 490 396 490 386 489 374 c 1
 410 0 l 1
 271 0 l 1
 349 365 l 2
 346 453 344 465 241 485 c 2
 46 485 l 1
 70 600 l 1
 277 600 l 2
EndSplineSet
Validated: 1
EndChar

StartChar: uniFB49
Encoding: 64329 64329 959
Width: 840
Flags: MW
LayerCount: 2
Fore
SplineSet
406 263 m 1
 488 263 l 1
 471 181 l 1
 389 181 l 1
 406 263 l 1
262 0 m 2
 47 0 7 175 7 218 c 0
 7 234 9 249 12 265 c 2
 83 600 l 1
 222 600 l 1
 164 323 l 1
 232 323 l 2
 280 323 308 357 314 387 c 2
 359 600 l 1
 498 600 l 1
 453 387 l 2
 443 340 374 208 218 208 c 0
 215 208 211 208 208 208 c 0
 154 208 l 1
 158 198 l 2
 169 175 204 115 286 115 c 2
 365 115 l 2
 452 115 550 194 563 265 c 2
 635 600 l 1
 774 600 l 1
 702 265 l 2
 692 210 639 98 492 34 c 0
 444 11 392 0 341 0 c 2
 262 0 l 2
EndSplineSet
Validated: 1
EndChar

StartChar: uniFB4A
Encoding: 64330 64330 960
Width: 756
Flags: HMW
LayerCount: 2
Fore
SplineSet
348 339 m 1
 430 339 l 1
 413 257 l 1
 331 257 l 1
 348 339 l 1
505 366 m 2
 502 455 504 464 397 485 c 2
 312 485 l 1
 257 229 l 2
 246 193 241 98 128 44 c 0
 96 29 32 0 -32 0 c 0
 -43 0 -57 5 -57 5 c 1
 -32 121 l 1
 -32 121 -16 115 -4 115 c 0
 1 115 5 115 8 115 c 0
 42 115 77 140 90 153 c 0
 108 174 109 185 119 233 c 0
 173 485 l 1
 107 485 l 1
 131 600 l 1
 433 600 l 2
 528 589 647 561 647 403 c 0
 647 398.5 647.25 393.75 647.25 388.875 c 0
 647.25 384 647 379 646 374 c 0
 566 0 l 1
 427 0 l 1
 505 366 l 2
EndSplineSet
Validated: 1
EndChar

StartChar: afii57700
Encoding: 64331 64331 961
Width: 297
Flags: MW
LayerCount: 2
Fore
SplineSet
142 742 m 1
 224 742 l 1
 207 660 l 1
 124 660 l 1
 142 742 l 1
-41 0 m 1
 87 600 l 1
 226 600 l 1
 98 0 l 1
 -41 0 l 1
EndSplineSet
Validated: 1
EndChar

StartChar: uniFB4C
Encoding: 64332 64332 962
Width: 651
Flags: HMW
LayerCount: 2
Fore
SplineSet
204 742 m 1
 404 742 l 1
 386 660 l 1
 186 660 l 1
 204 742 l 1
266 600 m 2
 451 578 479 485 479 408 c 0
 479 402.286 479.653 395.918 479.653 389.271 c 0
 479.653 384.286 479.286 379.143 478 374 c 0
 423 115 l 1
 515 115 l 1
 490 0 l 1
 -43 0 l 1
 -19 115 l 1
 284 115 l 1
 338 365 l 2
 336 446 336 464 230 485 c 2
 60 485 l 1
 84 600 l 1
 266 600 l 2
EndSplineSet
Validated: 1
EndChar

StartChar: uniFB4D
Encoding: 64333 64333 963
Width: 595
Flags: HMW
LayerCount: 2
Fore
SplineSet
206 742 m 1
 406 742 l 1
 388 660 l 1
 188 660 l 1
 206 742 l 1
281 600 m 2
 369 590 494 561 494 406 c 0
 494 401 494.25 395.75 494.25 390.375 c 0
 494.25 385 494 379.5 493 374 c 0
 462 226 l 2
 418 108 348 21 153 0 c 2
 -44 0 l 1
 -19 115 l 1
 166 115 l 2
 260 132 283 139 325 235 c 2
 353 365 l 2
 350 446 351 464 245 485 c 2
 59 485 l 1
 84 600 l 1
 281 600 l 2
EndSplineSet
Validated: 1
EndChar

StartChar: uniFB4E
Encoding: 64334 64334 964
Width: 660
Flags: MW
LayerCount: 2
Fore
SplineSet
252 742 m 1
 452 742 l 1
 434 660 l 1
 234 660 l 1
 252 742 l 1
342 600 m 2
 481 596 561 513 561 421 c 0
 561 404 560 388 556 372 c 0
 525 228 l 2
 468 50 339 10 215 0 c 1
 -41 0 l 1
 -16 115 l 1
 231 115 l 2
 283 121 310 118 364 180 c 0
 377 194 381 200 388 234 c 0
 416 366 l 1
 418 384 420 394 420 402 c 0
 420 417 411 449 365 475 c 0
 348 485 249 485 201 485 c 1
 184 406 l 1
 182 395 181 386 181 379 c 0
 181 358 193 355 228 355 c 2
 281 355 l 1
 257 240 l 1
 192 240 l 1
 156 245 108 242 68 283 c 0
 43 309 38 336 38 358 c 0
 38 373 41 386 43 397 c 2
 87 600 l 1
 342 600 l 2
EndSplineSet
Validated: 1
EndChar

StartChar: uniFB4F
Encoding: 64335 64335 965
Width: 714
Flags: MW
LayerCount: 2
Fore
SplineSet
84 569 m 1
 123 750 l 1
 262 750 l 1
 230 600 l 1
 372 315 l 1
 420 362 431 389 456 444 c 1
 490 600 l 1
 629 600 l 1
 593 433 l 2
 539 297 469 241 423 212 c 1
 530 0 l 1
 367 0 l 1
 84 569 l 1
EndSplineSet
Validated: 1
LCarets2: 1 0 
Ligature2: "'dlig' Discretionary Ligatures in Hebrew lookup 4 subtable" afii57664 afii57676
EndChar

StartChar: uni0258
Encoding: 600 600 968
Width: 556
Flags: HMW
TeX: 117 0
LayerCount: 2
Fore
SplineSet
279.43 549 m 0
 441.721 549 482.482 444.856 482.482 344.934 c 0
 482.482 279.849 465.188 216.555 452.921 185 c 0
 404.715 61 286.059 -23 161.059 -23 c 0
 40.0586 -23 -36.0605 41 -47.9082 152 c 1
 90.0918 152 l 1
 95.3184 114 129.6 89 177.6 89 c 0
 234.6 89 286.984 126 308.366 181 c 0
 311.864 190 314.975 198 322.86 226 c 1
 -40.1396 226 l 1
 -34.6455 271 -24.3174 313 -9.54492 351 c 0
 35.5518 467 151.43 549 279.43 549 c 0
126.846 334 m 2
 121.015 319 l 1
 341.015 319 l 1
 341.857 326.988 342.331 334.94 342.331 342.725 c 0
 342.331 393.415 322.238 437 252.889 437 c 0
 182.889 437 148.229 389 126.846 334 c 2
EndSplineSet
Validated: 1
EndChar

StartChar: uni0190
Encoding: 400 400 973
Width: 672
Flags: HMW
TeX: 117 0
LayerCount: 2
Fore
SplineSet
142 178 m 0
 142 127 190 97 272 97 c 0
 374 97 439 140 460 218 c 1
 606 218 l 1
 566 62 443 -23 257 -23 c 0
 91 -23 -1 45 -1 163 c 0
 -1 212 13 322 124 377 c 1
 97 401 84 431 84 471 c 0
 84 631 212 741 408 741 c 0
 606 741 655 643 655 566 c 0
 655 548 653 529 649 507 c 1
 509 507 l 1
 510 513 510 520 510 525 c 0
 510 588 465 621 378 621 c 0
 292 621 232 578 232 507 c 0
 232 464 260 428 352 428 c 2
 428 428 l 1
 405 308 l 1
 303 308 l 2
 205 308 142 251 142 178 c 0
EndSplineSet
Validated: 1
EndChar

StartChar: uni0283
Encoding: 643 643 974
Width: 333
Flags: MW
TeX: 117 0
LayerCount: 2
Fore
SplineSet
299 582 m 2
 156 -94 l 2
 137 -182 93 -218 6 -218 c 0
 -14 -218 -48 -216 -76 -213 c 1
 -52 -101 l 1
 -42 -104 -37 -105 -28 -105 c 0
 2 -105 16 -94 22 -63 c 2
 162 594 l 2
 181 685 236 729 329 729 c 0
 348 729 382 728 408 726 c 1
 386 621 l 1
 374 623 358 624 346 624 c 0
 320 624 305 610 299 582 c 2
EndSplineSet
Validated: 1
EndChar

StartChar: uni0251
Encoding: 593 593 975
Width: 611
Flags: MW
TeX: 117 0
LayerCount: 2
Fore
SplineSet
251 94 m 0
 378 94 411 268 411 320 c 0
 411 389 379 432 323 432 c 0
 198 432 163 257 163 207 c 0
 163 138 195 94 251 94 c 0
20 183 m 0
 20 341 139 549 317 549 c 0
 384 549 425 524 449 470 c 1
 464 540 l 1
 604 540 l 1
 507 83 l 2
 505 75 504 68 504 62 c 0
 504 46 510 34 525 17 c 1
 521 0 l 1
 369 0 l 1
 363 9 361 17 361 27 c 0
 361 34 362 42 365 54 c 1
 361 55 l 1
 315 2 262 -23 195 -23 c 0
 121 -23 20 18 20 183 c 0
EndSplineSet
Validated: 1
EndChar

